{"glyphs":{"0":{"ha":833,"x_min":0,"x_max":0,"o":"m 417 1000 b 33 486 153 1000 33 779 b 417 -28 33 193 153 -28 b 800 486 682 -28 800 193 b 417 1000 800 779 682 1000 z m 418 783 b 560 486 514 783 560 675 b 418 189 560 299 514 189 b 274 486 318 189 274 297 b 418 783 274 674 318 783 z "},"1":{"ha":642,"x_min":0,"x_max":0,"o":"m 274 1 l 508 1 l 508 974 l 285 974 l -1 803 l 114 636 l 274 729 z "},"2":{"ha":833,"x_min":0,"x_max":0,"o":"m 71 0 l 760 0 l 760 211 l 360 211 l 567 404 b 735 715 646 478 735 582 b 418 1000 735 889 594 1000 b 22 768 235 1000 107 907 l 211 651 b 394 792 260 732 308 792 b 497 690 454 792 497 754 b 406 532 497 628 453 576 l 71 211 z "},"3":{"ha":833,"x_min":0,"x_max":0,"o":"m 775 285 b 635 522 775 388 725 471 b 735 736 700 574 735 647 b 413 1000 735 899 599 1000 b 57 814 243 1000 131 929 l 247 696 b 394 792 282 753 324 792 b 496 707 454 792 496 761 b 385 617 496 646 444 617 l 236 617 l 236 408 l 392 408 b 538 294 476 408 538 369 b 408 181 538 226 483 181 b 217 335 321 181 267 229 l 11 208 b 408 -28 93 61 215 -28 b 775 285 618 -28 775 94 z "},"4":{"ha":833,"x_min":0,"x_max":0,"o":"m 47 242 l 468 242 l 468 0 l 703 0 l 703 242 l 792 242 l 792 453 l 703 453 l 703 972 l 433 972 l 47 453 z m 282 453 l 468 699 l 468 453 z "},"5":{"ha":833,"x_min":0,"x_max":0,"o":"m 113 408 l 372 408 b 542 294 482 408 542 371 b 414 181 542 226 490 181 b 221 335 329 181 272 228 l 15 208 b 414 -28 97 60 224 -28 b 781 306 619 -28 781 97 b 385 618 781 506 664 618 l 357 618 l 365 761 l 754 761 l 754 972 l 140 972 z "},"6":{"ha":833,"x_min":0,"x_max":0,"o":"m 471 1000 b 32 490 157 1000 32 785 b 440 -28 32 175 169 -28 b 810 315 672 -28 810 128 b 489 636 810 497 689 636 b 276 569 403 636 333 613 b 468 789 292 719 357 789 b 631 696 536 789 585 749 l 810 846 b 471 1000 749 921 642 1000 z m 442 429 b 569 307 519 429 569 381 b 436 183 569 233 517 183 b 282 354 354 183 301 232 b 442 429 322 404 378 429 z "},"7":{"ha":833,"x_min":0,"x_max":0,"o":"m 347 0 l 794 761 l 794 972 l 76 972 l 76 761 l 544 761 l 76 0 z "},"8":{"ha":833,"x_min":0,"x_max":0,"o":"m 417 1000 b 71 731 183 1000 71 867 b 192 522 71 646 111 571 b 31 274 85 475 31 388 b 417 -28 31 104 163 -28 b 803 274 674 -28 803 104 b 642 524 803 388 749 475 b 763 731 724 571 763 646 b 417 1000 763 867 651 1000 z m 421 611 b 311 704 351 611 311 646 b 421 799 311 761 350 799 b 522 704 483 799 522 761 b 421 611 522 646 483 611 z m 418 174 b 271 288 325 174 271 217 b 418 408 271 361 325 408 b 563 288 510 408 563 361 b 418 174 563 217 510 174 z "},"9":{"ha":833,"x_min":0,"x_max":0,"o":"m 357 -28 b 796 482 671 -28 796 188 b 388 1000 796 797 658 1000 b 18 657 156 1000 18 844 b 339 336 18 475 139 336 b 551 403 425 336 494 360 b 360 183 536 253 471 183 b 197 276 293 183 243 224 l 18 126 b 357 -28 79 51 186 -28 z m 258 665 b 392 789 258 739 311 789 b 546 618 474 789 526 740 b 386 543 506 568 450 543 b 258 665 308 543 258 592 z "}," ":{"ha":375,"x_min":0,"x_max":0,"o":""},"&":{"ha":1024,"x_min":0,"x_max":0,"o":"m 1021 0 l 840 190 b 969 521 901 281 943 394 l 746 521 b 688 351 735 456 714 399 l 556 490 b 742 744 658 533 742 615 b 458 1000 742 906 619 1000 b 157 735 274 1000 157 890 b 217 550 157 672 174 615 b 51 299 124 504 51 417 b 425 -28 51 83 208 -28 b 694 46 532 -28 621 -1 l 739 0 z m 433 619 b 381 721 410 643 381 674 b 464 806 381 774 411 806 b 538 735 511 806 538 771 b 436 617 538 682 519 644 z m 281 300 b 336 406 281 340 297 379 b 350 392 340 401 346 396 l 543 197 b 439 168 507 178 472 168 b 281 300 346 168 281 208 z "},"A":{"ha":1044,"x_min":0,"x_max":0,"o":"m 8 0 l 271 0 l 350 229 l 694 229 l 774 0 l 1036 0 l 683 972 l 361 972 z m 422 438 l 522 724 l 622 438 z "},"À":{"ha":1044,"x_min":0,"x_max":0,"o":"m 415 1056 l 640 1056 l 483 1243 l 233 1243 z m 8 0 l 271 0 l 350 229 l 694 229 l 774 0 l 1036 0 l 683 972 l 361 972 z m 422 438 l 522 724 l 622 438 z "},"Á":{"ha":1044,"x_min":0,"x_max":0,"o":"m 633 1056 l 815 1243 l 565 1243 l 408 1056 z m 8 0 l 271 0 l 350 229 l 694 229 l 774 0 l 1036 0 l 683 972 l 361 972 z m 422 438 l 522 724 l 622 438 z "},"Â":{"ha":1044,"x_min":0,"x_max":0,"o":"m 433 1056 l 522 1146 l 610 1056 l 800 1056 l 644 1243 l 400 1243 l 243 1056 z m 8 0 l 271 0 l 350 229 l 694 229 l 774 0 l 1036 0 l 683 972 l 361 972 z m 422 438 l 522 724 l 622 438 z "},"Ǎ":{"ha":1044,"x_min":0,"x_max":0,"o":"m 433 1243 l 243 1243 l 400 1056 l 644 1056 l 800 1243 l 610 1243 l 522 1153 z m 8 0 l 271 0 l 350 229 l 694 229 l 774 0 l 1036 0 l 683 972 l 361 972 z m 422 438 l 522 724 l 622 438 z "},"Ā":{"ha":1044,"x_min":0,"x_max":0,"o":"m 258 1063 l 786 1063 l 786 1222 l 258 1222 z m 8 0 l 271 0 l 350 229 l 694 229 l 774 0 l 1036 0 l 683 972 l 361 972 z m 422 438 l 522 724 l 622 438 z "},"Ă":{"ha":1044,"x_min":0,"x_max":0,"o":"m 522 1186 b 422 1243 451 1186 426 1211 l 244 1243 b 522 1042 243 1114 350 1042 b 800 1243 694 1042 800 1114 l 622 1243 b 522 1186 618 1211 592 1186 z m 8 0 l 271 0 l 350 229 l 694 229 l 774 0 l 1036 0 l 683 972 l 361 972 z m 422 438 l 522 724 l 622 438 z "},"Å":{"ha":1044,"x_min":0,"x_max":0,"o":"m 332 1185 b 522 1028 332 1074 415 1028 b 714 1185 632 1028 714 1074 b 522 1342 714 1297 632 1342 b 332 1185 415 1342 332 1297 z m 589 1185 b 522 1138 589 1151 565 1138 b 456 1185 478 1138 456 1151 b 522 1232 456 1219 478 1232 b 589 1185 567 1232 589 1219 z m 8 0 l 271 0 l 350 229 l 694 229 l 774 0 l 1036 0 l 683 972 l 361 972 z m 422 438 l 522 724 l 622 438 z "},"Ǻ":{"ha":1044,"x_min":0,"x_max":0,"o":"m 633 1383 l 815 1571 l 565 1571 l 408 1383 z m 332 1185 b 522 1028 332 1074 415 1028 b 714 1185 632 1028 714 1074 b 522 1342 714 1297 632 1342 b 332 1185 415 1342 332 1297 z m 589 1185 b 522 1138 589 1151 565 1138 b 456 1185 478 1138 456 1151 b 522 1232 456 1219 478 1232 b 589 1185 567 1232 589 1219 z m 8 0 l 271 0 l 350 229 l 694 229 l 774 0 l 1036 0 l 683 972 l 361 972 z m 422 438 l 522 724 l 622 438 z "},"Ã":{"ha":1044,"x_min":0,"x_max":0,"o":"m 247 1056 l 404 1056 l 404 1083 b 419 1106 404 1103 411 1106 b 632 1042 450 1106 540 1042 b 797 1207 722 1042 797 1093 l 797 1243 l 640 1243 l 640 1215 b 625 1193 640 1197 633 1193 b 414 1257 597 1193 501 1257 b 247 1092 322 1257 247 1203 z m 8 0 l 271 0 l 350 229 l 694 229 l 774 0 l 1036 0 l 683 972 l 361 972 z m 422 438 l 522 724 l 622 438 z "},"Ä":{"ha":1044,"x_min":0,"x_max":0,"o":"m 360 1028 b 475 1144 421 1028 475 1081 b 360 1261 475 1207 421 1261 b 242 1144 294 1261 242 1207 b 360 1028 242 1081 294 1028 z m 686 1028 b 803 1144 750 1028 803 1081 b 686 1261 803 1208 750 1261 b 569 1144 622 1261 569 1208 b 686 1028 569 1081 622 1028 z m 8 0 l 271 0 l 350 229 l 694 229 l 774 0 l 1036 0 l 683 972 l 361 972 z m 422 438 l 522 724 l 622 438 z "},"Ạ":{"ha":1044,"x_min":0,"x_max":0,"o":"m 8 0 l 271 0 l 350 229 l 694 229 l 774 0 l 1036 0 l 683 972 l 361 972 z m 422 438 l 522 724 l 622 438 z m 522 -356 b 661 -215 597 -356 661 -290 b 522 -76 661 -140 597 -76 b 382 -215 446 -76 382 -140 b 522 -356 382 -290 446 -356 z "},"Ą":{"ha":1044,"x_min":0,"x_max":0,"o":"m 8 0 l 271 0 l 350 229 l 694 229 l 774 0 l 778 0 l 749 -15 b 647 -172 672 -54 647 -114 b 867 -342 647 -253 721 -342 b 996 -321 925 -342 963 -335 l 996 -179 b 903 -196 978 -187 947 -196 b 822 -139 847 -196 822 -176 b 901 -56 822 -111 844 -87 l 996 0 l 1036 0 l 683 972 l 361 972 z m 422 438 l 522 724 l 622 438 z "},"Ả":{"ha":1044,"x_min":0,"x_max":0,"o":"m 500 1013 b 721 1189 636 1033 721 1090 b 540 1342 721 1283 644 1342 b 343 1274 460 1342 393 1315 l 429 1165 b 528 1204 454 1186 489 1204 b 564 1182 554 1204 564 1194 b 469 1143 564 1161 533 1153 z m 8 0 l 271 0 l 350 229 l 694 229 l 774 0 l 1036 0 l 683 972 l 361 972 z m 422 438 l 522 724 l 622 438 z "},"Ấ":{"ha":1044,"x_min":0,"x_max":0,"o":"m 433 1056 l 522 1146 l 610 1056 l 800 1056 l 682 1197 l 865 1197 l 1047 1385 l 811 1385 l 668 1214 l 644 1243 l 400 1243 l 243 1056 z m 8 0 l 271 0 l 350 229 l 694 229 l 774 0 l 1036 0 l 683 972 l 361 972 z m 422 438 l 522 724 l 622 438 z "},"Ầ":{"ha":1044,"x_min":0,"x_max":0,"o":"m 735 1197 l 946 1197 l 789 1385 l 553 1385 z m 433 1056 l 522 1146 l 610 1056 l 800 1056 l 644 1243 l 400 1243 l 243 1056 z m 8 0 l 271 0 l 350 229 l 694 229 l 774 0 l 1036 0 l 683 972 l 361 972 z m 422 438 l 522 724 l 622 438 z "},"Ẩ":{"ha":1044,"x_min":0,"x_max":0,"o":"m 772 1153 b 958 1300 888 1172 958 1218 b 799 1428 958 1379 899 1428 b 629 1371 735 1428 669 1404 l 701 1281 b 793 1313 721 1296 758 1313 b 828 1294 821 1313 828 1304 b 746 1263 828 1276 792 1269 z m 433 1056 l 522 1146 l 610 1056 l 800 1056 l 644 1243 l 400 1243 l 243 1056 z m 8 0 l 271 0 l 350 229 l 694 229 l 774 0 l 1036 0 l 683 972 l 361 972 z m 422 438 l 522 724 l 622 438 z "},"Ẫ":{"ha":1044,"x_min":0,"x_max":0,"o":"m 247 1285 l 404 1285 l 404 1313 b 419 1335 404 1332 411 1335 b 632 1271 450 1335 540 1271 b 797 1436 722 1271 797 1322 l 797 1472 l 640 1472 l 640 1444 b 625 1422 640 1426 633 1422 b 414 1486 597 1422 501 1486 b 247 1321 322 1486 247 1432 z m 433 1056 l 522 1146 l 610 1056 l 800 1056 l 644 1243 l 400 1243 l 243 1056 z m 8 0 l 271 0 l 350 229 l 694 229 l 774 0 l 1036 0 l 683 972 l 361 972 z m 422 438 l 522 724 l 622 438 z "},"Ậ":{"ha":1044,"x_min":0,"x_max":0,"o":"m 433 1056 l 522 1146 l 610 1056 l 800 1056 l 644 1243 l 400 1243 l 243 1056 z m 8 0 l 271 0 l 350 229 l 694 229 l 774 0 l 1036 0 l 683 972 l 361 972 z m 422 438 l 522 724 l 622 438 z m 522 -356 b 661 -215 597 -356 661 -290 b 522 -76 661 -140 597 -76 b 382 -215 446 -76 382 -140 b 522 -356 382 -290 446 -356 z "},"Ắ":{"ha":1044,"x_min":0,"x_max":0,"o":"m 633 1285 l 815 1472 l 565 1472 l 408 1285 z m 522 1186 b 422 1243 451 1186 426 1211 l 244 1243 b 522 1042 243 1114 350 1042 b 800 1243 694 1042 800 1114 l 622 1243 b 522 1186 618 1211 592 1186 z m 8 0 l 271 0 l 350 229 l 694 229 l 774 0 l 1036 0 l 683 972 l 361 972 z m 422 438 l 522 724 l 622 438 z "},"Ằ":{"ha":1044,"x_min":0,"x_max":0,"o":"m 415 1285 l 640 1285 l 483 1472 l 233 1472 z m 522 1186 b 422 1243 451 1186 426 1211 l 244 1243 b 522 1042 243 1114 350 1042 b 800 1243 694 1042 800 1114 l 622 1243 b 522 1186 618 1211 592 1186 z m 8 0 l 271 0 l 350 229 l 694 229 l 774 0 l 1036 0 l 683 972 l 361 972 z m 422 438 l 522 724 l 622 438 z "},"Ẳ":{"ha":1044,"x_min":0,"x_max":0,"o":"m 500 1242 b 721 1418 636 1263 721 1319 b 540 1571 721 1513 644 1571 b 343 1503 460 1571 393 1544 l 429 1394 b 528 1433 454 1415 489 1433 b 564 1411 554 1433 564 1424 b 469 1372 564 1390 533 1382 z m 522 1186 b 422 1243 451 1186 426 1211 l 244 1243 b 522 1042 243 1114 350 1042 b 800 1243 694 1042 800 1114 l 622 1243 b 522 1186 618 1211 592 1186 z m 8 0 l 271 0 l 350 229 l 694 229 l 774 0 l 1036 0 l 683 972 l 361 972 z m 422 438 l 522 724 l 622 438 z "},"Ẵ":{"ha":1044,"x_min":0,"x_max":0,"o":"m 247 1285 l 404 1285 l 404 1313 b 419 1335 404 1332 411 1335 b 632 1271 450 1335 540 1271 b 797 1436 722 1271 797 1322 l 797 1472 l 640 1472 l 640 1444 b 625 1422 640 1426 633 1422 b 414 1486 597 1422 501 1486 b 247 1321 322 1486 247 1432 z m 522 1186 b 422 1243 451 1186 426 1211 l 244 1243 b 522 1042 243 1114 350 1042 b 800 1243 694 1042 800 1114 l 622 1243 b 522 1186 618 1211 592 1186 z m 8 0 l 271 0 l 350 229 l 694 229 l 774 0 l 1036 0 l 683 972 l 361 972 z m 422 438 l 522 724 l 622 438 z "},"Ặ":{"ha":1044,"x_min":0,"x_max":0,"o":"m 522 1186 b 422 1243 451 1186 426 1211 l 244 1243 b 522 1042 243 1114 350 1042 b 800 1243 694 1042 800 1114 l 622 1243 b 522 1186 618 1211 592 1186 z m 8 0 l 271 0 l 350 229 l 694 229 l 774 0 l 1036 0 l 683 972 l 361 972 z m 422 438 l 522 724 l 622 438 z m 522 -356 b 661 -215 597 -356 661 -290 b 522 -76 661 -140 597 -76 b 382 -215 446 -76 382 -140 b 522 -356 382 -290 446 -356 z "},"Æ":{"ha":1394,"x_min":0,"x_max":0,"o":"m 0 0 l 285 0 l 411 229 l 700 229 l 700 0 l 1300 0 l 1300 203 l 947 203 l 947 394 l 1244 394 l 1244 597 l 947 597 l 947 768 l 1300 768 l 1300 972 l 554 972 z m 526 438 l 700 751 l 700 438 z "},"Ǽ":{"ha":1394,"x_min":0,"x_max":0,"o":"m 933 1056 l 1115 1243 l 865 1243 l 708 1056 z m 0 0 l 285 0 l 411 229 l 700 229 l 700 0 l 1300 0 l 1300 203 l 947 203 l 947 394 l 1244 394 l 1244 597 l 947 597 l 947 768 l 1300 768 l 1300 972 l 554 972 z m 526 438 l 700 751 l 700 438 z "},"B":{"ha":922,"x_min":0,"x_max":0,"o":"m 135 0 l 475 0 b 857 292 711 0 857 108 b 706 515 857 388 801 467 b 801 700 767 561 801 626 b 456 972 801 872 671 972 l 135 972 z m 463 768 b 547 689 517 768 547 739 b 463 606 547 635 517 606 l 382 606 l 382 768 z m 490 401 b 603 303 560 401 603 367 b 490 204 603 242 560 204 l 382 204 l 382 401 z "},"C":{"ha":1010,"x_min":0,"x_max":0,"o":"m 572 204 b 306 486 417 204 306 322 b 572 768 306 649 417 768 b 789 654 669 768 743 721 l 985 804 b 572 1000 894 922 750 1000 b 51 486 263 1000 51 764 b 572 -28 51 208 263 -28 b 985 169 750 -28 894 50 l 789 318 b 572 204 743 251 668 204 z "},"Ć":{"ha":1010,"x_min":0,"x_max":0,"o":"m 683 1056 l 865 1243 l 615 1243 l 458 1056 z m 572 204 b 306 486 417 204 306 322 b 572 768 306 649 417 768 b 789 654 669 768 743 721 l 985 804 b 572 1000 894 922 750 1000 b 51 486 263 1000 51 764 b 572 -28 51 208 263 -28 b 985 169 750 -28 894 50 l 789 318 b 572 204 743 251 668 204 z "},"Ĉ":{"ha":1010,"x_min":0,"x_max":0,"o":"m 483 1056 l 572 1146 l 660 1056 l 850 1056 l 694 1243 l 450 1243 l 293 1056 z m 572 204 b 306 486 417 204 306 322 b 572 768 306 649 417 768 b 789 654 669 768 743 721 l 985 804 b 572 1000 894 922 750 1000 b 51 486 263 1000 51 764 b 572 -28 51 208 263 -28 b 985 169 750 -28 894 50 l 789 318 b 572 204 743 251 668 204 z "},"Č":{"ha":1010,"x_min":0,"x_max":0,"o":"m 483 1243 l 293 1243 l 450 1056 l 694 1056 l 850 1243 l 660 1243 l 572 1153 z m 572 204 b 306 486 417 204 306 322 b 572 768 306 649 417 768 b 789 654 669 768 743 721 l 985 804 b 572 1000 894 922 750 1000 b 51 486 263 1000 51 764 b 572 -28 51 208 263 -28 b 985 169 750 -28 894 50 l 789 318 b 572 204 743 251 668 204 z "},"Ċ":{"ha":1010,"x_min":0,"x_max":0,"o":"m 572 1028 b 688 1144 635 1028 688 1081 b 572 1261 688 1208 635 1261 b 454 1144 507 1261 454 1208 b 572 1028 454 1081 507 1028 z m 572 204 b 306 486 417 204 306 322 b 572 768 306 649 417 768 b 789 654 669 768 743 721 l 985 804 b 572 1000 894 922 750 1000 b 51 486 263 1000 51 764 b 572 -28 51 208 263 -28 b 985 169 750 -28 894 50 l 789 318 b 572 204 743 251 668 204 z "},"Ç":{"ha":1010,"x_min":0,"x_max":0,"o":"m 572 204 b 306 486 417 204 306 322 b 572 768 306 649 417 768 b 789 654 669 768 743 721 l 985 804 b 572 1000 894 922 750 1000 b 51 486 263 1000 51 764 b 457 -17 51 244 211 35 l 339 -224 l 553 -224 l 672 -19 b 985 169 804 4 913 74 l 789 318 b 572 204 743 251 668 204 z "},"D":{"ha":1096,"x_min":0,"x_max":0,"o":"m 135 0 l 524 0 b 1044 486 833 0 1044 224 b 524 972 1044 749 833 972 l 135 972 z m 525 749 b 789 486 678 749 789 638 b 525 224 789 336 678 224 l 382 224 l 382 749 z "},"Ď":{"ha":1096,"x_min":0,"x_max":0,"o":"m 458 1243 l 268 1243 l 425 1056 l 669 1056 l 825 1243 l 635 1243 l 547 1153 z m 135 0 l 524 0 b 1044 486 833 0 1044 224 b 524 972 1044 749 833 972 l 135 972 z m 525 749 b 789 486 678 749 789 638 b 525 224 789 336 678 224 l 382 224 l 382 749 z "},"Đ":{"ha":1096,"x_min":0,"x_max":0,"o":"m 135 0 l 524 0 b 1044 486 833 0 1044 224 b 524 972 1044 749 833 972 l 135 972 l 135 576 l 0 576 l 0 415 l 135 415 z m 589 415 l 589 576 l 382 576 l 382 749 l 525 749 b 789 486 678 749 789 638 b 525 224 789 336 678 224 l 382 224 l 382 415 z "},"Ð":{"ha":1096,"x_min":0,"x_max":0,"o":"m 135 0 l 524 0 b 1044 486 833 0 1044 224 b 524 972 1044 749 833 972 l 135 972 l 135 576 l 0 576 l 0 415 l 135 415 z m 589 415 l 589 576 l 382 576 l 382 749 l 525 749 b 789 486 678 749 789 638 b 525 224 789 336 678 224 l 382 224 l 382 415 z "},"Ḍ":{"ha":1096,"x_min":0,"x_max":0,"o":"m 135 0 l 524 0 b 1044 486 833 0 1044 224 b 524 972 1044 749 833 972 l 135 972 z m 525 749 b 789 486 678 749 789 638 b 525 224 789 336 678 224 l 382 224 l 382 749 z m 547 -356 b 686 -215 622 -356 686 -290 b 547 -76 686 -140 622 -76 b 407 -215 471 -76 407 -140 b 547 -356 407 -290 471 -356 z "},"Ḏ":{"ha":1096,"x_min":0,"x_max":0,"o":"m 135 0 l 524 0 b 1044 486 833 0 1044 224 b 524 972 1044 749 833 972 l 135 972 z m 525 749 b 789 486 678 749 789 638 b 525 224 789 336 678 224 l 382 224 l 382 749 z m 283 -318 l 811 -318 l 811 -157 l 283 -157 z "},"Ḑ":{"ha":1096,"x_min":0,"x_max":0,"o":"m 135 0 l 524 0 b 1044 486 833 0 1044 224 b 524 972 1044 749 833 972 l 135 972 z m 525 749 b 789 486 678 749 789 638 b 525 224 789 336 678 224 l 382 224 l 382 749 z m 508 -342 l 678 -111 l 442 -111 l 299 -342 z "},"E":{"ha":831,"x_min":0,"x_max":0,"o":"m 135 0 l 735 0 l 735 204 l 382 204 l 382 393 l 679 393 l 679 597 l 382 597 l 382 768 l 735 768 l 735 972 l 135 972 z "},"È":{"ha":831,"x_min":0,"x_max":0,"o":"m 324 1056 l 549 1056 l 392 1243 l 142 1243 z m 135 0 l 735 0 l 735 204 l 382 204 l 382 393 l 679 393 l 679 597 l 382 597 l 382 768 l 735 768 l 735 972 l 135 972 z "},"É":{"ha":831,"x_min":0,"x_max":0,"o":"m 542 1056 l 724 1243 l 474 1243 l 317 1056 z m 135 0 l 735 0 l 735 204 l 382 204 l 382 393 l 679 393 l 679 597 l 382 597 l 382 768 l 735 768 l 735 972 l 135 972 z "},"Ê":{"ha":831,"x_min":0,"x_max":0,"o":"m 342 1056 l 431 1146 l 518 1056 l 708 1056 l 553 1243 l 308 1243 l 151 1056 z m 135 0 l 735 0 l 735 204 l 382 204 l 382 393 l 679 393 l 679 597 l 382 597 l 382 768 l 735 768 l 735 972 l 135 972 z "},"Ě":{"ha":831,"x_min":0,"x_max":0,"o":"m 342 1243 l 151 1243 l 308 1056 l 553 1056 l 708 1243 l 518 1243 l 431 1153 z m 135 0 l 735 0 l 735 204 l 382 204 l 382 393 l 679 393 l 679 597 l 382 597 l 382 768 l 735 768 l 735 972 l 135 972 z "},"Ë":{"ha":831,"x_min":0,"x_max":0,"o":"m 268 1028 b 383 1144 329 1028 383 1081 b 268 1261 383 1207 329 1261 b 150 1144 203 1261 150 1207 b 268 1028 150 1081 203 1028 z m 594 1028 b 711 1144 658 1028 711 1081 b 594 1261 711 1208 658 1261 b 478 1144 531 1261 478 1208 b 594 1028 478 1081 531 1028 z m 135 0 l 735 0 l 735 204 l 382 204 l 382 393 l 679 393 l 679 597 l 382 597 l 382 768 l 735 768 l 735 972 l 135 972 z "},"Ē":{"ha":831,"x_min":0,"x_max":0,"o":"m 167 1063 l 694 1063 l 694 1222 l 167 1222 z m 135 0 l 735 0 l 735 204 l 382 204 l 382 393 l 679 393 l 679 597 l 382 597 l 382 768 l 735 768 l 735 972 l 135 972 z "},"Ĕ":{"ha":831,"x_min":0,"x_max":0,"o":"m 431 1186 b 331 1243 360 1186 335 1211 l 153 1243 b 431 1042 151 1114 258 1042 b 708 1243 603 1042 708 1114 l 531 1243 b 431 1186 526 1211 500 1186 z m 135 0 l 735 0 l 735 204 l 382 204 l 382 393 l 679 393 l 679 597 l 382 597 l 382 768 l 735 768 l 735 972 l 135 972 z "},"Ẽ":{"ha":831,"x_min":0,"x_max":0,"o":"m 156 1056 l 313 1056 l 313 1083 b 328 1106 313 1103 319 1106 b 540 1042 358 1106 449 1042 b 706 1207 631 1042 706 1093 l 706 1243 l 549 1243 l 549 1215 b 533 1193 549 1197 542 1193 b 322 1257 506 1193 410 1257 b 156 1092 231 1257 156 1203 z m 135 0 l 735 0 l 735 204 l 382 204 l 382 393 l 679 393 l 679 597 l 382 597 l 382 768 l 735 768 l 735 972 l 135 972 z "},"Ė":{"ha":831,"x_min":0,"x_max":0,"o":"m 431 1028 b 546 1144 493 1028 546 1081 b 431 1261 546 1208 493 1261 b 313 1144 365 1261 313 1208 b 431 1028 313 1081 365 1028 z m 135 0 l 735 0 l 735 204 l 382 204 l 382 393 l 679 393 l 679 597 l 382 597 l 382 768 l 735 768 l 735 972 l 135 972 z "},"Ẹ":{"ha":831,"x_min":0,"x_max":0,"o":"m 135 0 l 735 0 l 735 204 l 382 204 l 382 393 l 679 393 l 679 597 l 382 597 l 382 768 l 735 768 l 735 972 l 135 972 z m 415 -356 b 554 -215 490 -356 554 -290 b 415 -76 554 -140 490 -76 b 275 -215 339 -76 275 -140 b 415 -356 275 -290 339 -356 z "},"Ę":{"ha":831,"x_min":0,"x_max":0,"o":"m 135 0 l 517 0 l 488 -15 b 386 -172 411 -54 386 -114 b 606 -342 386 -253 460 -342 b 735 -321 664 -342 701 -335 l 735 -179 b 642 -196 717 -187 686 -196 b 561 -139 586 -196 561 -176 b 640 -56 561 -111 583 -87 l 735 0 l 735 204 l 382 204 l 382 393 l 679 393 l 679 597 l 382 597 l 382 768 l 735 768 l 735 972 l 135 972 z "},"Ẻ":{"ha":831,"x_min":0,"x_max":0,"o":"m 408 1013 b 629 1189 544 1033 629 1090 b 449 1342 629 1283 553 1342 b 251 1274 368 1342 301 1315 l 338 1165 b 436 1204 363 1186 397 1204 b 472 1182 463 1204 472 1194 b 378 1143 472 1161 442 1153 z m 135 0 l 735 0 l 735 204 l 382 204 l 382 393 l 679 393 l 679 597 l 382 597 l 382 768 l 735 768 l 735 972 l 135 972 z "},"Ế":{"ha":831,"x_min":0,"x_max":0,"o":"m 342 1056 l 431 1146 l 518 1056 l 708 1056 l 590 1197 l 774 1197 l 956 1385 l 719 1385 l 576 1214 l 553 1243 l 308 1243 l 151 1056 z m 135 0 l 735 0 l 735 204 l 382 204 l 382 393 l 679 393 l 679 597 l 382 597 l 382 768 l 735 768 l 735 972 l 135 972 z "},"Ề":{"ha":831,"x_min":0,"x_max":0,"o":"m 643 1197 l 854 1197 l 697 1385 l 461 1385 z m 342 1056 l 431 1146 l 518 1056 l 708 1056 l 553 1243 l 308 1243 l 151 1056 z m 135 0 l 735 0 l 735 204 l 382 204 l 382 393 l 679 393 l 679 597 l 382 597 l 382 768 l 735 768 l 735 972 l 135 972 z "},"Ể":{"ha":831,"x_min":0,"x_max":0,"o":"m 681 1153 b 867 1300 796 1172 867 1218 b 707 1428 867 1379 807 1428 b 538 1371 643 1428 578 1404 l 610 1281 b 701 1313 629 1296 667 1313 b 736 1294 729 1313 736 1304 b 654 1263 736 1276 700 1269 z m 342 1056 l 431 1146 l 518 1056 l 708 1056 l 553 1243 l 308 1243 l 151 1056 z m 135 0 l 735 0 l 735 204 l 382 204 l 382 393 l 679 393 l 679 597 l 382 597 l 382 768 l 735 768 l 735 972 l 135 972 z "},"Ễ":{"ha":831,"x_min":0,"x_max":0,"o":"m 156 1285 l 313 1285 l 313 1313 b 328 1335 313 1332 319 1335 b 540 1271 358 1335 449 1271 b 706 1436 631 1271 706 1322 l 706 1472 l 549 1472 l 549 1444 b 533 1422 549 1426 542 1422 b 322 1486 506 1422 410 1486 b 156 1321 231 1486 156 1432 z m 342 1056 l 431 1146 l 518 1056 l 708 1056 l 553 1243 l 308 1243 l 151 1056 z m 135 0 l 735 0 l 735 204 l 382 204 l 382 393 l 679 393 l 679 597 l 382 597 l 382 768 l 735 768 l 735 972 l 135 972 z "},"Ệ":{"ha":831,"x_min":0,"x_max":0,"o":"m 342 1056 l 431 1146 l 518 1056 l 708 1056 l 553 1243 l 308 1243 l 151 1056 z m 135 0 l 735 0 l 735 204 l 382 204 l 382 393 l 679 393 l 679 597 l 382 597 l 382 768 l 735 768 l 735 972 l 135 972 z m 415 -356 b 554 -215 490 -356 554 -290 b 415 -76 554 -140 490 -76 b 275 -215 339 -76 275 -140 b 415 -356 275 -290 339 -356 z "},"Ɛ":{"ha":854,"x_min":0,"x_max":0,"o":"m 65 285 b 432 -28 65 94 222 -28 b 829 208 625 -28 747 61 l 624 335 b 432 181 574 229 519 181 b 303 294 357 181 303 226 b 449 408 303 369 364 408 l 604 408 l 604 617 l 456 617 b 344 707 396 617 344 646 b 446 792 344 761 386 792 b 593 696 517 792 558 753 l 783 814 b 428 1000 710 929 597 1000 b 106 736 242 1000 106 899 b 206 522 106 647 140 574 b 65 285 115 471 65 388 z "},"F":{"ha":775,"x_min":0,"x_max":0,"o":"m 135 0 l 382 0 l 382 393 l 679 393 l 679 597 l 382 597 l 382 768 l 735 768 l 735 972 l 135 972 z "},"G":{"ha":1089,"x_min":0,"x_max":0,"o":"m 586 204 b 306 486 424 204 306 322 b 572 768 306 649 417 768 b 789 654 669 768 743 721 l 985 804 b 572 1000 894 922 750 1000 b 51 486 263 1000 51 764 b 586 -28 51 208 268 -28 b 1013 169 769 -28 921 49 l 1013 600 l 542 600 l 542 390 l 765 390 l 765 263 b 586 204 719 226 658 204 z "},"Ĝ":{"ha":1089,"x_min":0,"x_max":0,"o":"m 483 1056 l 572 1146 l 660 1056 l 850 1056 l 694 1243 l 450 1243 l 293 1056 z m 586 204 b 306 486 424 204 306 322 b 572 768 306 649 417 768 b 789 654 669 768 743 721 l 985 804 b 572 1000 894 922 750 1000 b 51 486 263 1000 51 764 b 586 -28 51 208 268 -28 b 1013 169 769 -28 921 49 l 1013 600 l 542 600 l 542 390 l 765 390 l 765 263 b 586 204 719 226 658 204 z "},"Ǧ":{"ha":1089,"x_min":0,"x_max":0,"o":"m 483 1243 l 293 1243 l 450 1056 l 694 1056 l 850 1243 l 660 1243 l 572 1153 z m 586 204 b 306 486 424 204 306 322 b 572 768 306 649 417 768 b 789 654 669 768 743 721 l 985 804 b 572 1000 894 922 750 1000 b 51 486 263 1000 51 764 b 586 -28 51 208 268 -28 b 1013 169 769 -28 921 49 l 1013 600 l 542 600 l 542 390 l 765 390 l 765 263 b 586 204 719 226 658 204 z "},"Ğ":{"ha":1089,"x_min":0,"x_max":0,"o":"m 572 1186 b 472 1243 501 1186 476 1211 l 294 1243 b 572 1042 293 1114 400 1042 b 850 1243 744 1042 850 1114 l 672 1243 b 572 1186 668 1211 642 1186 z m 586 204 b 306 486 424 204 306 322 b 572 768 306 649 417 768 b 789 654 669 768 743 721 l 985 804 b 572 1000 894 922 750 1000 b 51 486 263 1000 51 764 b 586 -28 51 208 268 -28 b 1013 169 769 -28 921 49 l 1013 600 l 542 600 l 542 390 l 765 390 l 765 263 b 586 204 719 226 658 204 z "},"Ġ":{"ha":1089,"x_min":0,"x_max":0,"o":"m 572 1028 b 688 1144 635 1028 688 1081 b 572 1261 688 1208 635 1261 b 454 1144 507 1261 454 1208 b 572 1028 454 1081 507 1028 z m 586 204 b 306 486 424 204 306 322 b 572 768 306 649 417 768 b 789 654 669 768 743 721 l 985 804 b 572 1000 894 922 750 1000 b 51 486 263 1000 51 764 b 586 -28 51 208 268 -28 b 1013 169 769 -28 921 49 l 1013 600 l 542 600 l 542 390 l 765 390 l 765 263 b 586 204 719 226 658 204 z "},"Ḡ":{"ha":1089,"x_min":0,"x_max":0,"o":"m 308 1063 l 836 1063 l 836 1222 l 308 1222 z m 586 204 b 306 486 424 204 306 322 b 572 768 306 649 417 768 b 789 654 669 768 743 721 l 985 804 b 572 1000 894 922 750 1000 b 51 486 263 1000 51 764 b 586 -28 51 208 268 -28 b 1013 169 769 -28 921 49 l 1013 600 l 542 600 l 542 390 l 765 390 l 765 263 b 586 204 719 226 658 204 z "},"Ģ":{"ha":1089,"x_min":0,"x_max":0,"o":"m 586 204 b 306 486 424 204 306 322 b 572 768 306 649 417 768 b 789 654 669 768 743 721 l 985 804 b 572 1000 894 922 750 1000 b 51 486 263 1000 51 764 b 586 -28 51 208 268 -28 b 1013 169 769 -28 921 49 l 1013 600 l 542 600 l 542 390 l 765 390 l 765 263 b 586 204 719 226 658 204 z m 546 -342 l 715 -111 l 479 -111 l 336 -342 z "},"Ɣ":{"ha":1044,"x_min":0,"x_max":0,"o":"m 819 -82 b 717 213 819 31 786 93 l 661 308 l 1036 972 l 767 972 l 522 549 l 278 972 l 8 972 l 383 308 l 328 213 b 225 -82 258 93 225 31 b 522 -347 228 -249 353 -347 b 819 -82 692 -347 817 -249 z m 522 -142 b 467 -78 486 -142 467 -114 b 522 60 467 -50 494 7 b 578 -78 550 7 578 -50 b 522 -142 578 -114 557 -142 z "},"H":{"ha":1179,"x_min":0,"x_max":0,"o":"m 135 0 l 382 0 l 382 383 l 797 383 l 797 0 l 1044 0 l 1044 972 l 797 972 l 797 607 l 382 607 l 382 972 l 135 972 z "},"Ĥ":{"ha":1179,"x_min":0,"x_max":0,"o":"m 500 1056 l 589 1146 l 676 1056 l 867 1056 l 711 1243 l 467 1243 l 310 1056 z m 135 0 l 382 0 l 382 383 l 797 383 l 797 0 l 1044 0 l 1044 972 l 797 972 l 797 607 l 382 607 l 382 972 l 135 972 z "},"Ħ":{"ha":1179,"x_min":0,"x_max":0,"o":"m 135 0 l 382 0 l 382 383 l 797 383 l 797 0 l 1044 0 l 1044 694 l 1179 694 l 1179 856 l 1044 856 l 1044 972 l 797 972 l 797 856 l 382 856 l 382 972 l 135 972 l 135 856 l 0 856 l 0 694 l 135 694 z m 382 607 l 382 694 l 797 694 l 797 607 z "},"Ḥ":{"ha":1179,"x_min":0,"x_max":0,"o":"m 135 0 l 382 0 l 382 383 l 797 383 l 797 0 l 1044 0 l 1044 972 l 797 972 l 797 607 l 382 607 l 382 972 l 135 972 z m 589 -356 b 728 -215 664 -356 728 -290 b 589 -76 728 -140 664 -76 b 449 -215 513 -76 449 -140 b 589 -356 449 -290 513 -356 z "},"Ḩ":{"ha":1179,"x_min":0,"x_max":0,"o":"m 135 0 l 382 0 l 382 383 l 797 383 l 797 0 l 1044 0 l 1044 972 l 797 972 l 797 607 l 382 607 l 382 972 l 135 972 z m 550 -342 l 719 -111 l 483 -111 l 340 -342 z "},"Ḫ":{"ha":1179,"x_min":0,"x_max":0,"o":"m 135 0 l 382 0 l 382 383 l 797 383 l 797 0 l 1044 0 l 1044 972 l 797 972 l 797 607 l 382 607 l 382 972 l 135 972 z m 589 -197 b 497 -111 526 -197 497 -161 l 318 -111 b 589 -342 318 -258 424 -342 b 857 -111 753 -342 857 -258 l 679 -111 b 589 -197 679 -161 650 -197 z "},"I":{"ha":517,"x_min":0,"x_max":0,"o":"m 135 0 l 382 0 l 382 972 l 135 972 z "},"Ì":{"ha":517,"x_min":0,"x_max":0,"o":"m 151 1056 l 376 1056 l 219 1243 l -31 1243 z m 135 0 l 382 0 l 382 972 l 135 972 z "},"Í":{"ha":517,"x_min":0,"x_max":0,"o":"m 369 1056 l 551 1243 l 301 1243 l 144 1056 z m 135 0 l 382 0 l 382 972 l 135 972 z "},"Î":{"ha":517,"x_min":0,"x_max":0,"o":"m 169 1056 l 258 1146 l 346 1056 l 536 1056 l 381 1243 l 136 1243 l -21 1056 z m 135 0 l 382 0 l 382 972 l 135 972 z "},"Ǐ":{"ha":517,"x_min":0,"x_max":0,"o":"m 169 1243 l -21 1243 l 136 1056 l 381 1056 l 536 1243 l 346 1243 l 258 1153 z m 135 0 l 382 0 l 382 972 l 135 972 z "},"Ï":{"ha":517,"x_min":0,"x_max":0,"o":"m 96 1028 b 211 1144 157 1028 211 1081 b 96 1261 211 1207 157 1261 b -22 1144 31 1261 -22 1207 b 96 1028 -22 1081 31 1028 z m 422 1028 b 539 1144 486 1028 539 1081 b 422 1261 539 1208 486 1261 b 306 1144 358 1261 306 1208 b 422 1028 306 1081 358 1028 z m 135 0 l 382 0 l 382 972 l 135 972 z "},"Ī":{"ha":517,"x_min":0,"x_max":0,"o":"m -6 1063 l 522 1063 l 522 1222 l -6 1222 z m 135 0 l 382 0 l 382 972 l 135 972 z "},"Ĭ":{"ha":517,"x_min":0,"x_max":0,"o":"m 258 1186 b 158 1243 188 1186 163 1211 l -19 1243 b 258 1042 -21 1114 86 1042 b 536 1243 431 1042 536 1114 l 358 1243 b 258 1186 354 1211 328 1186 z m 135 0 l 382 0 l 382 972 l 135 972 z "},"Ĩ":{"ha":517,"x_min":0,"x_max":0,"o":"m -17 1056 l 140 1056 l 140 1083 b 156 1106 140 1103 147 1106 b 368 1042 186 1106 276 1042 b 533 1207 458 1042 533 1093 l 533 1243 l 376 1243 l 376 1215 b 361 1193 376 1197 369 1193 b 150 1257 333 1193 238 1257 b -17 1092 58 1257 -17 1203 z m 135 0 l 382 0 l 382 972 l 135 972 z "},"İ":{"ha":517,"x_min":0,"x_max":0,"o":"m 258 1028 b 374 1144 321 1028 374 1081 b 258 1261 374 1208 321 1261 b 140 1144 193 1261 140 1208 b 258 1028 140 1081 193 1028 z m 135 0 l 382 0 l 382 972 l 135 972 z "},"Ị":{"ha":517,"x_min":0,"x_max":0,"o":"m 135 0 l 382 0 l 382 972 l 135 972 z m 258 -356 b 397 -215 333 -356 397 -290 b 258 -76 397 -140 333 -76 b 118 -215 182 -76 118 -140 b 258 -356 118 -290 182 -356 z "},"Į":{"ha":517,"x_min":0,"x_max":0,"o":"m 135 0 l 139 0 l 110 -15 b 8 -172 33 -54 8 -114 b 228 -342 8 -253 82 -342 b 357 -321 286 -342 324 -335 l 357 -179 b 264 -196 339 -187 308 -196 b 183 -139 208 -196 183 -176 b 263 -56 183 -111 206 -87 l 357 0 l 382 0 l 382 972 l 135 972 z "},"Ỉ":{"ha":517,"x_min":0,"x_max":0,"o":"m 236 1013 b 457 1189 372 1033 457 1090 b 276 1342 457 1283 381 1342 b 79 1274 196 1342 129 1315 l 165 1165 b 264 1204 190 1186 225 1204 b 300 1182 290 1204 300 1194 b 206 1143 300 1161 269 1153 z m 135 0 l 382 0 l 382 972 l 135 972 z "},"J":{"ha":531,"x_min":0,"x_max":0,"o":"m 396 90 l 396 972 l 149 972 l 149 76 b 33 -35 149 4 117 -35 b -14 -31 14 -35 -1 -33 l -14 -249 b 72 -253 7 -253 36 -253 b 396 90 297 -253 396 -131 z "},"Ĵ":{"ha":531,"x_min":0,"x_max":0,"o":"m 183 1056 l 272 1146 l 360 1056 l 550 1056 l 394 1243 l 150 1243 l -7 1056 z m 396 90 l 396 972 l 149 972 l 149 76 b 33 -35 149 4 117 -35 b -14 -31 14 -35 -1 -33 l -14 -249 b 72 -253 7 -253 36 -253 b 396 90 297 -253 396 -131 z "},"Ĳ":{"ha":1047,"x_min":0,"x_max":0,"o":"m 135 0 l 382 0 l 382 972 l 135 972 z m 913 90 l 913 972 l 665 972 l 665 76 b 550 -35 665 4 633 -35 b 503 -31 531 -35 515 -33 l 503 -249 b 589 -253 524 -253 553 -253 b 913 90 814 -253 913 -131 z "},"K":{"ha":1068,"x_min":0,"x_max":0,"o":"m 135 0 l 382 0 l 382 288 l 472 381 l 736 0 l 1036 0 l 642 556 l 1046 972 l 739 972 l 382 600 l 382 972 l 135 972 z "},"Ḳ":{"ha":1068,"x_min":0,"x_max":0,"o":"m 135 0 l 382 0 l 382 288 l 472 381 l 736 0 l 1036 0 l 642 556 l 1046 972 l 739 972 l 382 600 l 382 972 l 135 972 z m 564 -356 b 703 -215 639 -356 703 -290 b 564 -76 703 -140 639 -76 b 424 -215 488 -76 424 -140 b 564 -356 424 -290 488 -356 z "},"Ḵ":{"ha":1068,"x_min":0,"x_max":0,"o":"m 135 0 l 382 0 l 382 288 l 472 381 l 736 0 l 1036 0 l 642 556 l 1046 972 l 739 972 l 382 600 l 382 972 l 135 972 z m 300 -318 l 828 -318 l 828 -157 l 300 -157 z "},"Ķ":{"ha":1068,"x_min":0,"x_max":0,"o":"m 135 0 l 382 0 l 382 288 l 472 381 l 736 0 l 1036 0 l 642 556 l 1046 972 l 739 972 l 382 600 l 382 972 l 135 972 z m 525 -342 l 694 -111 l 458 -111 l 315 -342 z "},"L":{"ha":775,"x_min":0,"x_max":0,"o":"m 135 0 l 735 0 l 735 224 l 382 224 l 382 972 l 135 972 z "},"Ĺ":{"ha":775,"x_min":0,"x_max":0,"o":"m 372 1056 l 554 1243 l 304 1243 l 147 1056 z m 135 0 l 735 0 l 735 224 l 382 224 l 382 972 l 135 972 z "},"Ľ":{"ha":775,"x_min":0,"x_max":0,"o":"m 135 0 l 735 0 l 735 224 l 382 224 l 382 972 l 135 972 z m 615 714 l 772 972 l 550 972 l 436 714 z "},"Ļ":{"ha":775,"x_min":0,"x_max":0,"o":"m 135 0 l 735 0 l 735 224 l 382 224 l 382 972 l 135 972 z m 388 -342 l 557 -111 l 321 -111 l 178 -342 z "},"Ł":{"ha":775,"x_min":0,"x_max":0,"o":"m 135 0 l 735 0 l 735 224 l 382 224 l 382 460 l 518 533 l 518 710 l 382 636 l 382 972 l 135 972 l 135 503 l 0 429 l 0 253 l 135 326 z "},"Ŀ":{"ha":775,"x_min":0,"x_max":0,"o":"m 135 0 l 735 0 l 735 224 l 382 224 l 382 972 l 135 972 z m 643 372 b 789 518 721 372 789 439 b 643 663 789 596 721 663 b 496 518 563 663 496 596 b 643 372 496 439 563 372 z "},"M":{"ha":1264,"x_min":0,"x_max":0,"o":"m 135 0 l 382 0 l 382 625 l 549 333 l 717 333 l 883 625 l 883 0 l 1131 0 l 1131 972 l 825 972 l 632 625 l 440 972 l 135 972 z "},"Ṃ":{"ha":1264,"x_min":0,"x_max":0,"o":"m 135 0 l 382 0 l 382 625 l 549 333 l 717 333 l 883 625 l 883 0 l 1131 0 l 1131 972 l 825 972 l 632 625 l 440 972 l 135 972 z m 632 -356 b 771 -215 707 -356 771 -290 b 632 -76 771 -140 707 -76 b 492 -215 556 -76 492 -140 b 632 -356 492 -290 556 -356 z "},"N":{"ha":1179,"x_min":0,"x_max":0,"o":"m 135 0 l 382 0 l 382 607 l 731 0 l 1044 0 l 1044 972 l 797 972 l 797 365 l 449 972 l 135 972 z "},"Ń":{"ha":1179,"x_min":0,"x_max":0,"o":"m 700 1056 l 882 1243 l 632 1243 l 475 1056 z m 135 0 l 382 0 l 382 607 l 731 0 l 1044 0 l 1044 972 l 797 972 l 797 365 l 449 972 l 135 972 z "},"Ň":{"ha":1179,"x_min":0,"x_max":0,"o":"m 500 1243 l 310 1243 l 467 1056 l 711 1056 l 867 1243 l 676 1243 l 589 1153 z m 135 0 l 382 0 l 382 607 l 731 0 l 1044 0 l 1044 972 l 797 972 l 797 365 l 449 972 l 135 972 z "},"Ñ":{"ha":1179,"x_min":0,"x_max":0,"o":"m 314 1056 l 471 1056 l 471 1083 b 486 1106 471 1103 478 1106 b 699 1042 517 1106 607 1042 b 864 1207 789 1042 864 1093 l 864 1243 l 707 1243 l 707 1215 b 692 1193 707 1197 700 1193 b 481 1257 664 1193 568 1257 b 314 1092 389 1257 314 1203 z m 135 0 l 382 0 l 382 607 l 731 0 l 1044 0 l 1044 972 l 797 972 l 797 365 l 449 972 l 135 972 z "},"Ṇ":{"ha":1179,"x_min":0,"x_max":0,"o":"m 135 0 l 382 0 l 382 607 l 731 0 l 1044 0 l 1044 972 l 797 972 l 797 365 l 449 972 l 135 972 z m 589 -356 b 728 -215 664 -356 728 -290 b 589 -76 728 -140 664 -76 b 449 -215 513 -76 449 -140 b 589 -356 449 -290 513 -356 z "},"Ņ":{"ha":1179,"x_min":0,"x_max":0,"o":"m 135 0 l 382 0 l 382 607 l 731 0 l 1044 0 l 1044 972 l 797 972 l 797 365 l 449 972 l 135 972 z m 550 -342 l 719 -111 l 483 -111 l 340 -342 z "},"Ɲ":{"ha":1179,"x_min":0,"x_max":0,"o":"m 382 90 l 382 607 l 731 0 l 1044 0 l 1044 972 l 797 972 l 797 365 l 449 972 l 135 972 l 135 76 b 19 -35 135 4 103 -35 b -28 -31 0 -35 -15 -33 l -28 -249 b 58 -253 -7 -253 22 -253 b 382 90 283 -253 382 -131 z "},"Ŋ":{"ha":1179,"x_min":0,"x_max":0,"o":"m 135 0 l 382 0 l 382 657 l 799 50 b 685 -35 790 -6 757 -35 b 638 -31 665 -35 650 -33 l 638 -249 b 724 -253 658 -253 688 -253 b 1047 90 949 -253 1047 -131 l 1047 972 l 800 972 l 800 478 l 464 972 l 135 972 z "},"O":{"ha":1143,"x_min":0,"x_max":0,"o":"m 572 1000 b 51 486 263 1000 51 764 b 572 -28 51 208 263 -28 b 1092 486 881 -28 1092 208 b 572 1000 1092 764 881 1000 z m 572 204 b 306 486 417 204 306 322 b 572 768 306 649 417 768 b 838 486 726 768 838 650 b 572 204 838 324 726 204 z "},"Ò":{"ha":1143,"x_min":0,"x_max":0,"o":"m 465 1056 l 690 1056 l 533 1243 l 283 1243 z m 572 1000 b 51 486 263 1000 51 764 b 572 -28 51 208 263 -28 b 1092 486 881 -28 1092 208 b 572 1000 1092 764 881 1000 z m 572 204 b 306 486 417 204 306 322 b 572 768 306 649 417 768 b 838 486 726 768 838 650 b 572 204 838 324 726 204 z "},"Ó":{"ha":1143,"x_min":0,"x_max":0,"o":"m 683 1056 l 865 1243 l 615 1243 l 458 1056 z m 572 1000 b 51 486 263 1000 51 764 b 572 -28 51 208 263 -28 b 1092 486 881 -28 1092 208 b 572 1000 1092 764 881 1000 z m 572 204 b 306 486 417 204 306 322 b 572 768 306 649 417 768 b 838 486 726 768 838 650 b 572 204 838 324 726 204 z "},"Ő":{"ha":1143,"x_min":0,"x_max":0,"o":"m 517 1056 l 700 1243 l 449 1243 l 292 1056 z m 847 1056 l 1029 1243 l 779 1243 l 622 1056 z m 572 1000 b 51 486 263 1000 51 764 b 572 -28 51 208 263 -28 b 1092 486 881 -28 1092 208 b 572 1000 1092 764 881 1000 z m 572 204 b 306 486 417 204 306 322 b 572 768 306 649 417 768 b 838 486 726 768 838 650 b 572 204 838 324 726 204 z "},"Ô":{"ha":1143,"x_min":0,"x_max":0,"o":"m 483 1056 l 572 1146 l 660 1056 l 850 1056 l 694 1243 l 450 1243 l 293 1056 z m 572 1000 b 51 486 263 1000 51 764 b 572 -28 51 208 263 -28 b 1092 486 881 -28 1092 208 b 572 1000 1092 764 881 1000 z m 572 204 b 306 486 417 204 306 322 b 572 768 306 649 417 768 b 838 486 726 768 838 650 b 572 204 838 324 726 204 z "},"Ǒ":{"ha":1143,"x_min":0,"x_max":0,"o":"m 483 1243 l 293 1243 l 450 1056 l 694 1056 l 850 1243 l 660 1243 l 572 1153 z m 572 1000 b 51 486 263 1000 51 764 b 572 -28 51 208 263 -28 b 1092 486 881 -28 1092 208 b 572 1000 1092 764 881 1000 z m 572 204 b 306 486 417 204 306 322 b 572 768 306 649 417 768 b 838 486 726 768 838 650 b 572 204 838 324 726 204 z "},"Ŏ":{"ha":1143,"x_min":0,"x_max":0,"o":"m 572 1186 b 472 1243 501 1186 476 1211 l 294 1243 b 572 1042 293 1114 400 1042 b 850 1243 744 1042 850 1114 l 672 1243 b 572 1186 668 1211 642 1186 z m 572 1000 b 51 486 263 1000 51 764 b 572 -28 51 208 263 -28 b 1092 486 881 -28 1092 208 b 572 1000 1092 764 881 1000 z m 572 204 b 306 486 417 204 306 322 b 572 768 306 649 417 768 b 838 486 726 768 838 650 b 572 204 838 324 726 204 z "},"Õ":{"ha":1143,"x_min":0,"x_max":0,"o":"m 297 1056 l 454 1056 l 454 1083 b 469 1106 454 1103 461 1106 b 682 1042 500 1106 590 1042 b 847 1207 772 1042 847 1093 l 847 1243 l 690 1243 l 690 1215 b 675 1193 690 1197 683 1193 b 464 1257 647 1193 551 1257 b 297 1092 372 1257 297 1203 z m 572 1000 b 51 486 263 1000 51 764 b 572 -28 51 208 263 -28 b 1092 486 881 -28 1092 208 b 572 1000 1092 764 881 1000 z m 572 204 b 306 486 417 204 306 322 b 572 768 306 649 417 768 b 838 486 726 768 838 650 b 572 204 838 324 726 204 z "},"Ō":{"ha":1143,"x_min":0,"x_max":0,"o":"m 308 1063 l 836 1063 l 836 1222 l 308 1222 z m 572 1000 b 51 486 263 1000 51 764 b 572 -28 51 208 263 -28 b 1092 486 881 -28 1092 208 b 572 1000 1092 764 881 1000 z m 572 204 b 306 486 417 204 306 322 b 572 768 306 649 417 768 b 838 486 726 768 838 650 b 572 204 838 324 726 204 z "},"Ö":{"ha":1143,"x_min":0,"x_max":0,"o":"m 410 1028 b 525 1144 471 1028 525 1081 b 410 1261 525 1207 471 1261 b 292 1144 344 1261 292 1207 b 410 1028 292 1081 344 1028 z m 736 1028 b 853 1144 800 1028 853 1081 b 736 1261 853 1208 800 1261 b 619 1144 672 1261 619 1208 b 736 1028 619 1081 672 1028 z m 572 1000 b 51 486 263 1000 51 764 b 572 -28 51 208 263 -28 b 1092 486 881 -28 1092 208 b 572 1000 1092 764 881 1000 z m 572 204 b 306 486 417 204 306 322 b 572 768 306 649 417 768 b 838 486 726 768 838 650 b 572 204 838 324 726 204 z "},"Ọ":{"ha":1143,"x_min":0,"x_max":0,"o":"m 572 1000 b 51 486 263 1000 51 764 b 572 -28 51 208 263 -28 b 1092 486 881 -28 1092 208 b 572 1000 1092 764 881 1000 z m 572 204 b 306 486 417 204 306 322 b 572 768 306 649 417 768 b 838 486 726 768 838 650 b 572 204 838 324 726 204 z m 572 -356 b 711 -215 647 -356 711 -290 b 572 -76 711 -140 647 -76 b 432 -215 496 -76 432 -140 b 572 -356 432 -290 496 -356 z "},"Ơ":{"ha":1143,"x_min":0,"x_max":0,"o":"m 572 1000 b 51 486 263 1000 51 764 b 572 -28 51 208 263 -28 b 1092 486 881 -28 1092 208 b 932 863 1092 633 1033 768 b 1067 1042 1007 889 1067 946 b 975 1222 1067 1111 1031 1181 l 856 1118 b 903 1042 886 1097 903 1074 b 817 972 903 997 875 972 l 747 972 b 572 1000 694 990 635 1000 z m 572 204 b 306 486 417 204 306 322 b 572 768 306 649 417 768 b 838 486 726 768 838 650 b 572 204 838 324 726 204 z "},"Ỏ":{"ha":1143,"x_min":0,"x_max":0,"o":"m 550 1013 b 771 1189 686 1033 771 1090 b 590 1342 771 1283 694 1342 b 393 1274 510 1342 443 1315 l 479 1165 b 578 1204 504 1186 539 1204 b 614 1182 604 1204 614 1194 b 519 1143 614 1161 583 1153 z m 572 1000 b 51 486 263 1000 51 764 b 572 -28 51 208 263 -28 b 1092 486 881 -28 1092 208 b 572 1000 1092 764 881 1000 z m 572 204 b 306 486 417 204 306 322 b 572 768 306 649 417 768 b 838 486 726 768 838 650 b 572 204 838 324 726 204 z "},"Ố":{"ha":1143,"x_min":0,"x_max":0,"o":"m 483 1056 l 572 1146 l 660 1056 l 850 1056 l 732 1197 l 915 1197 l 1097 1385 l 861 1385 l 718 1214 l 694 1243 l 450 1243 l 293 1056 z m 572 1000 b 51 486 263 1000 51 764 b 572 -28 51 208 263 -28 b 1092 486 881 -28 1092 208 b 572 1000 1092 764 881 1000 z m 572 204 b 306 486 417 204 306 322 b 572 768 306 649 417 768 b 838 486 726 768 838 650 b 572 204 838 324 726 204 z "},"Ồ":{"ha":1143,"x_min":0,"x_max":0,"o":"m 785 1197 l 996 1197 l 839 1385 l 603 1385 z m 483 1056 l 572 1146 l 660 1056 l 850 1056 l 694 1243 l 450 1243 l 293 1056 z m 572 1000 b 51 486 263 1000 51 764 b 572 -28 51 208 263 -28 b 1092 486 881 -28 1092 208 b 572 1000 1092 764 881 1000 z m 572 204 b 306 486 417 204 306 322 b 572 768 306 649 417 768 b 838 486 726 768 838 650 b 572 204 838 324 726 204 z "},"Ổ":{"ha":1143,"x_min":0,"x_max":0,"o":"m 822 1153 b 1008 1300 938 1172 1008 1218 b 849 1428 1008 1379 949 1428 b 679 1371 785 1428 719 1404 l 751 1281 b 843 1313 771 1296 808 1313 b 878 1294 871 1313 878 1304 b 796 1263 878 1276 842 1269 z m 483 1056 l 572 1146 l 660 1056 l 850 1056 l 694 1243 l 450 1243 l 293 1056 z m 572 1000 b 51 486 263 1000 51 764 b 572 -28 51 208 263 -28 b 1092 486 881 -28 1092 208 b 572 1000 1092 764 881 1000 z m 572 204 b 306 486 417 204 306 322 b 572 768 306 649 417 768 b 838 486 726 768 838 650 b 572 204 838 324 726 204 z "},"Ỗ":{"ha":1143,"x_min":0,"x_max":0,"o":"m 297 1285 l 454 1285 l 454 1313 b 469 1335 454 1332 461 1335 b 682 1271 500 1335 590 1271 b 847 1436 772 1271 847 1322 l 847 1472 l 690 1472 l 690 1444 b 675 1422 690 1426 683 1422 b 464 1486 647 1422 551 1486 b 297 1321 372 1486 297 1432 z m 483 1056 l 572 1146 l 660 1056 l 850 1056 l 694 1243 l 450 1243 l 293 1056 z m 572 1000 b 51 486 263 1000 51 764 b 572 -28 51 208 263 -28 b 1092 486 881 -28 1092 208 b 572 1000 1092 764 881 1000 z m 572 204 b 306 486 417 204 306 322 b 572 768 306 649 417 768 b 838 486 726 768 838 650 b 572 204 838 324 726 204 z "},"Ộ":{"ha":1143,"x_min":0,"x_max":0,"o":"m 483 1056 l 572 1146 l 660 1056 l 850 1056 l 694 1243 l 450 1243 l 293 1056 z m 572 1000 b 51 486 263 1000 51 764 b 572 -28 51 208 263 -28 b 1092 486 881 -28 1092 208 b 572 1000 1092 764 881 1000 z m 572 204 b 306 486 417 204 306 322 b 572 768 306 649 417 768 b 838 486 726 768 838 650 b 572 204 838 324 726 204 z m 572 -356 b 711 -215 647 -356 711 -290 b 572 -76 711 -140 647 -76 b 432 -215 496 -76 432 -140 b 572 -356 432 -290 496 -356 z "},"Ớ":{"ha":1143,"x_min":0,"x_max":0,"o":"m 683 1056 l 865 1243 l 615 1243 l 458 1056 z m 572 1000 b 51 486 263 1000 51 764 b 572 -28 51 208 263 -28 b 1092 486 881 -28 1092 208 b 932 863 1092 633 1033 768 b 1067 1042 1007 889 1067 946 b 975 1222 1067 1111 1031 1181 l 856 1118 b 903 1042 886 1097 903 1074 b 817 972 903 997 875 972 l 747 972 b 572 1000 694 990 635 1000 z m 572 204 b 306 486 417 204 306 322 b 572 768 306 649 417 768 b 838 486 726 768 838 650 b 572 204 838 324 726 204 z "},"Ờ":{"ha":1143,"x_min":0,"x_max":0,"o":"m 465 1056 l 690 1056 l 533 1243 l 283 1243 z m 572 1000 b 51 486 263 1000 51 764 b 572 -28 51 208 263 -28 b 1092 486 881 -28 1092 208 b 932 863 1092 633 1033 768 b 1067 1042 1007 889 1067 946 b 975 1222 1067 1111 1031 1181 l 856 1118 b 903 1042 886 1097 903 1074 b 817 972 903 997 875 972 l 747 972 b 572 1000 694 990 635 1000 z m 572 204 b 306 486 417 204 306 322 b 572 768 306 649 417 768 b 838 486 726 768 838 650 b 572 204 838 324 726 204 z "},"Ở":{"ha":1143,"x_min":0,"x_max":0,"o":"m 550 1013 b 771 1189 686 1033 771 1090 b 590 1342 771 1283 694 1342 b 393 1274 510 1342 443 1315 l 479 1165 b 578 1204 504 1186 539 1204 b 614 1182 604 1204 614 1194 b 519 1143 614 1161 583 1153 z m 572 1000 b 51 486 263 1000 51 764 b 572 -28 51 208 263 -28 b 1092 486 881 -28 1092 208 b 932 863 1092 633 1033 768 b 1067 1042 1007 889 1067 946 b 975 1222 1067 1111 1031 1181 l 856 1118 b 903 1042 886 1097 903 1074 b 817 972 903 997 875 972 l 747 972 b 572 1000 694 990 635 1000 z m 572 204 b 306 486 417 204 306 322 b 572 768 306 649 417 768 b 838 486 726 768 838 650 b 572 204 838 324 726 204 z "},"Ỡ":{"ha":1143,"x_min":0,"x_max":0,"o":"m 297 1056 l 454 1056 l 454 1083 b 469 1106 454 1103 461 1106 b 682 1042 500 1106 590 1042 b 847 1207 772 1042 847 1093 l 847 1243 l 690 1243 l 690 1215 b 675 1193 690 1197 683 1193 b 464 1257 647 1193 551 1257 b 297 1092 372 1257 297 1203 z m 572 1000 b 51 486 263 1000 51 764 b 572 -28 51 208 263 -28 b 1092 486 881 -28 1092 208 b 932 863 1092 633 1033 768 b 1067 1042 1007 889 1067 946 b 975 1222 1067 1111 1031 1181 l 856 1118 b 903 1042 886 1097 903 1074 b 817 972 903 997 875 972 l 747 972 b 572 1000 694 990 635 1000 z m 572 204 b 306 486 417 204 306 322 b 572 768 306 649 417 768 b 838 486 726 768 838 650 b 572 204 838 324 726 204 z "},"Ợ":{"ha":1143,"x_min":0,"x_max":0,"o":"m 572 1000 b 51 486 263 1000 51 764 b 572 -28 51 208 263 -28 b 1092 486 881 -28 1092 208 b 932 863 1092 633 1033 768 b 1067 1042 1007 889 1067 946 b 975 1222 1067 1111 1031 1181 l 856 1118 b 903 1042 886 1097 903 1074 b 817 972 903 997 875 972 l 747 972 b 572 1000 694 990 635 1000 z m 572 204 b 306 486 417 204 306 322 b 572 768 306 649 417 768 b 838 486 726 768 838 650 b 572 204 838 324 726 204 z m 572 -356 b 711 -215 647 -356 711 -290 b 572 -76 711 -140 647 -76 b 432 -215 496 -76 432 -140 b 572 -356 432 -290 496 -356 z "},"Ø":{"ha":1143,"x_min":0,"x_max":0,"o":"m 275 -28 l 321 32 b 572 -28 393 -6 478 -28 b 1092 486 881 -28 1092 208 b 963 831 1092 617 1044 739 l 1092 1000 l 868 1000 l 822 940 b 572 1000 750 978 665 1000 b 51 486 263 1000 51 764 b 181 142 51 356 99 233 l 51 -28 z m 306 486 b 572 768 306 649 417 768 b 661 754 604 768 635 763 l 344 333 b 306 486 319 376 306 428 z m 572 204 b 482 219 540 204 510 210 l 799 639 b 838 486 824 596 838 544 b 572 204 838 324 726 204 z "},"Ǿ":{"ha":1143,"x_min":0,"x_max":0,"o":"m 683 1056 l 865 1243 l 615 1243 l 458 1056 z m 275 -28 l 321 32 b 572 -28 393 -6 478 -28 b 1092 486 881 -28 1092 208 b 963 831 1092 617 1044 739 l 1092 1000 l 868 1000 l 822 940 b 572 1000 750 978 665 1000 b 51 486 263 1000 51 764 b 181 142 51 356 99 233 l 51 -28 z m 306 486 b 572 768 306 649 417 768 b 661 754 604 768 635 763 l 344 333 b 306 486 319 376 306 428 z m 572 204 b 482 219 540 204 510 210 l 799 639 b 838 486 824 596 838 544 b 572 204 838 324 726 204 z "},"Œ":{"ha":1408,"x_min":0,"x_max":0,"o":"m 572 972 b 51 486 263 972 51 749 b 572 0 51 224 263 0 l 1314 0 l 1314 204 l 961 204 l 961 393 l 1258 393 l 1258 597 l 961 597 l 961 768 l 1314 768 l 1314 972 z m 569 210 b 306 486 417 210 306 326 b 569 763 306 644 417 763 l 714 763 l 714 210 z "},"P":{"ha":874,"x_min":0,"x_max":0,"o":"m 135 0 l 382 0 l 382 368 l 482 368 b 850 669 710 368 850 481 b 482 972 850 860 710 972 l 135 972 z m 496 768 b 594 672 558 768 594 728 b 496 572 594 613 558 572 l 382 572 l 382 768 z "},"Q":{"ha":1143,"x_min":0,"x_max":0,"o":"m 960 54 l 917 96 b 1092 486 1026 192 1092 332 b 572 1000 1092 764 881 1000 b 51 486 263 1000 51 764 b 572 -28 51 208 263 -28 b 679 -18 610 -28 646 -25 l 789 -117 b 1108 -253 885 -203 989 -253 b 1224 -231 1157 -253 1186 -246 l 1224 -25 b 1153 -36 1201 -33 1172 -36 b 960 54 1090 -36 1029 -12 z m 572 204 b 306 486 417 204 306 322 b 572 768 306 649 417 768 b 838 486 726 768 838 650 b 572 204 838 324 726 204 z "},"R":{"ha":958,"x_min":0,"x_max":0,"o":"m 135 0 l 382 0 l 382 368 l 440 368 l 685 0 l 974 0 l 676 413 b 829 669 774 463 829 551 b 461 972 829 860 689 972 l 135 972 z m 476 768 b 575 672 539 768 575 728 b 476 572 575 613 539 572 l 382 572 l 382 768 z "},"Ŕ":{"ha":958,"x_min":0,"x_max":0,"o":"m 594 1056 l 776 1243 l 526 1243 l 369 1056 z m 135 0 l 382 0 l 382 368 l 440 368 l 685 0 l 974 0 l 676 413 b 829 669 774 463 829 551 b 461 972 829 860 689 972 l 135 972 z m 476 768 b 575 672 539 768 575 728 b 476 572 575 613 539 572 l 382 572 l 382 768 z "},"Ř":{"ha":958,"x_min":0,"x_max":0,"o":"m 394 1243 l 204 1243 l 361 1056 l 606 1056 l 761 1243 l 571 1243 l 483 1153 z m 135 0 l 382 0 l 382 368 l 440 368 l 685 0 l 974 0 l 676 413 b 829 669 774 463 829 551 b 461 972 829 860 689 972 l 135 972 z m 476 768 b 575 672 539 768 575 728 b 476 572 575 613 539 572 l 382 572 l 382 768 z "},"Ṛ":{"ha":958,"x_min":0,"x_max":0,"o":"m 135 0 l 382 0 l 382 368 l 440 368 l 685 0 l 974 0 l 676 413 b 829 669 774 463 829 551 b 461 972 829 860 689 972 l 135 972 z m 476 768 b 575 672 539 768 575 728 b 476 572 575 613 539 572 l 382 572 l 382 768 z m 525 -356 b 664 -215 600 -356 664 -290 b 525 -76 664 -140 600 -76 b 385 -215 449 -76 385 -140 b 525 -356 385 -290 449 -356 z "},"Ŗ":{"ha":958,"x_min":0,"x_max":0,"o":"m 135 0 l 382 0 l 382 368 l 440 368 l 685 0 l 974 0 l 676 413 b 829 669 774 463 829 551 b 461 972 829 860 689 972 l 135 972 z m 476 768 b 575 672 539 768 575 728 b 476 572 575 613 539 572 l 382 572 l 382 768 z m 486 -342 l 656 -111 l 419 -111 l 276 -342 z "},"S":{"ha":817,"x_min":0,"x_max":0,"o":"m 36 136 b 417 -28 125 35 238 -28 b 756 278 600 -28 753 83 b 328 714 756 618 328 569 b 413 785 328 754 363 785 b 596 669 478 785 539 736 l 775 833 b 411 1000 685 933 565 1000 b 78 703 214 1000 78 865 b 506 269 78 369 506 418 b 414 189 506 214 471 189 b 215 301 343 189 267 233 z "},"Ś":{"ha":817,"x_min":0,"x_max":0,"o":"m 517 1056 l 699 1243 l 449 1243 l 292 1056 z m 36 136 b 417 -28 125 35 238 -28 b 756 278 600 -28 753 83 b 328 714 756 618 328 569 b 413 785 328 754 363 785 b 596 669 478 785 539 736 l 775 833 b 411 1000 685 933 565 1000 b 78 703 214 1000 78 865 b 506 269 78 369 506 418 b 414 189 506 214 471 189 b 215 301 343 189 267 233 z "},"Ŝ":{"ha":817,"x_min":0,"x_max":0,"o":"m 317 1056 l 406 1146 l 493 1056 l 683 1056 l 528 1243 l 283 1243 l 126 1056 z m 36 136 b 417 -28 125 35 238 -28 b 756 278 600 -28 753 83 b 328 714 756 618 328 569 b 413 785 328 754 363 785 b 596 669 478 785 539 736 l 775 833 b 411 1000 685 933 565 1000 b 78 703 214 1000 78 865 b 506 269 78 369 506 418 b 414 189 506 214 471 189 b 215 301 343 189 267 233 z "},"Š":{"ha":817,"x_min":0,"x_max":0,"o":"m 317 1243 l 126 1243 l 283 1056 l 528 1056 l 683 1243 l 493 1243 l 406 1153 z m 36 136 b 417 -28 125 35 238 -28 b 756 278 600 -28 753 83 b 328 714 756 618 328 569 b 413 785 328 754 363 785 b 596 669 478 785 539 736 l 775 833 b 411 1000 685 933 565 1000 b 78 703 214 1000 78 865 b 506 269 78 369 506 418 b 414 189 506 214 471 189 b 215 301 343 189 267 233 z "},"Ṣ":{"ha":817,"x_min":0,"x_max":0,"o":"m 36 136 b 417 -28 125 35 238 -28 b 756 278 600 -28 753 83 b 328 714 756 618 328 569 b 413 785 328 754 363 785 b 596 669 478 785 539 736 l 775 833 b 411 1000 685 933 565 1000 b 78 703 214 1000 78 865 b 506 269 78 369 506 418 b 414 189 506 214 471 189 b 215 301 343 189 267 233 z m 419 -356 b 558 -215 494 -356 558 -290 b 419 -76 558 -140 494 -76 b 279 -215 343 -76 279 -140 b 419 -356 279 -290 343 -356 z "},"Ş":{"ha":817,"x_min":0,"x_max":0,"o":"m 36 136 b 325 -22 108 53 197 -4 l 264 -96 l 324 -174 b 382 -160 343 -164 361 -160 b 425 -193 404 -160 425 -171 b 382 -231 425 -218 404 -231 b 308 -199 358 -231 326 -217 l 235 -303 b 394 -349 268 -331 328 -349 b 583 -190 501 -349 583 -282 b 453 -64 583 -124 524 -72 l 493 -21 b 756 278 640 6 753 111 b 328 714 756 618 328 569 b 413 785 328 754 363 785 b 596 669 478 785 539 736 l 775 833 b 411 1000 685 933 565 1000 b 78 703 214 1000 78 865 b 506 269 78 369 506 418 b 414 189 506 214 471 189 b 215 301 343 189 267 233 z "},"Ș":{"ha":817,"x_min":0,"x_max":0,"o":"m 36 136 b 417 -28 125 35 238 -28 b 756 278 600 -28 753 83 b 328 714 756 618 328 569 b 413 785 328 754 363 785 b 596 669 478 785 539 736 l 775 833 b 411 1000 685 933 565 1000 b 78 703 214 1000 78 865 b 506 269 78 369 506 418 b 414 189 506 214 471 189 b 215 301 343 189 267 233 z m 381 -342 l 550 -111 l 314 -111 l 171 -342 z "},"ẞ":{"ha":1163,"x_min":0,"x_max":0,"o":"m 135 0 l 382 0 l 382 749 l 719 749 l 542 569 l 542 367 l 728 367 b 847 276 792 367 847 340 b 758 189 847 229 811 189 b 592 278 696 189 643 215 l 428 104 b 767 -28 510 17 628 -28 b 1097 276 928 -28 1094 82 b 840 564 1094 446 993 540 l 1022 749 l 1022 972 l 135 972 z "},"T":{"ha":893,"x_min":0,"x_max":0,"o":"m 39 749 l 322 749 l 322 0 l 569 0 l 569 749 l 853 749 l 853 972 l 39 972 z "},"Ť":{"ha":893,"x_min":0,"x_max":0,"o":"m 358 1243 l 168 1243 l 325 1056 l 569 1056 l 725 1243 l 535 1243 l 447 1153 z m 39 749 l 322 749 l 322 0 l 569 0 l 569 749 l 853 749 l 853 972 l 39 972 z "},"Ṭ":{"ha":893,"x_min":0,"x_max":0,"o":"m 39 749 l 322 749 l 322 0 l 569 0 l 569 749 l 853 749 l 853 972 l 39 972 z m 447 -356 b 586 -215 522 -356 586 -290 b 447 -76 586 -140 522 -76 b 307 -215 371 -76 307 -140 b 447 -356 307 -290 371 -356 z "},"Ṯ":{"ha":893,"x_min":0,"x_max":0,"o":"m 39 749 l 322 749 l 322 0 l 569 0 l 569 749 l 853 749 l 853 972 l 39 972 z m 183 -318 l 711 -318 l 711 -157 l 183 -157 z "},"Ţ":{"ha":893,"x_min":0,"x_max":0,"o":"m 39 749 l 322 749 l 322 0 l 365 0 l 286 -96 l 346 -174 b 404 -160 365 -164 383 -160 b 447 -193 426 -160 447 -171 b 404 -231 447 -218 426 -231 b 331 -199 381 -231 349 -217 l 257 -303 b 417 -349 290 -331 350 -349 b 606 -190 524 -349 606 -282 b 475 -64 606 -124 546 -72 l 535 0 l 569 0 l 569 749 l 853 749 l 853 972 l 39 972 z "},"Ț":{"ha":893,"x_min":0,"x_max":0,"o":"m 39 749 l 322 749 l 322 0 l 569 0 l 569 749 l 853 749 l 853 972 l 39 972 z m 408 -342 l 578 -111 l 342 -111 l 199 -342 z "},"Ŧ":{"ha":893,"x_min":0,"x_max":0,"o":"m 153 360 l 322 360 l 322 0 l 569 0 l 569 360 l 740 360 l 740 521 l 569 521 l 569 749 l 853 749 l 853 972 l 39 972 l 39 749 l 322 749 l 322 521 l 153 521 z "},"Þ":{"ha":874,"x_min":0,"x_max":0,"o":"m 135 0 l 382 0 l 382 197 l 482 197 b 850 499 710 197 850 310 b 482 801 850 689 710 801 l 382 801 l 382 972 l 135 972 z m 496 597 b 594 500 558 597 594 561 b 496 401 594 438 558 401 l 382 401 l 382 597 z "},"U":{"ha":1026,"x_min":0,"x_max":0,"o":"m 672 367 b 514 204 672 267 615 204 b 354 367 411 204 354 267 l 354 972 l 107 972 l 107 390 b 513 -28 107 132 257 -28 b 919 390 769 -28 919 132 l 919 972 l 672 972 z "},"Ù":{"ha":1026,"x_min":0,"x_max":0,"o":"m 407 1056 l 632 1056 l 475 1243 l 225 1243 z m 672 367 b 514 204 672 267 615 204 b 354 367 411 204 354 267 l 354 972 l 107 972 l 107 390 b 513 -28 107 132 257 -28 b 919 390 769 -28 919 132 l 919 972 l 672 972 z "},"Ú":{"ha":1026,"x_min":0,"x_max":0,"o":"m 625 1056 l 807 1243 l 557 1243 l 400 1056 z m 672 367 b 514 204 672 267 615 204 b 354 367 411 204 354 267 l 354 972 l 107 972 l 107 390 b 513 -28 107 132 257 -28 b 919 390 769 -28 919 132 l 919 972 l 672 972 z "},"Ű":{"ha":1026,"x_min":0,"x_max":0,"o":"m 458 1056 l 642 1243 l 390 1243 l 233 1056 z m 789 1056 l 971 1243 l 721 1243 l 564 1056 z m 672 367 b 514 204 672 267 615 204 b 354 367 411 204 354 267 l 354 972 l 107 972 l 107 390 b 513 -28 107 132 257 -28 b 919 390 769 -28 919 132 l 919 972 l 672 972 z "},"Û":{"ha":1026,"x_min":0,"x_max":0,"o":"m 425 1056 l 514 1146 l 601 1056 l 792 1056 l 636 1243 l 392 1243 l 235 1056 z m 672 367 b 514 204 672 267 615 204 b 354 367 411 204 354 267 l 354 972 l 107 972 l 107 390 b 513 -28 107 132 257 -28 b 919 390 769 -28 919 132 l 919 972 l 672 972 z "},"Ǔ":{"ha":1026,"x_min":0,"x_max":0,"o":"m 425 1243 l 235 1243 l 392 1056 l 636 1056 l 792 1243 l 601 1243 l 514 1153 z m 672 367 b 514 204 672 267 615 204 b 354 367 411 204 354 267 l 354 972 l 107 972 l 107 390 b 513 -28 107 132 257 -28 b 919 390 769 -28 919 132 l 919 972 l 672 972 z "},"Ü":{"ha":1026,"x_min":0,"x_max":0,"o":"m 351 1028 b 467 1144 413 1028 467 1081 b 351 1261 467 1207 413 1261 b 233 1144 286 1261 233 1207 b 351 1028 233 1081 286 1028 z m 678 1028 b 794 1144 742 1028 794 1081 b 678 1261 794 1208 742 1261 b 561 1144 614 1261 561 1208 b 678 1028 561 1081 614 1028 z m 672 367 b 514 204 672 267 615 204 b 354 367 411 204 354 267 l 354 972 l 107 972 l 107 390 b 513 -28 107 132 257 -28 b 919 390 769 -28 919 132 l 919 972 l 672 972 z "},"Ŭ":{"ha":1026,"x_min":0,"x_max":0,"o":"m 514 1186 b 414 1243 443 1186 418 1211 l 236 1243 b 514 1042 235 1114 342 1042 b 792 1243 686 1042 792 1114 l 614 1243 b 514 1186 610 1211 583 1186 z m 672 367 b 514 204 672 267 615 204 b 354 367 411 204 354 267 l 354 972 l 107 972 l 107 390 b 513 -28 107 132 257 -28 b 919 390 769 -28 919 132 l 919 972 l 672 972 z "},"Ů":{"ha":1026,"x_min":0,"x_max":0,"o":"m 324 1185 b 514 1028 324 1074 407 1028 b 706 1185 624 1028 706 1074 b 514 1342 706 1297 624 1342 b 324 1185 407 1342 324 1297 z m 581 1185 b 514 1138 581 1151 557 1138 b 447 1185 469 1138 447 1151 b 514 1232 447 1219 469 1232 b 581 1185 558 1232 581 1219 z m 672 367 b 514 204 672 267 615 204 b 354 367 411 204 354 267 l 354 972 l 107 972 l 107 390 b 513 -28 107 132 257 -28 b 919 390 769 -28 919 132 l 919 972 l 672 972 z "},"Ũ":{"ha":1026,"x_min":0,"x_max":0,"o":"m 239 1056 l 396 1056 l 396 1083 b 411 1106 396 1103 403 1106 b 624 1042 442 1106 532 1042 b 789 1207 714 1042 789 1093 l 789 1243 l 632 1243 l 632 1215 b 617 1193 632 1197 625 1193 b 406 1257 589 1193 493 1257 b 239 1092 314 1257 239 1203 z m 672 367 b 514 204 672 267 615 204 b 354 367 411 204 354 267 l 354 972 l 107 972 l 107 390 b 513 -28 107 132 257 -28 b 919 390 769 -28 919 132 l 919 972 l 672 972 z "},"Ū":{"ha":1026,"x_min":0,"x_max":0,"o":"m 250 1063 l 778 1063 l 778 1222 l 250 1222 z m 672 367 b 514 204 672 267 615 204 b 354 367 411 204 354 267 l 354 972 l 107 972 l 107 390 b 513 -28 107 132 257 -28 b 919 390 769 -28 919 132 l 919 972 l 672 972 z "},"Ų":{"ha":1026,"x_min":0,"x_max":0,"o":"m 315 -172 b 535 -342 315 -253 389 -342 b 664 -321 593 -342 631 -335 l 664 -179 b 571 -196 646 -187 615 -196 b 490 -139 515 -196 490 -176 b 569 -56 490 -111 513 -87 l 644 -11 b 919 390 819 35 919 179 l 919 972 l 672 972 l 672 367 b 514 204 672 267 615 204 b 354 367 411 204 354 267 l 354 972 l 107 972 l 107 390 b 411 -18 107 168 218 19 b 315 -172 340 -54 315 -114 z "},"Ư":{"ha":1026,"x_min":0,"x_max":0,"o":"m 672 367 b 514 204 672 267 615 204 b 354 367 411 204 354 267 l 354 972 l 107 972 l 107 390 b 513 -28 107 132 257 -28 b 919 390 769 -28 919 132 l 919 860 b 1065 1042 999 885 1065 942 b 974 1222 1065 1111 1029 1181 l 854 1118 b 901 1042 885 1097 901 1074 b 815 972 901 997 874 972 l 672 972 z "},"Ǖ":{"ha":1026,"x_min":0,"x_max":0,"o":"m 250 1310 l 778 1310 l 778 1469 l 250 1469 z m 351 1028 b 467 1144 413 1028 467 1081 b 351 1261 467 1207 413 1261 b 233 1144 286 1261 233 1207 b 351 1028 233 1081 286 1028 z m 678 1028 b 794 1144 742 1028 794 1081 b 678 1261 794 1208 742 1261 b 561 1144 614 1261 561 1208 b 678 1028 561 1081 614 1028 z m 672 367 b 514 204 672 267 615 204 b 354 367 411 204 354 267 l 354 972 l 107 972 l 107 390 b 513 -28 107 132 257 -28 b 919 390 769 -28 919 132 l 919 972 l 672 972 z "},"Ǘ":{"ha":1026,"x_min":0,"x_max":0,"o":"m 625 1303 l 807 1490 l 557 1490 l 400 1303 z m 351 1028 b 467 1144 413 1028 467 1081 b 351 1261 467 1207 413 1261 b 233 1144 286 1261 233 1207 b 351 1028 233 1081 286 1028 z m 678 1028 b 794 1144 742 1028 794 1081 b 678 1261 794 1208 742 1261 b 561 1144 614 1261 561 1208 b 678 1028 561 1081 614 1028 z m 672 367 b 514 204 672 267 615 204 b 354 367 411 204 354 267 l 354 972 l 107 972 l 107 390 b 513 -28 107 132 257 -28 b 919 390 769 -28 919 132 l 919 972 l 672 972 z "},"Ǚ":{"ha":1026,"x_min":0,"x_max":0,"o":"m 425 1490 l 235 1490 l 392 1303 l 636 1303 l 792 1490 l 601 1490 l 514 1400 z m 351 1028 b 467 1144 413 1028 467 1081 b 351 1261 467 1207 413 1261 b 233 1144 286 1261 233 1207 b 351 1028 233 1081 286 1028 z m 678 1028 b 794 1144 742 1028 794 1081 b 678 1261 794 1208 742 1261 b 561 1144 614 1261 561 1208 b 678 1028 561 1081 614 1028 z m 672 367 b 514 204 672 267 615 204 b 354 367 411 204 354 267 l 354 972 l 107 972 l 107 390 b 513 -28 107 132 257 -28 b 919 390 769 -28 919 132 l 919 972 l 672 972 z "},"Ǜ":{"ha":1026,"x_min":0,"x_max":0,"o":"m 407 1303 l 632 1303 l 475 1490 l 225 1490 z m 351 1028 b 467 1144 413 1028 467 1081 b 351 1261 467 1207 413 1261 b 233 1144 286 1261 233 1207 b 351 1028 233 1081 286 1028 z m 678 1028 b 794 1144 742 1028 794 1081 b 678 1261 794 1208 742 1261 b 561 1144 614 1261 561 1208 b 678 1028 561 1081 614 1028 z m 672 367 b 514 204 672 267 615 204 b 354 367 411 204 354 267 l 354 972 l 107 972 l 107 390 b 513 -28 107 132 257 -28 b 919 390 769 -28 919 132 l 919 972 l 672 972 z "},"Ụ":{"ha":1026,"x_min":0,"x_max":0,"o":"m 672 367 b 514 204 672 267 615 204 b 354 367 411 204 354 267 l 354 972 l 107 972 l 107 390 b 513 -28 107 132 257 -28 b 919 390 769 -28 919 132 l 919 972 l 672 972 z m 514 -356 b 653 -215 589 -356 653 -290 b 514 -76 653 -140 589 -76 b 374 -215 438 -76 374 -140 b 514 -356 374 -290 438 -356 z "},"Ủ":{"ha":1026,"x_min":0,"x_max":0,"o":"m 492 1013 b 713 1189 628 1033 713 1090 b 532 1342 713 1283 636 1342 b 335 1274 451 1342 385 1315 l 421 1165 b 519 1204 446 1186 481 1204 b 556 1182 546 1204 556 1194 b 461 1143 556 1161 525 1153 z m 672 367 b 514 204 672 267 615 204 b 354 367 411 204 354 267 l 354 972 l 107 972 l 107 390 b 513 -28 107 132 257 -28 b 919 390 769 -28 919 132 l 919 972 l 672 972 z "},"Ứ":{"ha":1026,"x_min":0,"x_max":0,"o":"m 625 1056 l 807 1243 l 557 1243 l 400 1056 z m 672 367 b 514 204 672 267 615 204 b 354 367 411 204 354 267 l 354 972 l 107 972 l 107 390 b 513 -28 107 132 257 -28 b 919 390 769 -28 919 132 l 919 860 b 1065 1042 999 885 1065 942 b 974 1222 1065 1111 1029 1181 l 854 1118 b 901 1042 885 1097 901 1074 b 815 972 901 997 874 972 l 672 972 z "},"Ừ":{"ha":1026,"x_min":0,"x_max":0,"o":"m 407 1056 l 632 1056 l 475 1243 l 225 1243 z m 672 367 b 514 204 672 267 615 204 b 354 367 411 204 354 267 l 354 972 l 107 972 l 107 390 b 513 -28 107 132 257 -28 b 919 390 769 -28 919 132 l 919 860 b 1065 1042 999 885 1065 942 b 974 1222 1065 1111 1029 1181 l 854 1118 b 901 1042 885 1097 901 1074 b 815 972 901 997 874 972 l 672 972 z "},"Ử":{"ha":1026,"x_min":0,"x_max":0,"o":"m 492 1013 b 713 1189 628 1033 713 1090 b 532 1342 713 1283 636 1342 b 335 1274 451 1342 385 1315 l 421 1165 b 519 1204 446 1186 481 1204 b 556 1182 546 1204 556 1194 b 461 1143 556 1161 525 1153 z m 672 367 b 514 204 672 267 615 204 b 354 367 411 204 354 267 l 354 972 l 107 972 l 107 390 b 513 -28 107 132 257 -28 b 919 390 769 -28 919 132 l 919 860 b 1065 1042 999 885 1065 942 b 974 1222 1065 1111 1029 1181 l 854 1118 b 901 1042 885 1097 901 1074 b 815 972 901 997 874 972 l 672 972 z "},"Ữ":{"ha":1026,"x_min":0,"x_max":0,"o":"m 239 1056 l 396 1056 l 396 1083 b 411 1106 396 1103 403 1106 b 624 1042 442 1106 532 1042 b 789 1207 714 1042 789 1093 l 789 1243 l 632 1243 l 632 1215 b 617 1193 632 1197 625 1193 b 406 1257 589 1193 493 1257 b 239 1092 314 1257 239 1203 z m 672 367 b 514 204 672 267 615 204 b 354 367 411 204 354 267 l 354 972 l 107 972 l 107 390 b 513 -28 107 132 257 -28 b 919 390 769 -28 919 132 l 919 860 b 1065 1042 999 885 1065 942 b 974 1222 1065 1111 1029 1181 l 854 1118 b 901 1042 885 1097 901 1074 b 815 972 901 997 874 972 l 672 972 z "},"Ự":{"ha":1026,"x_min":0,"x_max":0,"o":"m 672 367 b 514 204 672 267 615 204 b 354 367 411 204 354 267 l 354 972 l 107 972 l 107 390 b 513 -28 107 132 257 -28 b 919 390 769 -28 919 132 l 919 860 b 1065 1042 999 885 1065 942 b 974 1222 1065 1111 1029 1181 l 854 1118 b 901 1042 885 1097 901 1074 b 815 972 901 997 874 972 l 672 972 z m 514 -356 b 653 -215 589 -356 653 -290 b 514 -76 653 -140 589 -76 b 374 -215 438 -76 374 -140 b 514 -356 374 -290 438 -356 z "},"V":{"ha":1044,"x_min":0,"x_max":0,"o":"m 8 972 l 361 0 l 683 0 l 1036 972 l 774 972 l 522 279 l 271 972 z "},"W":{"ha":1524,"x_min":0,"x_max":0,"o":"m 28 972 l 261 0 l 589 0 l 763 678 l 935 0 l 1264 0 l 1496 972 l 1256 972 l 1093 304 l 924 972 l 601 972 l 431 303 l 269 972 z "},"Ẁ":{"ha":1524,"x_min":0,"x_max":0,"o":"m 663 1056 l 888 1056 l 731 1243 l 481 1243 z m 28 972 l 261 0 l 589 0 l 763 678 l 935 0 l 1264 0 l 1496 972 l 1256 972 l 1093 304 l 924 972 l 601 972 l 431 303 l 269 972 z "},"Ẃ":{"ha":1524,"x_min":0,"x_max":0,"o":"m 881 1056 l 1063 1243 l 813 1243 l 656 1056 z m 28 972 l 261 0 l 589 0 l 763 678 l 935 0 l 1264 0 l 1496 972 l 1256 972 l 1093 304 l 924 972 l 601 972 l 431 303 l 269 972 z "},"Ŵ":{"ha":1524,"x_min":0,"x_max":0,"o":"m 681 1056 l 769 1146 l 857 1056 l 1047 1056 l 892 1243 l 647 1243 l 490 1056 z m 28 972 l 261 0 l 589 0 l 763 678 l 935 0 l 1264 0 l 1496 972 l 1256 972 l 1093 304 l 924 972 l 601 972 l 431 303 l 269 972 z "},"Ẅ":{"ha":1524,"x_min":0,"x_max":0,"o":"m 607 1028 b 722 1144 668 1028 722 1081 b 607 1261 722 1207 668 1261 b 489 1144 542 1261 489 1207 b 607 1028 489 1081 542 1028 z m 933 1028 b 1050 1144 997 1028 1050 1081 b 933 1261 1050 1208 997 1261 b 817 1144 869 1261 817 1208 b 933 1028 817 1081 869 1028 z m 28 972 l 261 0 l 589 0 l 763 678 l 935 0 l 1264 0 l 1496 972 l 1256 972 l 1093 304 l 924 972 l 601 972 l 431 303 l 269 972 z "},"X":{"ha":1054,"x_min":0,"x_max":0,"o":"m 314 0 l 528 318 l 742 0 l 1035 0 l 700 500 l 1017 972 l 722 972 l 528 682 l 332 972 l 39 972 l 354 500 l 19 0 z "},"Y":{"ha":1021,"x_min":0,"x_max":0,"o":"m 1040 972 l 740 972 l 511 636 l 282 972 l -19 972 l 386 394 l 386 0 l 633 0 l 633 394 z "},"Ý":{"ha":1021,"x_min":0,"x_max":0,"o":"m 621 1056 l 803 1243 l 553 1243 l 396 1056 z m 1040 972 l 740 972 l 511 636 l 282 972 l -19 972 l 386 394 l 386 0 l 633 0 l 633 394 z "},"Ỳ":{"ha":1021,"x_min":0,"x_max":0,"o":"m 403 1056 l 628 1056 l 471 1243 l 221 1243 z m 1040 972 l 740 972 l 511 636 l 282 972 l -19 972 l 386 394 l 386 0 l 633 0 l 633 394 z "},"Ŷ":{"ha":1021,"x_min":0,"x_max":0,"o":"m 421 1056 l 510 1146 l 597 1056 l 788 1056 l 632 1243 l 388 1243 l 231 1056 z m 1040 972 l 740 972 l 511 636 l 282 972 l -19 972 l 386 394 l 386 0 l 633 0 l 633 394 z "},"Ỹ":{"ha":1021,"x_min":0,"x_max":0,"o":"m 235 1056 l 392 1056 l 392 1083 b 407 1106 392 1103 399 1106 b 619 1042 438 1106 528 1042 b 785 1207 710 1042 785 1093 l 785 1243 l 628 1243 l 628 1215 b 613 1193 628 1197 621 1193 b 401 1257 585 1193 489 1257 b 235 1092 310 1257 235 1203 z m 1040 972 l 740 972 l 511 636 l 282 972 l -19 972 l 386 394 l 386 0 l 633 0 l 633 394 z "},"Ÿ":{"ha":1021,"x_min":0,"x_max":0,"o":"m 347 1028 b 463 1144 408 1028 463 1081 b 347 1261 463 1207 408 1261 b 229 1144 282 1261 229 1207 b 347 1028 229 1081 282 1028 z m 674 1028 b 790 1144 738 1028 790 1081 b 674 1261 790 1208 738 1261 b 557 1144 610 1261 557 1208 b 674 1028 557 1081 610 1028 z m 1040 972 l 740 972 l 511 636 l 282 972 l -19 972 l 386 394 l 386 0 l 633 0 l 633 394 z "},"Ȳ":{"ha":1021,"x_min":0,"x_max":0,"o":"m 246 1063 l 774 1063 l 774 1222 l 246 1222 z m 1040 972 l 740 972 l 511 636 l 282 972 l -19 972 l 386 394 l 386 0 l 633 0 l 633 394 z "},"Ỵ":{"ha":1021,"x_min":0,"x_max":0,"o":"m 1040 972 l 740 972 l 511 636 l 282 972 l -19 972 l 386 394 l 386 0 l 633 0 l 633 394 z m 511 -356 b 650 -215 586 -356 650 -290 b 511 -76 650 -140 586 -76 b 371 -215 435 -76 371 -140 b 511 -356 371 -290 435 -356 z "},"Ỷ":{"ha":1021,"x_min":0,"x_max":0,"o":"m 488 1013 b 708 1189 624 1033 708 1090 b 528 1342 708 1283 632 1342 b 331 1274 447 1342 381 1315 l 417 1165 b 515 1204 442 1186 476 1204 b 551 1182 542 1204 551 1194 b 457 1143 551 1161 521 1153 z m 1040 972 l 740 972 l 511 636 l 282 972 l -19 972 l 386 394 l 386 0 l 633 0 l 633 394 z "},"Z":{"ha":993,"x_min":0,"x_max":0,"o":"m 89 0 l 903 0 l 903 224 l 400 224 l 889 749 l 889 972 l 103 972 l 103 749 l 579 749 l 89 224 z "},"Ź":{"ha":993,"x_min":0,"x_max":0,"o":"m 606 1056 l 788 1243 l 538 1243 l 381 1056 z m 89 0 l 903 0 l 903 224 l 400 224 l 889 749 l 889 972 l 103 972 l 103 749 l 579 749 l 89 224 z "},"Ž":{"ha":993,"x_min":0,"x_max":0,"o":"m 406 1243 l 215 1243 l 372 1056 l 617 1056 l 772 1243 l 582 1243 l 494 1153 z m 89 0 l 903 0 l 903 224 l 400 224 l 889 749 l 889 972 l 103 972 l 103 749 l 579 749 l 89 224 z "},"Ż":{"ha":993,"x_min":0,"x_max":0,"o":"m 494 1028 b 610 1144 557 1028 610 1081 b 494 1261 610 1208 557 1261 b 376 1144 429 1261 376 1208 b 494 1028 376 1081 429 1028 z m 89 0 l 903 0 l 903 224 l 400 224 l 889 749 l 889 972 l 103 972 l 103 749 l 579 749 l 89 224 z "},"Ẓ":{"ha":993,"x_min":0,"x_max":0,"o":"m 89 0 l 903 0 l 903 224 l 400 224 l 889 749 l 889 972 l 103 972 l 103 749 l 579 749 l 89 224 z m 497 -356 b 636 -215 572 -356 636 -290 b 497 -76 636 -140 572 -76 b 357 -215 421 -76 357 -140 b 497 -356 357 -290 421 -356 z "},"Ə":{"ha":1071,"x_min":0,"x_max":0,"o":"m 1019 485 b 496 999 1019 769 811 999 b 51 789 292 999 147 907 l 239 640 b 492 767 300 722 389 767 b 756 568 628 767 725 686 l 82 568 b 68 421 74 535 68 485 b 525 -28 68 163 264 -28 b 1019 485 839 -28 1019 207 z m 532 189 b 318 364 397 189 324 275 l 751 364 b 532 189 721 246 642 189 z "},"a":{"ha":788,"x_min":0,"x_max":0,"o":"m 293 -21 b 485 53 367 -21 446 10 l 485 0 l 704 0 l 704 442 b 379 728 704 594 601 728 b 78 586 249 728 142 675 l 239 464 b 372 538 271 510 314 538 b 485 444 438 538 483 497 l 288 411 b 53 197 135 386 53 304 b 293 -21 53 61 151 -21 z m 271 208 b 347 271 271 240 290 261 l 485 294 l 485 225 b 342 150 457 183 413 150 b 271 208 299 150 271 172 z "},"à":{"ha":788,"x_min":0,"x_max":0,"o":"m 278 811 l 486 811 l 344 1042 l 108 1042 z m 293 -21 b 485 53 367 -21 446 10 l 485 0 l 704 0 l 704 442 b 379 728 704 594 601 728 b 78 586 249 728 142 675 l 239 464 b 372 538 271 510 314 538 b 485 444 438 538 483 497 l 288 411 b 53 197 135 386 53 304 b 293 -21 53 61 151 -21 z m 271 208 b 347 271 271 240 290 261 l 485 294 l 485 225 b 342 150 457 183 413 150 b 271 208 299 150 271 172 z "},"á":{"ha":788,"x_min":0,"x_max":0,"o":"m 507 811 l 676 1042 l 440 1042 l 297 811 z m 293 -21 b 485 53 367 -21 446 10 l 485 0 l 704 0 l 704 442 b 379 728 704 594 601 728 b 78 586 249 728 142 675 l 239 464 b 372 538 271 510 314 538 b 485 444 438 538 483 497 l 288 411 b 53 197 135 386 53 304 b 293 -21 53 61 151 -21 z m 271 208 b 347 271 271 240 290 261 l 485 294 l 485 225 b 342 150 457 183 413 150 b 271 208 299 150 271 172 z "},"â":{"ha":788,"x_min":0,"x_max":0,"o":"m 303 811 l 392 946 l 481 811 l 671 811 l 529 1042 l 254 1042 l 113 811 z m 293 -21 b 485 53 367 -21 446 10 l 485 0 l 704 0 l 704 442 b 379 728 704 594 601 728 b 78 586 249 728 142 675 l 239 464 b 372 538 271 510 314 538 b 485 444 438 538 483 497 l 288 411 b 53 197 135 386 53 304 b 293 -21 53 61 151 -21 z m 271 208 b 347 271 271 240 290 261 l 485 294 l 485 225 b 342 150 457 183 413 150 b 271 208 299 150 271 172 z "},"ǎ":{"ha":788,"x_min":0,"x_max":0,"o":"m 303 1042 l 113 1042 l 254 811 l 529 811 l 671 1042 l 481 1042 l 392 907 z m 293 -21 b 485 53 367 -21 446 10 l 485 0 l 704 0 l 704 442 b 379 728 704 594 601 728 b 78 586 249 728 142 675 l 239 464 b 372 538 271 510 314 538 b 485 444 438 538 483 497 l 288 411 b 53 197 135 386 53 304 b 293 -21 53 61 151 -21 z m 271 208 b 347 271 271 240 290 261 l 485 294 l 485 225 b 342 150 457 183 413 150 b 271 208 299 150 271 172 z "},"ă":{"ha":788,"x_min":0,"x_max":0,"o":"m 392 956 b 300 1042 329 956 300 992 l 121 1042 b 392 811 121 894 226 811 b 660 1042 556 811 660 894 l 482 1042 b 392 956 482 992 453 956 z m 293 -21 b 485 53 367 -21 446 10 l 485 0 l 704 0 l 704 442 b 379 728 704 594 601 728 b 78 586 249 728 142 675 l 239 464 b 372 538 271 510 314 538 b 485 444 438 538 483 497 l 288 411 b 53 197 135 386 53 304 b 293 -21 53 61 151 -21 z m 271 208 b 347 271 271 240 290 261 l 485 294 l 485 225 b 342 150 457 183 413 150 b 271 208 299 150 271 172 z "},"å":{"ha":788,"x_min":0,"x_max":0,"o":"m 201 946 b 392 772 201 842 285 772 b 583 946 501 772 583 842 b 392 1118 583 1049 501 1118 b 201 946 285 1118 201 1049 z m 458 944 b 392 881 458 907 433 881 b 325 944 350 881 325 907 b 392 1008 325 982 350 1008 b 458 944 433 1008 458 982 z m 293 -21 b 485 53 367 -21 446 10 l 485 0 l 704 0 l 704 442 b 379 728 704 594 601 728 b 78 586 249 728 142 675 l 239 464 b 372 538 271 510 314 538 b 485 444 438 538 483 497 l 288 411 b 53 197 135 386 53 304 b 293 -21 53 61 151 -21 z m 271 208 b 347 271 271 240 290 261 l 485 294 l 485 225 b 342 150 457 183 413 150 b 271 208 299 150 271 172 z "},"ǻ":{"ha":788,"x_min":0,"x_max":0,"o":"m 503 1111 l 685 1299 l 435 1299 l 278 1111 z m 201 913 b 392 756 201 801 285 756 b 583 913 501 756 583 801 b 392 1069 583 1025 501 1069 b 201 913 285 1069 201 1025 z m 458 913 b 392 865 458 879 435 865 b 325 913 347 865 325 879 b 392 960 325 947 347 960 b 458 913 436 960 458 947 z m 293 -21 b 485 53 367 -21 446 10 l 485 0 l 704 0 l 704 442 b 379 728 704 594 601 728 b 78 586 249 728 142 675 l 239 464 b 372 538 271 510 314 538 b 485 444 438 538 483 497 l 288 411 b 53 197 135 386 53 304 b 293 -21 53 61 151 -21 z m 271 208 b 347 271 271 240 290 261 l 485 294 l 485 225 b 342 150 457 183 413 150 b 271 208 299 150 271 172 z "},"ã":{"ha":788,"x_min":0,"x_max":0,"o":"m 667 1042 l 510 1042 l 510 990 b 486 961 510 972 500 961 b 276 1051 440 961 401 1051 b 117 858 175 1051 117 983 l 117 811 l 274 811 l 274 861 b 297 892 274 881 283 892 b 507 801 343 892 382 801 b 667 996 608 801 667 871 z m 293 -21 b 485 53 367 -21 446 10 l 485 0 l 704 0 l 704 442 b 379 728 704 594 601 728 b 78 586 249 728 142 675 l 239 464 b 372 538 271 510 314 538 b 485 444 438 538 483 497 l 288 411 b 53 197 135 386 53 304 b 293 -21 53 61 151 -21 z m 271 208 b 347 271 271 240 290 261 l 485 294 l 485 225 b 342 150 457 183 413 150 b 271 208 299 150 271 172 z "},"ä":{"ha":788,"x_min":0,"x_max":0,"o":"m 225 800 b 353 928 293 800 353 858 b 225 1056 353 996 293 1056 b 97 928 156 1056 97 996 b 225 800 97 858 156 800 z m 560 800 b 686 928 628 800 686 858 b 560 1056 686 996 628 1056 b 431 928 490 1056 431 996 b 560 800 431 858 490 800 z m 293 -21 b 485 53 367 -21 446 10 l 485 0 l 704 0 l 704 442 b 379 728 704 594 601 728 b 78 586 249 728 142 675 l 239 464 b 372 538 271 510 314 538 b 485 444 438 538 483 497 l 288 411 b 53 197 135 386 53 304 b 293 -21 53 61 151 -21 z m 271 208 b 347 271 271 240 290 261 l 485 294 l 485 225 b 342 150 457 183 413 150 b 271 208 299 150 271 172 z "},"ā":{"ha":788,"x_min":0,"x_max":0,"o":"m 128 821 l 656 821 l 656 982 l 128 982 z m 293 -21 b 485 53 367 -21 446 10 l 485 0 l 704 0 l 704 442 b 379 728 704 594 601 728 b 78 586 249 728 142 675 l 239 464 b 372 538 271 510 314 538 b 485 444 438 538 483 497 l 288 411 b 53 197 135 386 53 304 b 293 -21 53 61 151 -21 z m 271 208 b 347 271 271 240 290 261 l 485 294 l 485 225 b 342 150 457 183 413 150 b 271 208 299 150 271 172 z "},"ạ":{"ha":788,"x_min":0,"x_max":0,"o":"m 293 -21 b 485 53 367 -21 446 10 l 485 0 l 704 0 l 704 442 b 379 728 704 594 601 728 b 78 586 249 728 142 675 l 239 464 b 372 538 271 510 314 538 b 485 444 438 538 483 497 l 288 411 b 53 197 135 386 53 304 b 293 -21 53 61 151 -21 z m 271 208 b 347 271 271 240 290 261 l 485 294 l 485 225 b 342 150 457 183 413 150 b 271 208 299 150 271 172 z m 394 -356 b 533 -215 469 -356 533 -290 b 394 -76 533 -140 469 -76 b 254 -215 318 -76 254 -140 b 394 -356 254 -290 318 -356 z "},"ą":{"ha":788,"x_min":0,"x_max":0,"o":"m 293 -21 b 485 53 367 -21 446 10 l 485 0 l 486 0 l 457 -15 b 356 -172 381 -54 356 -114 b 575 -342 356 -253 429 -342 b 704 -321 633 -342 671 -335 l 704 -179 b 611 -196 686 -187 656 -196 b 531 -139 556 -196 531 -176 b 610 -56 531 -111 553 -87 l 704 0 l 704 442 b 379 728 704 594 601 728 b 78 586 249 728 142 675 l 239 464 b 372 538 271 510 314 538 b 485 444 438 538 483 497 l 288 411 b 53 197 135 386 53 304 b 293 -21 53 61 151 -21 z m 271 208 b 347 271 271 240 290 261 l 485 294 l 485 225 b 342 150 457 183 413 150 b 271 208 299 150 271 172 z "},"ả":{"ha":788,"x_min":0,"x_max":0,"o":"m 358 767 b 597 957 506 789 597 850 b 410 1118 597 1057 518 1118 b 203 1046 325 1118 256 1090 l 289 938 b 392 981 317 961 353 981 b 440 953 425 981 440 968 b 328 897 440 921 403 910 z m 293 -21 b 485 53 367 -21 446 10 l 485 0 l 704 0 l 704 442 b 379 728 704 594 601 728 b 78 586 249 728 142 675 l 239 464 b 372 538 271 510 314 538 b 485 444 438 538 483 497 l 288 411 b 53 197 135 386 53 304 b 293 -21 53 61 151 -21 z m 271 208 b 347 271 271 240 290 261 l 485 294 l 485 225 b 342 150 457 183 413 150 b 271 208 299 150 271 172 z "},"ấ":{"ha":788,"x_min":0,"x_max":0,"o":"m 303 783 l 392 874 l 479 783 l 669 783 l 551 925 l 735 925 l 917 1113 l 681 1113 l 538 942 l 514 971 l 269 971 l 113 783 z m 293 -21 b 485 53 367 -21 446 10 l 485 0 l 704 0 l 704 442 b 379 728 704 594 601 728 b 78 586 249 728 142 675 l 239 464 b 372 538 271 510 314 538 b 485 444 438 538 483 497 l 288 411 b 53 197 135 386 53 304 b 293 -21 53 61 151 -21 z m 271 208 b 347 271 271 240 290 261 l 485 294 l 485 225 b 342 150 457 183 413 150 b 271 208 299 150 271 172 z "},"ầ":{"ha":788,"x_min":0,"x_max":0,"o":"m 604 925 l 815 925 l 658 1113 l 422 1113 z m 303 783 l 392 874 l 479 783 l 669 783 l 514 971 l 269 971 l 113 783 z m 293 -21 b 485 53 367 -21 446 10 l 485 0 l 704 0 l 704 442 b 379 728 704 594 601 728 b 78 586 249 728 142 675 l 239 464 b 372 538 271 510 314 538 b 485 444 438 538 483 497 l 288 411 b 53 197 135 386 53 304 b 293 -21 53 61 151 -21 z m 271 208 b 347 271 271 240 290 261 l 485 294 l 485 225 b 342 150 457 183 413 150 b 271 208 299 150 271 172 z "},"ẩ":{"ha":788,"x_min":0,"x_max":0,"o":"m 642 881 b 828 1028 757 900 828 946 b 668 1156 828 1107 768 1156 b 499 1099 604 1156 539 1132 l 571 1008 b 663 1040 590 1024 628 1040 b 697 1022 690 1040 697 1032 b 615 990 697 1004 661 997 z m 303 783 l 392 874 l 479 783 l 669 783 l 514 971 l 269 971 l 113 783 z m 293 -21 b 485 53 367 -21 446 10 l 485 0 l 704 0 l 704 442 b 379 728 704 594 601 728 b 78 586 249 728 142 675 l 239 464 b 372 538 271 510 314 538 b 485 444 438 538 483 497 l 288 411 b 53 197 135 386 53 304 b 293 -21 53 61 151 -21 z m 271 208 b 347 271 271 240 290 261 l 485 294 l 485 225 b 342 150 457 183 413 150 b 271 208 299 150 271 172 z "},"ẫ":{"ha":788,"x_min":0,"x_max":0,"o":"m 117 1013 l 274 1013 l 274 1040 b 289 1063 274 1060 281 1063 b 501 999 319 1063 410 999 b 667 1164 592 999 667 1050 l 667 1200 l 510 1200 l 510 1172 b 494 1150 510 1154 503 1150 b 283 1214 467 1150 371 1214 b 117 1049 192 1214 117 1160 z m 303 783 l 392 874 l 479 783 l 669 783 l 514 971 l 269 971 l 113 783 z m 293 -21 b 485 53 367 -21 446 10 l 485 0 l 704 0 l 704 442 b 379 728 704 594 601 728 b 78 586 249 728 142 675 l 239 464 b 372 538 271 510 314 538 b 485 444 438 538 483 497 l 288 411 b 53 197 135 386 53 304 b 293 -21 53 61 151 -21 z m 271 208 b 347 271 271 240 290 261 l 485 294 l 485 225 b 342 150 457 183 413 150 b 271 208 299 150 271 172 z "},"ậ":{"ha":788,"x_min":0,"x_max":0,"o":"m 303 811 l 392 946 l 481 811 l 671 811 l 529 1042 l 254 1042 l 113 811 z m 293 -21 b 485 53 367 -21 446 10 l 485 0 l 704 0 l 704 442 b 379 728 704 594 601 728 b 78 586 249 728 142 675 l 239 464 b 372 538 271 510 314 538 b 485 444 438 538 483 497 l 288 411 b 53 197 135 386 53 304 b 293 -21 53 61 151 -21 z m 271 208 b 347 271 271 240 290 261 l 485 294 l 485 225 b 342 150 457 183 413 150 b 271 208 299 150 271 172 z m 394 -356 b 533 -215 469 -356 533 -290 b 394 -76 533 -140 469 -76 b 254 -215 318 -76 254 -140 b 394 -356 254 -290 318 -356 z "},"ắ":{"ha":788,"x_min":0,"x_max":0,"o":"m 503 1013 l 685 1200 l 435 1200 l 278 1013 z m 392 914 b 292 971 321 914 296 939 l 114 971 b 392 769 113 842 219 769 b 669 971 564 769 669 842 l 492 971 b 392 914 488 939 461 914 z m 293 -21 b 485 53 367 -21 446 10 l 485 0 l 704 0 l 704 442 b 379 728 704 594 601 728 b 78 586 249 728 142 675 l 239 464 b 372 538 271 510 314 538 b 485 444 438 538 483 497 l 288 411 b 53 197 135 386 53 304 b 293 -21 53 61 151 -21 z m 271 208 b 347 271 271 240 290 261 l 485 294 l 485 225 b 342 150 457 183 413 150 b 271 208 299 150 271 172 z "},"ằ":{"ha":788,"x_min":0,"x_max":0,"o":"m 285 1013 l 510 1013 l 353 1200 l 103 1200 z m 392 914 b 292 971 321 914 296 939 l 114 971 b 392 769 113 842 219 769 b 669 971 564 769 669 842 l 492 971 b 392 914 488 939 461 914 z m 293 -21 b 485 53 367 -21 446 10 l 485 0 l 704 0 l 704 442 b 379 728 704 594 601 728 b 78 586 249 728 142 675 l 239 464 b 372 538 271 510 314 538 b 485 444 438 538 483 497 l 288 411 b 53 197 135 386 53 304 b 293 -21 53 61 151 -21 z m 271 208 b 347 271 271 240 290 261 l 485 294 l 485 225 b 342 150 457 183 413 150 b 271 208 299 150 271 172 z "},"ẳ":{"ha":788,"x_min":0,"x_max":0,"o":"m 369 969 b 590 1146 506 990 590 1047 b 410 1299 590 1240 514 1299 b 213 1231 329 1299 263 1272 l 299 1122 b 397 1161 324 1143 358 1161 b 433 1139 424 1161 433 1151 b 339 1100 433 1118 403 1110 z m 392 914 b 292 971 321 914 296 939 l 114 971 b 392 769 113 842 219 769 b 669 971 564 769 669 842 l 492 971 b 392 914 488 939 461 914 z m 293 -21 b 485 53 367 -21 446 10 l 485 0 l 704 0 l 704 442 b 379 728 704 594 601 728 b 78 586 249 728 142 675 l 239 464 b 372 538 271 510 314 538 b 485 444 438 538 483 497 l 288 411 b 53 197 135 386 53 304 b 293 -21 53 61 151 -21 z m 271 208 b 347 271 271 240 290 261 l 485 294 l 485 225 b 342 150 457 183 413 150 b 271 208 299 150 271 172 z "},"ẵ":{"ha":788,"x_min":0,"x_max":0,"o":"m 117 1013 l 274 1013 l 274 1040 b 289 1063 274 1060 281 1063 b 501 999 319 1063 410 999 b 667 1164 592 999 667 1050 l 667 1200 l 510 1200 l 510 1172 b 494 1150 510 1154 503 1150 b 283 1214 467 1150 371 1214 b 117 1049 192 1214 117 1160 z m 392 914 b 292 971 321 914 296 939 l 114 971 b 392 769 113 842 219 769 b 669 971 564 769 669 842 l 492 971 b 392 914 488 939 461 914 z m 293 -21 b 485 53 367 -21 446 10 l 485 0 l 704 0 l 704 442 b 379 728 704 594 601 728 b 78 586 249 728 142 675 l 239 464 b 372 538 271 510 314 538 b 485 444 438 538 483 497 l 288 411 b 53 197 135 386 53 304 b 293 -21 53 61 151 -21 z m 271 208 b 347 271 271 240 290 261 l 485 294 l 485 225 b 342 150 457 183 413 150 b 271 208 299 150 271 172 z "},"ặ":{"ha":788,"x_min":0,"x_max":0,"o":"m 392 956 b 300 1042 329 956 300 992 l 121 1042 b 392 811 121 894 226 811 b 660 1042 556 811 660 894 l 482 1042 b 392 956 482 992 453 956 z m 293 -21 b 485 53 367 -21 446 10 l 485 0 l 704 0 l 704 442 b 379 728 704 594 601 728 b 78 586 249 728 142 675 l 239 464 b 372 538 271 510 314 538 b 485 444 438 538 483 497 l 288 411 b 53 197 135 386 53 304 b 293 -21 53 61 151 -21 z m 271 208 b 347 271 271 240 290 261 l 485 294 l 485 225 b 342 150 457 183 413 150 b 271 208 299 150 271 172 z m 394 -356 b 533 -215 469 -356 533 -290 b 394 -76 533 -140 469 -76 b 254 -215 318 -76 254 -140 b 394 -356 254 -290 318 -356 z "},"æ":{"ha":1238,"x_min":0,"x_max":0,"o":"m 296 -18 b 569 101 431 -18 515 32 b 876 -28 635 22 738 -28 b 1188 113 1011 -28 1121 25 l 1032 236 b 875 169 1000 196 946 169 b 710 289 792 169 731 194 l 1163 289 b 1176 406 1169 314 1176 358 b 847 728 1176 596 1046 728 b 615 651 751 728 674 699 b 379 728 561 699 483 728 b 78 586 249 728 142 675 l 239 464 b 372 538 271 510 314 538 b 485 444 438 538 483 497 l 288 411 b 53 197 135 386 53 304 b 296 -18 53 64 151 -18 z m 839 550 b 963 444 924 550 960 492 l 710 444 b 839 550 726 529 776 550 z m 271 208 b 347 271 271 240 290 261 l 488 294 b 499 242 490 276 494 258 b 342 153 468 196 419 153 b 271 208 299 153 271 175 z "},"ǽ":{"ha":1238,"x_min":0,"x_max":0,"o":"m 735 811 l 904 1042 l 668 1042 l 525 811 z m 296 -18 b 569 101 431 -18 515 32 b 876 -28 635 22 738 -28 b 1188 113 1011 -28 1121 25 l 1032 236 b 875 169 1000 196 946 169 b 710 289 792 169 731 194 l 1163 289 b 1176 406 1169 314 1176 358 b 847 728 1176 596 1046 728 b 615 651 751 728 674 699 b 379 728 561 699 483 728 b 78 586 249 728 142 675 l 239 464 b 372 538 271 510 314 538 b 485 444 438 538 483 497 l 288 411 b 53 197 135 386 53 304 b 296 -18 53 64 151 -18 z m 839 550 b 963 444 924 550 960 492 l 710 444 b 839 550 726 529 776 550 z m 271 208 b 347 271 271 240 290 261 l 488 294 b 499 242 490 276 494 258 b 342 153 468 196 419 153 b 271 208 299 153 271 175 z "},"b":{"ha":906,"x_min":0,"x_max":0,"o":"m 858 350 b 506 728 858 554 729 728 b 311 661 419 728 358 704 l 311 1042 l 90 1042 l 90 0 l 311 0 l 311 39 b 506 -28 358 -4 419 -28 b 858 350 729 -28 858 146 z m 474 521 b 631 350 571 521 631 453 b 474 179 631 247 571 179 b 311 261 406 179 353 208 l 311 439 b 474 521 349 490 403 521 z "},"c":{"ha":754,"x_min":0,"x_max":0,"o":"m 439 179 b 278 350 344 179 278 246 b 435 521 278 453 344 521 b 564 457 496 521 539 493 l 736 588 b 438 728 671 674 567 728 b 49 350 190 728 49 554 b 438 -28 49 146 190 -28 b 736 113 567 -28 671 26 l 564 243 b 439 179 539 207 494 179 z "},"ć":{"ha":754,"x_min":0,"x_max":0,"o":"m 553 811 l 722 1042 l 486 1042 l 343 811 z m 439 179 b 278 350 344 179 278 246 b 435 521 278 453 344 521 b 564 457 496 521 539 493 l 736 588 b 438 728 671 674 567 728 b 49 350 190 728 49 554 b 438 -28 49 146 190 -28 b 736 113 567 -28 671 26 l 564 243 b 439 179 539 207 494 179 z "},"ĉ":{"ha":754,"x_min":0,"x_max":0,"o":"m 349 811 l 438 946 l 526 811 l 717 811 l 575 1042 l 300 1042 l 158 811 z m 439 179 b 278 350 344 179 278 246 b 435 521 278 453 344 521 b 564 457 496 521 539 493 l 736 588 b 438 728 671 674 567 728 b 49 350 190 728 49 554 b 438 -28 49 146 190 -28 b 736 113 567 -28 671 26 l 564 243 b 439 179 539 207 494 179 z "},"č":{"ha":754,"x_min":0,"x_max":0,"o":"m 349 1042 l 158 1042 l 300 811 l 575 811 l 717 1042 l 526 1042 l 438 907 z m 439 179 b 278 350 344 179 278 246 b 435 521 278 453 344 521 b 564 457 496 521 539 493 l 736 588 b 438 728 671 674 567 728 b 49 350 190 728 49 554 b 438 -28 49 146 190 -28 b 736 113 567 -28 671 26 l 564 243 b 439 179 539 207 494 179 z "},"ċ":{"ha":754,"x_min":0,"x_max":0,"o":"m 438 776 b 576 917 513 776 576 842 b 438 1056 576 992 513 1056 b 297 917 361 1056 297 992 b 438 776 297 842 361 776 z m 439 179 b 278 350 344 179 278 246 b 435 521 278 453 344 521 b 564 457 496 521 539 493 l 736 588 b 438 728 671 674 567 728 b 49 350 190 728 49 554 b 438 -28 49 146 190 -28 b 736 113 567 -28 671 26 l 564 243 b 439 179 539 207 494 179 z "},"ç":{"ha":754,"x_min":0,"x_max":0,"o":"m 439 179 b 278 350 344 179 278 246 b 435 521 278 453 344 521 b 564 457 496 521 539 493 l 736 588 b 438 728 671 674 567 728 b 49 350 190 728 49 554 b 326 -15 49 179 149 29 l 208 -222 l 422 -222 l 544 -14 b 736 113 625 7 690 51 l 564 243 b 439 179 539 207 494 179 z "},"d":{"ha":907,"x_min":0,"x_max":0,"o":"m 49 350 b 401 -28 49 146 179 -28 b 594 38 488 -28 547 -4 l 594 0 l 817 0 l 817 1042 l 594 1042 l 594 663 b 401 728 547 704 488 728 b 49 350 179 728 49 554 z m 278 350 b 433 521 278 453 336 521 b 594 440 501 521 554 493 l 594 260 b 433 179 554 207 501 179 b 278 350 336 179 278 247 z "},"ď":{"ha":907,"x_min":0,"x_max":0,"o":"m 49 350 b 401 -28 49 146 179 -28 b 594 38 488 -28 547 -4 l 594 0 l 817 0 l 817 1042 l 594 1042 l 594 663 b 401 728 547 704 488 728 b 49 350 179 728 49 554 z m 1018 783 l 1175 1042 l 953 1042 l 839 783 z m 278 350 b 433 521 278 453 336 521 b 594 440 501 521 554 493 l 594 260 b 433 179 554 207 501 179 b 278 350 336 179 278 247 z "},"đ":{"ha":907,"x_min":0,"x_max":0,"o":"m 49 350 b 401 -28 49 146 179 -28 b 594 38 488 -28 547 -4 l 594 0 l 817 0 l 817 778 l 907 778 l 907 939 l 817 939 l 817 1042 l 594 1042 l 594 939 l 349 939 l 349 778 l 594 778 l 594 663 b 401 728 547 704 488 728 b 49 350 179 728 49 554 z m 278 350 b 433 521 278 453 336 521 b 594 440 501 521 554 493 l 594 260 b 433 179 554 207 501 179 b 278 350 336 179 278 247 z "},"ḍ":{"ha":907,"x_min":0,"x_max":0,"o":"m 49 350 b 401 -28 49 146 179 -28 b 594 38 488 -28 547 -4 l 594 0 l 817 0 l 817 1042 l 594 1042 l 594 663 b 401 728 547 704 488 728 b 49 350 179 728 49 554 z m 278 350 b 433 521 278 453 336 521 b 594 440 501 521 554 493 l 594 260 b 433 179 554 207 501 179 b 278 350 336 179 278 247 z m 482 -356 b 621 -215 557 -356 621 -290 b 482 -76 621 -140 557 -76 b 342 -215 406 -76 342 -140 b 482 -356 342 -290 406 -356 z "},"ḏ":{"ha":907,"x_min":0,"x_max":0,"o":"m 49 350 b 401 -28 49 146 179 -28 b 594 38 488 -28 547 -4 l 594 0 l 817 0 l 817 1042 l 594 1042 l 594 663 b 401 728 547 704 488 728 b 49 350 179 728 49 554 z m 278 350 b 433 521 278 453 336 521 b 594 440 501 521 554 493 l 594 260 b 433 179 554 207 501 179 b 278 350 336 179 278 247 z m 218 -318 l 746 -318 l 746 -157 l 218 -157 z "},"ḑ":{"ha":907,"x_min":0,"x_max":0,"o":"m 49 350 b 401 -28 49 146 179 -28 b 594 38 488 -28 547 -4 l 594 0 l 817 0 l 817 1042 l 594 1042 l 594 663 b 401 728 547 704 488 728 b 49 350 179 728 49 554 z m 278 350 b 433 521 278 453 336 521 b 594 440 501 521 554 493 l 594 260 b 433 179 554 207 501 179 b 278 350 336 179 278 247 z m 443 -342 l 613 -111 l 376 -111 l 233 -342 z "},"ð":{"ha":874,"x_min":0,"x_max":0,"o":"m 154 726 l 435 796 b 528 674 472 756 504 715 b 408 700 494 690 456 700 b 49 331 200 700 49 550 b 440 -28 49 136 203 -28 b 825 394 692 -28 825 160 b 647 849 825 542 753 713 l 764 878 l 764 1042 l 522 982 b 439 1042 494 1004 467 1025 l 125 1042 b 289 924 186 1000 240 961 l 154 890 z m 276 331 b 435 493 276 429 342 493 b 599 404 494 493 551 467 l 600 406 b 600 379 600 397 600 388 b 438 178 600 261 549 178 b 276 331 351 178 276 238 z "},"e":{"ha":801,"x_min":0,"x_max":0,"o":"m 753 113 l 597 236 b 440 169 565 196 507 169 b 275 289 357 169 296 194 l 728 289 b 742 406 735 314 742 358 b 413 728 742 596 611 728 b 49 350 175 728 49 553 b 442 -28 49 146 185 -28 b 753 113 576 -28 686 25 z m 407 550 b 528 444 489 550 525 492 l 276 444 b 407 550 293 515 336 550 z "},"è":{"ha":801,"x_min":0,"x_max":0,"o":"m 307 811 l 515 811 l 374 1042 l 138 1042 z m 753 113 l 597 236 b 440 169 565 196 507 169 b 275 289 357 169 296 194 l 728 289 b 742 406 735 314 742 358 b 413 728 742 596 611 728 b 49 350 175 728 49 553 b 442 -28 49 146 185 -28 b 753 113 576 -28 686 25 z m 407 550 b 528 444 489 550 525 492 l 276 444 b 407 550 293 515 336 550 z "},"é":{"ha":801,"x_min":0,"x_max":0,"o":"m 536 811 l 706 1042 l 469 1042 l 326 811 z m 753 113 l 597 236 b 440 169 565 196 507 169 b 275 289 357 169 296 194 l 728 289 b 742 406 735 314 742 358 b 413 728 742 596 611 728 b 49 350 175 728 49 553 b 442 -28 49 146 185 -28 b 753 113 576 -28 686 25 z m 407 550 b 528 444 489 550 525 492 l 276 444 b 407 550 293 515 336 550 z "},"ê":{"ha":801,"x_min":0,"x_max":0,"o":"m 332 811 l 421 946 l 510 811 l 700 811 l 558 1042 l 283 1042 l 142 811 z m 753 113 l 597 236 b 440 169 565 196 507 169 b 275 289 357 169 296 194 l 728 289 b 742 406 735 314 742 358 b 413 728 742 596 611 728 b 49 350 175 728 49 553 b 442 -28 49 146 185 -28 b 753 113 576 -28 686 25 z m 407 550 b 528 444 489 550 525 492 l 276 444 b 407 550 293 515 336 550 z "},"ě":{"ha":801,"x_min":0,"x_max":0,"o":"m 332 1042 l 142 1042 l 283 811 l 558 811 l 700 1042 l 510 1042 l 421 907 z m 753 113 l 597 236 b 440 169 565 196 507 169 b 275 289 357 169 296 194 l 728 289 b 742 406 735 314 742 358 b 413 728 742 596 611 728 b 49 350 175 728 49 553 b 442 -28 49 146 185 -28 b 753 113 576 -28 686 25 z m 407 550 b 528 444 489 550 525 492 l 276 444 b 407 550 293 515 336 550 z "},"ĕ":{"ha":801,"x_min":0,"x_max":0,"o":"m 421 956 b 329 1042 358 956 329 992 l 150 1042 b 421 811 150 894 256 811 b 689 1042 585 811 689 894 l 511 1042 b 421 956 511 992 482 956 z m 753 113 l 597 236 b 440 169 565 196 507 169 b 275 289 357 169 296 194 l 728 289 b 742 406 735 314 742 358 b 413 728 742 596 611 728 b 49 350 175 728 49 553 b 442 -28 49 146 185 -28 b 753 113 576 -28 686 25 z m 407 550 b 528 444 489 550 525 492 l 276 444 b 407 550 293 515 336 550 z "},"ẽ":{"ha":801,"x_min":0,"x_max":0,"o":"m 696 1042 l 539 1042 l 539 990 b 515 961 539 972 529 961 b 306 1051 469 961 431 1051 b 146 858 204 1051 146 983 l 146 811 l 303 811 l 303 861 b 326 892 303 881 313 892 b 536 801 372 892 411 801 b 696 996 638 801 696 871 z m 753 113 l 597 236 b 440 169 565 196 507 169 b 275 289 357 169 296 194 l 728 289 b 742 406 735 314 742 358 b 413 728 742 596 611 728 b 49 350 175 728 49 553 b 442 -28 49 146 185 -28 b 753 113 576 -28 686 25 z m 407 550 b 528 444 489 550 525 492 l 276 444 b 407 550 293 515 336 550 z "},"ë":{"ha":801,"x_min":0,"x_max":0,"o":"m 254 800 b 382 928 322 800 382 858 b 254 1056 382 996 322 1056 b 126 928 185 1056 126 996 b 254 800 126 858 185 800 z m 589 800 b 715 928 657 800 715 858 b 589 1056 715 996 657 1056 b 460 928 519 1056 460 996 b 589 800 460 858 519 800 z m 753 113 l 597 236 b 440 169 565 196 507 169 b 275 289 357 169 296 194 l 728 289 b 742 406 735 314 742 358 b 413 728 742 596 611 728 b 49 350 175 728 49 553 b 442 -28 49 146 185 -28 b 753 113 576 -28 686 25 z m 407 550 b 528 444 489 550 525 492 l 276 444 b 407 550 293 515 336 550 z "},"ē":{"ha":801,"x_min":0,"x_max":0,"o":"m 157 821 l 685 821 l 685 982 l 157 982 z m 753 113 l 597 236 b 440 169 565 196 507 169 b 275 289 357 169 296 194 l 728 289 b 742 406 735 314 742 358 b 413 728 742 596 611 728 b 49 350 175 728 49 553 b 442 -28 49 146 185 -28 b 753 113 576 -28 686 25 z m 407 550 b 528 444 489 550 525 492 l 276 444 b 407 550 293 515 336 550 z "},"ė":{"ha":801,"x_min":0,"x_max":0,"o":"m 421 776 b 560 917 496 776 560 842 b 421 1056 560 992 496 1056 b 281 917 344 1056 281 992 b 421 776 281 842 344 776 z m 753 113 l 597 236 b 440 169 565 196 507 169 b 275 289 357 169 296 194 l 728 289 b 742 406 735 314 742 358 b 413 728 742 596 611 728 b 49 350 175 728 49 553 b 442 -28 49 146 185 -28 b 753 113 576 -28 686 25 z m 407 550 b 528 444 489 550 525 492 l 276 444 b 407 550 293 515 336 550 z "},"ẹ":{"ha":801,"x_min":0,"x_max":0,"o":"m 753 113 l 597 236 b 440 169 565 196 507 169 b 275 289 357 169 296 194 l 728 289 b 742 406 735 314 742 358 b 413 728 742 596 611 728 b 49 350 175 728 49 553 b 442 -28 49 146 185 -28 b 753 113 576 -28 686 25 z m 407 550 b 528 444 489 550 525 492 l 276 444 b 407 550 293 515 336 550 z m 415 -356 b 554 -215 490 -356 554 -290 b 415 -76 554 -140 490 -76 b 275 -215 339 -76 275 -140 b 415 -356 275 -290 339 -356 z "},"ę":{"ha":801,"x_min":0,"x_max":0,"o":"m 249 -172 b 468 -342 249 -253 322 -342 b 597 -321 526 -342 564 -335 l 597 -179 b 504 -196 579 -187 549 -196 b 424 -139 449 -196 424 -176 b 503 -56 424 -111 446 -87 l 593 -3 b 753 113 658 21 714 61 l 597 236 b 440 169 565 196 507 169 b 275 289 357 169 296 194 l 728 289 b 742 406 735 314 742 358 b 413 728 742 596 611 728 b 49 350 175 728 49 553 b 344 -18 49 174 150 19 b 249 -172 274 -54 249 -114 z m 407 550 b 528 444 489 550 525 492 l 276 444 b 407 550 293 515 336 550 z "},"ẻ":{"ha":801,"x_min":0,"x_max":0,"o":"m 388 767 b 626 957 535 789 626 850 b 439 1118 626 1057 547 1118 b 232 1046 354 1118 285 1090 l 318 938 b 421 981 346 961 382 981 b 469 953 454 981 469 968 b 357 897 469 921 432 910 z m 753 113 l 597 236 b 440 169 565 196 507 169 b 275 289 357 169 296 194 l 728 289 b 742 406 735 314 742 358 b 413 728 742 596 611 728 b 49 350 175 728 49 553 b 442 -28 49 146 185 -28 b 753 113 576 -28 686 25 z m 407 550 b 528 444 489 550 525 492 l 276 444 b 407 550 293 515 336 550 z "},"ế":{"ha":801,"x_min":0,"x_max":0,"o":"m 332 783 l 421 874 l 508 783 l 699 783 l 581 925 l 764 925 l 946 1113 l 710 1113 l 567 942 l 543 971 l 299 971 l 142 783 z m 753 113 l 597 236 b 440 169 565 196 507 169 b 275 289 357 169 296 194 l 728 289 b 742 406 735 314 742 358 b 413 728 742 596 611 728 b 49 350 175 728 49 553 b 442 -28 49 146 185 -28 b 753 113 576 -28 686 25 z m 407 550 b 528 444 489 550 525 492 l 276 444 b 407 550 293 515 336 550 z "},"ề":{"ha":801,"x_min":0,"x_max":0,"o":"m 633 925 l 844 925 l 688 1113 l 451 1113 z m 332 783 l 421 874 l 508 783 l 699 783 l 543 971 l 299 971 l 142 783 z m 753 113 l 597 236 b 440 169 565 196 507 169 b 275 289 357 169 296 194 l 728 289 b 742 406 735 314 742 358 b 413 728 742 596 611 728 b 49 350 175 728 49 553 b 442 -28 49 146 185 -28 b 753 113 576 -28 686 25 z m 407 550 b 528 444 489 550 525 492 l 276 444 b 407 550 293 515 336 550 z "},"ể":{"ha":801,"x_min":0,"x_max":0,"o":"m 671 881 b 857 1028 786 900 857 946 b 697 1156 857 1107 797 1156 b 528 1099 633 1156 568 1132 l 600 1008 b 692 1040 619 1024 657 1040 b 726 1022 719 1040 726 1032 b 644 990 726 1004 690 997 z m 332 783 l 421 874 l 508 783 l 699 783 l 543 971 l 299 971 l 142 783 z m 753 113 l 597 236 b 440 169 565 196 507 169 b 275 289 357 169 296 194 l 728 289 b 742 406 735 314 742 358 b 413 728 742 596 611 728 b 49 350 175 728 49 553 b 442 -28 49 146 185 -28 b 753 113 576 -28 686 25 z m 407 550 b 528 444 489 550 525 492 l 276 444 b 407 550 293 515 336 550 z "},"ễ":{"ha":801,"x_min":0,"x_max":0,"o":"m 146 1013 l 303 1013 l 303 1040 b 318 1063 303 1060 310 1063 b 531 999 349 1063 439 999 b 696 1164 621 999 696 1050 l 696 1200 l 539 1200 l 539 1172 b 524 1150 539 1154 532 1150 b 313 1214 496 1150 400 1214 b 146 1049 221 1214 146 1160 z m 332 783 l 421 874 l 508 783 l 699 783 l 543 971 l 299 971 l 142 783 z m 753 113 l 597 236 b 440 169 565 196 507 169 b 275 289 357 169 296 194 l 728 289 b 742 406 735 314 742 358 b 413 728 742 596 611 728 b 49 350 175 728 49 553 b 442 -28 49 146 185 -28 b 753 113 576 -28 686 25 z m 407 550 b 528 444 489 550 525 492 l 276 444 b 407 550 293 515 336 550 z "},"ệ":{"ha":801,"x_min":0,"x_max":0,"o":"m 332 811 l 421 946 l 510 811 l 700 811 l 558 1042 l 283 1042 l 142 811 z m 753 113 l 597 236 b 440 169 565 196 507 169 b 275 289 357 169 296 194 l 728 289 b 742 406 735 314 742 358 b 413 728 742 596 611 728 b 49 350 175 728 49 553 b 442 -28 49 146 185 -28 b 753 113 576 -28 686 25 z m 407 550 b 528 444 489 550 525 492 l 276 444 b 407 550 293 515 336 550 z m 415 -356 b 554 -215 490 -356 554 -290 b 415 -76 554 -140 490 -76 b 275 -215 339 -76 275 -140 b 415 -356 275 -290 339 -356 z "},"ɛ":{"ha":744,"x_min":0,"x_max":0,"o":"m 386 169 b 274 225 314 169 274 192 b 340 272 274 256 300 272 l 514 272 l 514 444 l 350 444 b 303 483 324 444 303 456 b 392 531 303 517 338 531 b 551 465 451 531 507 508 l 703 593 b 374 728 636 679 515 728 b 78 511 181 728 78 644 b 160 363 78 447 107 394 b 49 196 88 329 49 269 b 374 -28 49 60 161 -28 b 726 136 526 -28 647 35 l 571 260 b 386 169 529 208 461 169 z "},"f":{"ha":582,"x_min":0,"x_max":0,"o":"m 8 700 l 8 503 l 139 503 l 139 0 l 361 0 l 361 503 l 553 503 l 553 700 l 361 700 l 361 771 b 435 844 361 814 389 844 b 507 819 467 844 492 832 l 600 1004 b 431 1042 550 1028 494 1042 b 139 764 239 1042 139 913 l 139 700 z "},"g":{"ha":778,"x_min":0,"x_max":0,"o":"m 31 -119 b 396 -347 31 -272 160 -347 b 768 -58 619 -347 768 -219 b 496 175 768 75 665 175 l 336 175 b 299 208 314 175 299 183 b 311 236 299 218 303 228 b 350 235 324 235 336 235 b 640 482 538 235 640 342 b 639 515 640 493 640 504 l 749 515 l 749 700 l 497 700 b 350 728 457 718 407 728 b 63 482 167 728 63 621 b 156 290 63 404 94 336 b 83 149 103 250 83 206 b 122 47 83 114 97 78 b 31 -119 64 4 31 -51 z m 351 396 b 260 482 297 396 260 425 b 351 567 260 538 297 567 b 444 482 406 567 444 539 b 351 396 444 425 406 396 z m 236 -86 b 264 -12 236 -53 249 -31 l 468 -12 b 551 -82 524 -12 551 -40 b 393 -174 551 -135 506 -174 b 236 -86 282 -174 236 -140 z "},"ĝ":{"ha":778,"x_min":0,"x_max":0,"o":"m 289 811 l 378 946 l 467 811 l 657 811 l 515 1042 l 240 1042 l 99 811 z m 31 -119 b 396 -347 31 -272 160 -347 b 768 -58 619 -347 768 -219 b 496 175 768 75 665 175 l 336 175 b 299 208 314 175 299 183 b 311 236 299 218 303 228 b 350 235 324 235 336 235 b 640 482 538 235 640 342 b 639 515 640 493 640 504 l 749 515 l 749 700 l 497 700 b 350 728 457 718 407 728 b 63 482 167 728 63 621 b 156 290 63 404 94 336 b 83 149 103 250 83 206 b 122 47 83 114 97 78 b 31 -119 64 4 31 -51 z m 351 396 b 260 482 297 396 260 425 b 351 567 260 538 297 567 b 444 482 406 567 444 539 b 351 396 444 425 406 396 z m 236 -86 b 264 -12 236 -53 249 -31 l 468 -12 b 551 -82 524 -12 551 -40 b 393 -174 551 -135 506 -174 b 236 -86 282 -174 236 -140 z "},"ǧ":{"ha":778,"x_min":0,"x_max":0,"o":"m 289 1042 l 99 1042 l 240 811 l 515 811 l 657 1042 l 467 1042 l 378 907 z m 31 -119 b 396 -347 31 -272 160 -347 b 768 -58 619 -347 768 -219 b 496 175 768 75 665 175 l 336 175 b 299 208 314 175 299 183 b 311 236 299 218 303 228 b 350 235 324 235 336 235 b 640 482 538 235 640 342 b 639 515 640 493 640 504 l 749 515 l 749 700 l 497 700 b 350 728 457 718 407 728 b 63 482 167 728 63 621 b 156 290 63 404 94 336 b 83 149 103 250 83 206 b 122 47 83 114 97 78 b 31 -119 64 4 31 -51 z m 351 396 b 260 482 297 396 260 425 b 351 567 260 538 297 567 b 444 482 406 567 444 539 b 351 396 444 425 406 396 z m 236 -86 b 264 -12 236 -53 249 -31 l 468 -12 b 551 -82 524 -12 551 -40 b 393 -174 551 -135 506 -174 b 236 -86 282 -174 236 -140 z "},"ğ":{"ha":778,"x_min":0,"x_max":0,"o":"m 378 956 b 286 1042 315 956 286 992 l 107 1042 b 378 811 107 894 213 811 b 646 1042 542 811 646 894 l 468 1042 b 378 956 468 992 439 956 z m 31 -119 b 396 -347 31 -272 160 -347 b 768 -58 619 -347 768 -219 b 496 175 768 75 665 175 l 336 175 b 299 208 314 175 299 183 b 311 236 299 218 303 228 b 350 235 324 235 336 235 b 640 482 538 235 640 342 b 639 515 640 493 640 504 l 749 515 l 749 700 l 497 700 b 350 728 457 718 407 728 b 63 482 167 728 63 621 b 156 290 63 404 94 336 b 83 149 103 250 83 206 b 122 47 83 114 97 78 b 31 -119 64 4 31 -51 z m 351 396 b 260 482 297 396 260 425 b 351 567 260 538 297 567 b 444 482 406 567 444 539 b 351 396 444 425 406 396 z m 236 -86 b 264 -12 236 -53 249 -31 l 468 -12 b 551 -82 524 -12 551 -40 b 393 -174 551 -135 506 -174 b 236 -86 282 -174 236 -140 z "},"ġ":{"ha":778,"x_min":0,"x_max":0,"o":"m 378 776 b 517 917 453 776 517 842 b 378 1056 517 992 453 1056 b 238 917 301 1056 238 992 b 378 776 238 842 301 776 z m 31 -119 b 396 -347 31 -272 160 -347 b 768 -58 619 -347 768 -219 b 496 175 768 75 665 175 l 336 175 b 299 208 314 175 299 183 b 311 236 299 218 303 228 b 350 235 324 235 336 235 b 640 482 538 235 640 342 b 639 515 640 493 640 504 l 749 515 l 749 700 l 497 700 b 350 728 457 718 407 728 b 63 482 167 728 63 621 b 156 290 63 404 94 336 b 83 149 103 250 83 206 b 122 47 83 114 97 78 b 31 -119 64 4 31 -51 z m 351 396 b 260 482 297 396 260 425 b 351 567 260 538 297 567 b 444 482 406 567 444 539 b 351 396 444 425 406 396 z m 236 -86 b 264 -12 236 -53 249 -31 l 468 -12 b 551 -82 524 -12 551 -40 b 393 -174 551 -135 506 -174 b 236 -86 282 -174 236 -140 z "},"ḡ":{"ha":778,"x_min":0,"x_max":0,"o":"m 114 821 l 642 821 l 642 982 l 114 982 z m 31 -119 b 396 -347 31 -272 160 -347 b 768 -58 619 -347 768 -219 b 496 175 768 75 665 175 l 336 175 b 299 208 314 175 299 183 b 311 236 299 218 303 228 b 350 235 324 235 336 235 b 640 482 538 235 640 342 b 639 515 640 493 640 504 l 749 515 l 749 700 l 497 700 b 350 728 457 718 407 728 b 63 482 167 728 63 621 b 156 290 63 404 94 336 b 83 149 103 250 83 206 b 122 47 83 114 97 78 b 31 -119 64 4 31 -51 z m 351 396 b 260 482 297 396 260 425 b 351 567 260 538 297 567 b 444 482 406 567 444 539 b 351 396 444 425 406 396 z m 236 -86 b 264 -12 236 -53 249 -31 l 468 -12 b 551 -82 524 -12 551 -40 b 393 -174 551 -135 506 -174 b 236 -86 282 -174 236 -140 z "},"ģ":{"ha":778,"x_min":0,"x_max":0,"o":"m 453 1042 l 283 811 l 519 811 l 663 1042 z m 31 -119 b 396 -347 31 -272 160 -347 b 768 -58 619 -347 768 -219 b 496 175 768 75 665 175 l 336 175 b 299 208 314 175 299 183 b 311 236 299 218 303 228 b 350 235 324 235 336 235 b 640 482 538 235 640 342 b 639 515 640 493 640 504 l 749 515 l 749 700 l 497 700 b 350 728 457 718 407 728 b 63 482 167 728 63 621 b 156 290 63 404 94 336 b 83 149 103 250 83 206 b 122 47 83 114 97 78 b 31 -119 64 4 31 -51 z m 351 396 b 260 482 297 396 260 425 b 351 567 260 538 297 567 b 444 482 406 567 444 539 b 351 396 444 425 406 396 z m 236 -86 b 264 -12 236 -53 249 -31 l 468 -12 b 551 -82 524 -12 551 -40 b 393 -174 551 -135 506 -174 b 236 -86 282 -174 236 -140 z "},"ɣ":{"ha":808,"x_min":0,"x_max":0,"o":"m 676 -119 b 600 103 676 -36 651 17 l 524 231 l 808 700 l 563 700 l 404 433 l 246 700 l 0 700 l 283 232 l 207 103 b 131 -119 156 17 131 -36 b 404 -349 133 -253 249 -349 b 676 -119 560 -349 675 -253 z m 404 -174 b 353 -108 371 -174 353 -146 b 404 31 353 -72 378 -17 b 456 -108 431 -15 456 -72 b 404 -174 456 -146 436 -174 z "},"h":{"ha":851,"x_min":0,"x_max":0,"o":"m 90 0 l 311 0 l 311 436 b 438 521 325 460 360 521 b 546 401 508 521 546 472 l 546 0 l 768 0 l 768 411 b 497 728 768 624 646 728 b 311 661 415 728 357 700 l 311 1042 l 90 1042 z "},"ĥ":{"ha":851,"x_min":0,"x_max":0,"o":"m 333 1125 l 422 1215 l 510 1125 l 700 1125 l 544 1313 l 300 1313 l 143 1125 z m 90 0 l 311 0 l 311 436 b 438 521 325 460 360 521 b 546 401 508 521 546 472 l 546 0 l 768 0 l 768 411 b 497 728 768 624 646 728 b 311 661 415 728 357 700 l 311 1042 l 90 1042 z "},"ħ":{"ha":851,"x_min":0,"x_max":0,"o":"m 90 0 l 311 0 l 311 436 b 438 521 325 460 360 521 b 546 401 508 521 546 472 l 546 0 l 768 0 l 768 411 b 497 728 768 624 646 728 b 311 661 415 728 357 700 l 311 778 l 542 778 l 542 939 l 311 939 l 311 1042 l 90 1042 l 90 939 l 0 939 l 0 778 l 90 778 z "},"ḥ":{"ha":851,"x_min":0,"x_max":0,"o":"m 90 0 l 311 0 l 311 436 b 438 521 325 460 360 521 b 546 401 508 521 546 472 l 546 0 l 768 0 l 768 411 b 497 728 768 624 646 728 b 311 661 415 728 357 700 l 311 1042 l 90 1042 z m 425 -356 b 564 -215 500 -356 564 -290 b 425 -76 564 -140 500 -76 b 285 -215 349 -76 285 -140 b 425 -356 285 -290 349 -356 z "},"ḫ":{"ha":851,"x_min":0,"x_max":0,"o":"m 90 0 l 311 0 l 311 436 b 438 521 325 460 360 521 b 546 401 508 521 546 472 l 546 0 l 768 0 l 768 411 b 497 728 768 624 646 728 b 311 661 415 728 357 700 l 311 1042 l 90 1042 z m 425 -197 b 333 -111 363 -197 333 -161 l 154 -111 b 425 -342 154 -258 260 -342 b 693 -111 589 -342 693 -258 l 515 -111 b 425 -197 515 -161 486 -197 z "},"ẖ":{"ha":851,"x_min":0,"x_max":0,"o":"m 90 0 l 311 0 l 311 436 b 438 521 325 460 360 521 b 546 401 508 521 546 472 l 546 0 l 768 0 l 768 411 b 497 728 768 624 646 728 b 311 661 415 728 357 700 l 311 1042 l 90 1042 z m 161 -318 l 689 -318 l 689 -157 l 161 -157 z "},"ḩ":{"ha":851,"x_min":0,"x_max":0,"o":"m 90 0 l 311 0 l 311 436 b 438 521 325 460 360 521 b 546 401 508 521 546 472 l 546 0 l 768 0 l 768 411 b 497 728 768 624 646 728 b 311 661 415 728 357 700 l 311 1042 l 90 1042 z m 386 -342 l 556 -111 l 319 -111 l 176 -342 z "},"i":{"ha":401,"x_min":0,"x_max":0,"o":"m 203 776 b 340 917 276 776 340 842 b 203 1056 340 992 276 1056 b 63 917 126 1056 63 992 b 203 776 63 842 126 776 z m 90 0 l 311 0 l 311 700 l 90 700 z "},"ı":{"ha":401,"x_min":0,"x_max":0,"o":"m 90 0 l 311 0 l 311 700 l 90 700 z "},"ì":{"ha":401,"x_min":0,"x_max":0,"o":"m 88 811 l 296 811 l 154 1042 l -82 1042 z m 90 0 l 311 0 l 311 700 l 90 700 z "},"í":{"ha":401,"x_min":0,"x_max":0,"o":"m 317 811 l 486 1042 l 250 1042 l 107 811 z m 90 0 l 311 0 l 311 700 l 90 700 z "},"î":{"ha":401,"x_min":0,"x_max":0,"o":"m 113 811 l 201 946 l 290 811 l 481 811 l 339 1042 l 64 1042 l -78 811 z m 90 0 l 311 0 l 311 700 l 90 700 z "},"ǐ":{"ha":401,"x_min":0,"x_max":0,"o":"m 113 1042 l -78 1042 l 64 811 l 339 811 l 481 1042 l 290 1042 l 201 907 z m 90 0 l 311 0 l 311 700 l 90 700 z "},"ĩ":{"ha":401,"x_min":0,"x_max":0,"o":"m 476 1042 l 319 1042 l 319 990 b 296 961 319 972 310 961 b 86 1051 250 961 211 1051 b -74 858 -15 1051 -74 983 l -74 811 l 83 811 l 83 861 b 107 892 83 881 93 892 b 317 801 153 892 192 801 b 476 996 418 801 476 871 z m 90 0 l 311 0 l 311 700 l 90 700 z "},"ï":{"ha":401,"x_min":0,"x_max":0,"o":"m 35 800 b 163 928 103 800 163 858 b 35 1056 163 996 103 1056 b -93 928 -35 1056 -93 996 b 35 800 -93 858 -35 800 z m 369 800 b 496 928 438 800 496 858 b 369 1056 496 996 438 1056 b 240 928 300 1056 240 996 b 369 800 240 858 300 800 z m 90 0 l 311 0 l 311 700 l 90 700 z "},"ī":{"ha":401,"x_min":0,"x_max":0,"o":"m -62 821 l 465 821 l 465 982 l -62 982 z m 90 0 l 311 0 l 311 700 l 90 700 z "},"ĭ":{"ha":401,"x_min":0,"x_max":0,"o":"m 201 956 b 110 1042 139 956 110 992 l -69 1042 b 201 811 -69 894 36 811 b 469 1042 365 811 469 894 l 292 1042 b 201 956 292 992 263 956 z m 90 0 l 311 0 l 311 700 l 90 700 z "},"ị":{"ha":401,"x_min":0,"x_max":0,"o":"m 203 776 b 340 917 276 776 340 842 b 203 1056 340 992 276 1056 b 63 917 126 1056 63 992 b 203 776 63 842 126 776 z m 90 0 l 311 0 l 311 700 l 90 700 z m 200 -356 b 339 -215 275 -356 339 -290 b 200 -76 339 -140 275 -76 b 60 -215 124 -76 60 -140 b 200 -356 60 -290 124 -356 z "},"į":{"ha":401,"x_min":0,"x_max":0,"o":"m 203 776 b 340 917 276 776 340 842 b 203 1056 340 992 276 1056 b 63 917 126 1056 63 992 b 203 776 63 842 126 776 z m 90 0 l 93 0 l 64 -15 b -37 -172 -12 -54 -37 -114 b 182 -342 -37 -253 36 -342 b 311 -321 240 -342 278 -335 l 311 -179 b 218 -196 293 -187 263 -196 b 138 -139 163 -196 138 -176 b 217 -56 138 -111 160 -87 l 311 0 l 311 700 l 90 700 z "},"ỉ":{"ha":401,"x_min":0,"x_max":0,"o":"m 168 767 b 407 957 315 789 407 850 b 219 1118 407 1057 328 1118 b 13 1046 135 1118 65 1090 l 99 938 b 201 981 126 961 163 981 b 250 953 235 981 250 968 b 138 897 250 921 213 910 z m 90 0 l 311 0 l 311 700 l 90 700 z "},"j":{"ha":401,"x_min":0,"x_max":0,"o":"m 197 776 b 336 917 272 776 336 842 b 197 1056 336 992 272 1056 b 58 917 122 1056 58 992 b 197 776 58 842 122 776 z m 311 -64 l 311 700 l 90 700 l 90 -64 b 3 -147 90 -117 61 -147 b -103 -132 -49 -147 -82 -140 l -103 -322 b 42 -347 -67 -339 -24 -347 b 311 -64 233 -347 311 -235 z "},"ȷ":{"ha":401,"x_min":0,"x_max":0,"o":"m 311 -64 l 311 700 l 90 700 l 90 -64 b 3 -147 90 -117 61 -147 b -103 -132 -49 -147 -82 -140 l -103 -322 b 42 -347 -67 -339 -24 -347 b 311 -64 233 -347 311 -235 z "},"ĵ":{"ha":401,"x_min":0,"x_max":0,"o":"m 111 811 l 200 946 l 289 811 l 479 811 l 338 1042 l 63 1042 l -79 811 z m 311 -64 l 311 700 l 90 700 l 90 -64 b 3 -147 90 -117 61 -147 b -103 -132 -49 -147 -82 -140 l -103 -322 b 42 -347 -67 -339 -24 -347 b 311 -64 233 -347 311 -235 z "},"ĳ":{"ha":803,"x_min":0,"x_max":0,"o":"m 203 776 b 340 917 276 776 340 842 b 203 1056 340 992 276 1056 b 63 917 126 1056 63 992 b 203 776 63 842 126 776 z m 599 776 b 738 917 674 776 738 842 b 599 1056 738 992 674 1056 b 460 917 524 1056 460 992 b 599 776 460 842 524 776 z m 90 0 l 311 0 l 311 700 l 90 700 z m 713 -64 l 713 700 l 492 700 l 492 -64 b 404 -147 492 -117 463 -147 b 299 -132 353 -147 319 -140 l 299 -322 b 443 -347 335 -339 378 -347 b 713 -64 635 -347 713 -235 z "},"k":{"ha":786,"x_min":0,"x_max":0,"o":"m 94 0 l 317 0 l 317 197 l 354 236 l 515 0 l 785 0 l 508 400 l 793 700 l 519 700 l 317 481 l 317 1042 l 94 1042 z "},"ḳ":{"ha":786,"x_min":0,"x_max":0,"o":"m 94 0 l 317 0 l 317 197 l 354 236 l 515 0 l 785 0 l 508 400 l 793 700 l 519 700 l 317 481 l 317 1042 l 94 1042 z m 421 -356 b 560 -215 496 -356 560 -290 b 421 -76 560 -140 496 -76 b 281 -215 344 -76 281 -140 b 421 -356 281 -290 344 -356 z "},"ḵ":{"ha":786,"x_min":0,"x_max":0,"o":"m 94 0 l 317 0 l 317 197 l 354 236 l 515 0 l 785 0 l 508 400 l 793 700 l 519 700 l 317 481 l 317 1042 l 94 1042 z m 157 -318 l 685 -318 l 685 -157 l 157 -157 z "},"ķ":{"ha":786,"x_min":0,"x_max":0,"o":"m 94 0 l 317 0 l 317 197 l 354 236 l 515 0 l 785 0 l 508 400 l 793 700 l 519 700 l 317 481 l 317 1042 l 94 1042 z m 382 -342 l 551 -111 l 315 -111 l 172 -342 z "},"ĸ":{"ha":786,"x_min":0,"x_max":0,"o":"m 94 0 l 317 0 l 317 197 l 354 236 l 515 0 l 785 0 l 508 400 l 793 700 l 519 700 l 317 481 l 317 700 l 94 700 z "},"l":{"ha":401,"x_min":0,"x_max":0,"o":"m 90 0 l 311 0 l 311 1042 l 90 1042 z "},"ĺ":{"ha":401,"x_min":0,"x_max":0,"o":"m 313 1125 l 494 1313 l 244 1313 l 88 1125 z m 90 0 l 311 0 l 311 1042 l 90 1042 z "},"ľ":{"ha":401,"x_min":0,"x_max":0,"o":"m 90 0 l 311 0 l 311 1042 l 90 1042 z m 514 783 l 671 1042 l 449 1042 l 335 783 z "},"ļ":{"ha":401,"x_min":0,"x_max":0,"o":"m 90 0 l 311 0 l 311 1042 l 90 1042 z m 163 -342 l 332 -111 l 96 -111 l -47 -342 z "},"ł":{"ha":401,"x_min":0,"x_max":0,"o":"m 90 0 l 311 0 l 311 475 l 401 524 l 401 700 l 311 651 l 311 1042 l 90 1042 l 90 531 l 0 482 l 0 306 l 90 354 z "},"ŀ":{"ha":708,"x_min":0,"x_max":0,"o":"m 90 0 l 311 0 l 311 1042 l 90 1042 z m 554 206 b 700 351 632 206 700 272 b 554 496 700 429 632 496 b 407 351 474 496 407 429 b 554 206 407 272 474 206 z "},"m":{"ha":1250,"x_min":0,"x_max":0,"o":"m 90 0 l 311 0 l 311 436 b 424 521 326 460 354 521 b 518 415 486 521 518 478 l 518 0 l 740 0 l 740 425 b 740 442 740 431 740 436 b 850 521 751 460 779 521 b 944 415 913 521 944 478 l 944 0 l 1167 0 l 1167 425 b 910 728 1167 628 1050 728 b 685 626 794 728 731 681 b 483 728 638 694 565 728 b 311 664 408 728 353 700 l 311 700 l 90 700 z "},"ṃ":{"ha":1250,"x_min":0,"x_max":0,"o":"m 90 0 l 311 0 l 311 436 b 424 521 326 460 354 521 b 518 415 486 521 518 478 l 518 0 l 740 0 l 740 425 b 740 442 740 431 740 436 b 850 521 751 460 779 521 b 944 415 913 521 944 478 l 944 0 l 1167 0 l 1167 425 b 910 728 1167 628 1050 728 b 685 626 794 728 731 681 b 483 728 638 694 565 728 b 311 664 408 728 353 700 l 311 700 l 90 700 z m 625 -356 b 764 -215 700 -356 764 -290 b 625 -76 764 -140 700 -76 b 485 -215 549 -76 485 -140 b 625 -356 485 -290 549 -356 z "},"n":{"ha":851,"x_min":0,"x_max":0,"o":"m 90 0 l 311 0 l 311 436 b 438 521 325 460 360 521 b 546 401 508 521 546 472 l 546 0 l 768 0 l 768 411 b 497 728 768 624 646 728 b 311 661 415 728 357 700 l 311 700 l 90 700 z "},"ń":{"ha":851,"x_min":0,"x_max":0,"o":"m 563 811 l 732 1042 l 496 1042 l 353 811 z m 90 0 l 311 0 l 311 436 b 438 521 325 460 360 521 b 546 401 508 521 546 472 l 546 0 l 768 0 l 768 411 b 497 728 768 624 646 728 b 311 661 415 728 357 700 l 311 700 l 90 700 z "},"ň":{"ha":851,"x_min":0,"x_max":0,"o":"m 358 1042 l 168 1042 l 310 811 l 585 811 l 726 1042 l 536 1042 l 447 907 z m 90 0 l 311 0 l 311 436 b 438 521 325 460 360 521 b 546 401 508 521 546 472 l 546 0 l 768 0 l 768 411 b 497 728 768 624 646 728 b 311 661 415 728 357 700 l 311 700 l 90 700 z "},"ñ":{"ha":851,"x_min":0,"x_max":0,"o":"m 722 1042 l 565 1042 l 565 990 b 542 961 565 972 556 961 b 332 1051 496 961 457 1051 b 172 858 231 1051 172 983 l 172 811 l 329 811 l 329 861 b 353 892 329 881 339 892 b 563 801 399 892 438 801 b 722 996 664 801 722 871 z m 90 0 l 311 0 l 311 436 b 438 521 325 460 360 521 b 546 401 508 521 546 472 l 546 0 l 768 0 l 768 411 b 497 728 768 624 646 728 b 311 661 415 728 357 700 l 311 700 l 90 700 z "},"ņ":{"ha":851,"x_min":0,"x_max":0,"o":"m 90 0 l 311 0 l 311 436 b 438 521 325 460 360 521 b 546 401 508 521 546 472 l 546 0 l 768 0 l 768 411 b 497 728 768 624 646 728 b 311 661 415 728 357 700 l 311 700 l 90 700 z m 388 -342 l 557 -111 l 321 -111 l 178 -342 z "},"ŉ":{"ha":1226,"x_min":0,"x_max":0,"o":"m 201 553 l 376 972 l 129 972 l -3 553 z m 465 0 l 686 0 l 686 436 b 813 521 700 460 735 521 b 921 401 883 521 921 472 l 921 0 l 1143 0 l 1143 411 b 872 728 1143 624 1021 728 b 686 661 790 728 732 700 l 686 700 l 465 700 z "},"ɲ":{"ha":851,"x_min":0,"x_max":0,"o":"m 311 -64 l 311 436 b 438 521 325 460 360 521 b 546 401 508 521 546 472 l 546 0 l 768 0 l 768 411 b 497 728 768 624 646 728 b 311 661 415 728 357 700 l 311 700 l 90 700 l 90 -64 b 3 -147 90 -117 61 -147 b -103 -132 -49 -147 -82 -140 l -103 -322 b 42 -347 -67 -339 -24 -347 b 311 -64 233 -347 311 -235 z "},"ṇ":{"ha":851,"x_min":0,"x_max":0,"o":"m 90 0 l 311 0 l 311 436 b 438 521 325 460 360 521 b 546 401 508 521 546 472 l 546 0 l 768 0 l 768 411 b 497 728 768 624 646 728 b 311 661 415 728 357 700 l 311 700 l 90 700 z m 426 -356 b 565 -215 501 -356 565 -290 b 426 -76 565 -140 501 -76 b 286 -215 350 -76 286 -140 b 426 -356 286 -290 350 -356 z "},"ŋ":{"ha":851,"x_min":0,"x_max":0,"o":"m 546 401 l 546 -64 b 458 -147 546 -117 517 -147 b 353 -132 407 -147 374 -140 l 353 -322 b 499 -347 389 -339 432 -347 b 768 -64 689 -347 768 -235 l 768 411 b 497 728 768 624 646 728 b 311 661 415 728 357 700 l 311 700 l 90 700 l 90 0 l 311 0 l 311 436 b 438 521 325 460 360 521 b 546 401 508 521 546 472 z "},"o":{"ha":871,"x_min":0,"x_max":0,"o":"m 436 728 b 49 350 206 728 49 564 b 436 -28 49 136 206 -28 b 822 350 665 -28 822 136 b 436 728 822 564 665 728 z m 438 179 b 278 350 346 179 278 246 b 438 521 278 454 346 521 b 594 350 526 521 594 456 b 438 179 594 247 526 179 z "},"ò":{"ha":871,"x_min":0,"x_max":0,"o":"m 322 811 l 531 811 l 389 1042 l 153 1042 z m 436 728 b 49 350 206 728 49 564 b 436 -28 49 136 206 -28 b 822 350 665 -28 822 136 b 436 728 822 564 665 728 z m 438 179 b 278 350 346 179 278 246 b 438 521 278 454 346 521 b 594 350 526 521 594 456 b 438 179 594 247 526 179 z "},"ó":{"ha":871,"x_min":0,"x_max":0,"o":"m 551 811 l 721 1042 l 485 1042 l 342 811 z m 436 728 b 49 350 206 728 49 564 b 436 -28 49 136 206 -28 b 822 350 665 -28 822 136 b 436 728 822 564 665 728 z m 438 179 b 278 350 346 179 278 246 b 438 521 278 454 346 521 b 594 350 526 521 594 456 b 438 179 594 247 526 179 z "},"ô":{"ha":871,"x_min":0,"x_max":0,"o":"m 347 811 l 436 946 l 525 811 l 715 811 l 574 1042 l 299 1042 l 157 811 z m 436 728 b 49 350 206 728 49 564 b 436 -28 49 136 206 -28 b 822 350 665 -28 822 136 b 436 728 822 564 665 728 z m 438 179 b 278 350 346 179 278 246 b 438 521 278 454 346 521 b 594 350 526 521 594 456 b 438 179 594 247 526 179 z "},"ǒ":{"ha":871,"x_min":0,"x_max":0,"o":"m 347 1042 l 157 1042 l 299 811 l 574 811 l 715 1042 l 525 1042 l 436 907 z m 436 728 b 49 350 206 728 49 564 b 436 -28 49 136 206 -28 b 822 350 665 -28 822 136 b 436 728 822 564 665 728 z m 438 179 b 278 350 346 179 278 246 b 438 521 278 454 346 521 b 594 350 526 521 594 456 b 438 179 594 247 526 179 z "},"õ":{"ha":871,"x_min":0,"x_max":0,"o":"m 711 1042 l 554 1042 l 554 990 b 531 961 554 972 544 961 b 321 1051 485 961 446 1051 b 161 858 219 1051 161 983 l 161 811 l 318 811 l 318 861 b 342 892 318 881 328 892 b 551 801 388 892 426 801 b 711 996 653 801 711 871 z m 436 728 b 49 350 206 728 49 564 b 436 -28 49 136 206 -28 b 822 350 665 -28 822 136 b 436 728 822 564 665 728 z m 438 179 b 278 350 346 179 278 246 b 438 521 278 454 346 521 b 594 350 526 521 594 456 b 438 179 594 247 526 179 z "},"ö":{"ha":871,"x_min":0,"x_max":0,"o":"m 269 800 b 397 928 338 800 397 858 b 269 1056 397 996 338 1056 b 142 928 200 1056 142 996 b 269 800 142 858 200 800 z m 604 800 b 731 928 672 800 731 858 b 604 1056 731 996 672 1056 b 475 928 535 1056 475 996 b 604 800 475 858 535 800 z m 436 728 b 49 350 206 728 49 564 b 436 -28 49 136 206 -28 b 822 350 665 -28 822 136 b 436 728 822 564 665 728 z m 438 179 b 278 350 346 179 278 246 b 438 521 278 454 346 521 b 594 350 526 521 594 456 b 438 179 594 247 526 179 z "},"ō":{"ha":871,"x_min":0,"x_max":0,"o":"m 172 821 l 700 821 l 700 982 l 172 982 z m 436 728 b 49 350 206 728 49 564 b 436 -28 49 136 206 -28 b 822 350 665 -28 822 136 b 436 728 822 564 665 728 z m 438 179 b 278 350 346 179 278 246 b 438 521 278 454 346 521 b 594 350 526 521 594 456 b 438 179 594 247 526 179 z "},"ŏ":{"ha":871,"x_min":0,"x_max":0,"o":"m 436 956 b 344 1042 374 956 344 992 l 165 1042 b 436 811 165 894 271 811 b 704 1042 600 811 704 894 l 526 1042 b 436 956 526 992 497 956 z m 436 728 b 49 350 206 728 49 564 b 436 -28 49 136 206 -28 b 822 350 665 -28 822 136 b 436 728 822 564 665 728 z m 438 179 b 278 350 346 179 278 246 b 438 521 278 454 346 521 b 594 350 526 521 594 456 b 438 179 594 247 526 179 z "},"ő":{"ha":871,"x_min":0,"x_max":0,"o":"m 396 811 l 565 1042 l 329 1042 l 186 811 z m 679 811 l 849 1042 l 613 1042 l 471 811 z m 436 728 b 49 350 206 728 49 564 b 436 -28 49 136 206 -28 b 822 350 665 -28 822 136 b 436 728 822 564 665 728 z m 438 179 b 278 350 346 179 278 246 b 438 521 278 454 346 521 b 594 350 526 521 594 456 b 438 179 594 247 526 179 z "},"ọ":{"ha":871,"x_min":0,"x_max":0,"o":"m 436 728 b 49 350 206 728 49 564 b 436 -28 49 136 206 -28 b 822 350 665 -28 822 136 b 436 728 822 564 665 728 z m 438 179 b 278 350 346 179 278 246 b 438 521 278 454 346 521 b 594 350 526 521 594 456 b 438 179 594 247 526 179 z m 436 -356 b 575 -215 511 -356 575 -290 b 436 -76 575 -140 511 -76 b 296 -215 360 -76 296 -140 b 436 -356 296 -290 360 -356 z "},"ơ":{"ha":871,"x_min":0,"x_max":0,"o":"m 436 728 b 49 350 206 728 49 564 b 436 -28 49 136 206 -28 b 822 350 665 -28 822 136 b 738 594 822 444 792 529 b 864 769 808 622 864 678 b 771 950 864 839 826 907 l 653 846 b 700 769 683 825 700 801 b 614 700 700 725 671 700 l 590 700 b 436 728 544 718 492 728 z m 438 179 b 278 350 346 179 278 246 b 438 521 278 454 346 521 b 594 350 526 521 594 456 b 438 179 594 247 526 179 z "},"ỏ":{"ha":871,"x_min":0,"x_max":0,"o":"m 403 767 b 642 957 550 789 642 850 b 454 1118 642 1057 563 1118 b 247 1046 369 1118 300 1090 l 333 938 b 436 981 361 961 397 981 b 485 953 469 981 485 968 b 372 897 485 921 447 910 z m 436 728 b 49 350 206 728 49 564 b 436 -28 49 136 206 -28 b 822 350 665 -28 822 136 b 436 728 822 564 665 728 z m 438 179 b 278 350 346 179 278 246 b 438 521 278 454 346 521 b 594 350 526 521 594 456 b 438 179 594 247 526 179 z "},"ố":{"ha":871,"x_min":0,"x_max":0,"o":"m 347 783 l 436 874 l 524 783 l 714 783 l 596 925 l 779 925 l 961 1113 l 725 1113 l 582 942 l 558 971 l 314 971 l 157 783 z m 436 728 b 49 350 206 728 49 564 b 436 -28 49 136 206 -28 b 822 350 665 -28 822 136 b 436 728 822 564 665 728 z m 438 179 b 278 350 346 179 278 246 b 438 521 278 454 346 521 b 594 350 526 521 594 456 b 438 179 594 247 526 179 z "},"ồ":{"ha":871,"x_min":0,"x_max":0,"o":"m 649 925 l 860 925 l 703 1113 l 467 1113 z m 347 783 l 436 874 l 524 783 l 714 783 l 558 971 l 314 971 l 157 783 z m 436 728 b 49 350 206 728 49 564 b 436 -28 49 136 206 -28 b 822 350 665 -28 822 136 b 436 728 822 564 665 728 z m 438 179 b 278 350 346 179 278 246 b 438 521 278 454 346 521 b 594 350 526 521 594 456 b 438 179 594 247 526 179 z "},"ổ":{"ha":871,"x_min":0,"x_max":0,"o":"m 686 881 b 872 1028 801 900 872 946 b 713 1156 872 1107 813 1156 b 543 1099 649 1156 583 1132 l 615 1008 b 707 1040 635 1024 672 1040 b 742 1022 735 1040 742 1032 b 660 990 742 1004 706 997 z m 347 783 l 436 874 l 524 783 l 714 783 l 558 971 l 314 971 l 157 783 z m 436 728 b 49 350 206 728 49 564 b 436 -28 49 136 206 -28 b 822 350 665 -28 822 136 b 436 728 822 564 665 728 z m 438 179 b 278 350 346 179 278 246 b 438 521 278 454 346 521 b 594 350 526 521 594 456 b 438 179 594 247 526 179 z "},"ỗ":{"ha":871,"x_min":0,"x_max":0,"o":"m 161 1013 l 318 1013 l 318 1040 b 333 1063 318 1060 325 1063 b 546 999 364 1063 454 999 b 711 1164 636 999 711 1050 l 711 1200 l 554 1200 l 554 1172 b 539 1150 554 1154 547 1150 b 328 1214 511 1150 415 1214 b 161 1049 236 1214 161 1160 z m 347 783 l 436 874 l 524 783 l 714 783 l 558 971 l 314 971 l 157 783 z m 436 728 b 49 350 206 728 49 564 b 436 -28 49 136 206 -28 b 822 350 665 -28 822 136 b 436 728 822 564 665 728 z m 438 179 b 278 350 346 179 278 246 b 438 521 278 454 346 521 b 594 350 526 521 594 456 b 438 179 594 247 526 179 z "},"ộ":{"ha":871,"x_min":0,"x_max":0,"o":"m 347 811 l 436 946 l 525 811 l 715 811 l 574 1042 l 299 1042 l 157 811 z m 436 728 b 49 350 206 728 49 564 b 436 -28 49 136 206 -28 b 822 350 665 -28 822 136 b 436 728 822 564 665 728 z m 438 179 b 278 350 346 179 278 246 b 438 521 278 454 346 521 b 594 350 526 521 594 456 b 438 179 594 247 526 179 z m 436 -356 b 575 -215 511 -356 575 -290 b 436 -76 575 -140 511 -76 b 296 -215 360 -76 296 -140 b 436 -356 296 -290 360 -356 z "},"ớ":{"ha":871,"x_min":0,"x_max":0,"o":"m 551 811 l 721 1042 l 485 1042 l 342 811 z m 436 728 b 49 350 206 728 49 564 b 436 -28 49 136 206 -28 b 822 350 665 -28 822 136 b 738 594 822 444 792 529 b 864 769 808 622 864 678 b 771 950 864 839 826 907 l 653 846 b 700 769 683 825 700 801 b 614 700 700 725 671 700 l 590 700 b 436 728 544 718 492 728 z m 438 179 b 278 350 346 179 278 246 b 438 521 278 454 346 521 b 594 350 526 521 594 456 b 438 179 594 247 526 179 z "},"ờ":{"ha":871,"x_min":0,"x_max":0,"o":"m 322 811 l 531 811 l 389 1042 l 153 1042 z m 436 728 b 49 350 206 728 49 564 b 436 -28 49 136 206 -28 b 822 350 665 -28 822 136 b 738 594 822 444 792 529 b 864 769 808 622 864 678 b 771 950 864 839 826 907 l 653 846 b 700 769 683 825 700 801 b 614 700 700 725 671 700 l 590 700 b 436 728 544 718 492 728 z m 438 179 b 278 350 346 179 278 246 b 438 521 278 454 346 521 b 594 350 526 521 594 456 b 438 179 594 247 526 179 z "},"ở":{"ha":871,"x_min":0,"x_max":0,"o":"m 403 767 b 642 957 550 789 642 850 b 454 1118 642 1057 563 1118 b 247 1046 369 1118 300 1090 l 333 938 b 436 981 361 961 397 981 b 485 953 469 981 485 968 b 372 897 485 921 447 910 z m 436 728 b 49 350 206 728 49 564 b 436 -28 49 136 206 -28 b 822 350 665 -28 822 136 b 738 594 822 444 792 529 b 864 769 808 622 864 678 b 771 950 864 839 826 907 l 653 846 b 700 769 683 825 700 801 b 614 700 700 725 671 700 l 590 700 b 436 728 544 718 492 728 z m 438 179 b 278 350 346 179 278 246 b 438 521 278 454 346 521 b 594 350 526 521 594 456 b 438 179 594 247 526 179 z "},"ỡ":{"ha":871,"x_min":0,"x_max":0,"o":"m 436 728 b 49 350 206 728 49 564 b 436 -28 49 136 206 -28 b 822 350 665 -28 822 136 b 738 594 822 444 792 529 b 864 769 808 622 864 678 b 771 950 864 839 826 907 l 685 874 b 711 996 701 904 711 946 l 711 1042 l 554 1042 l 554 990 b 531 961 554 972 544 961 b 321 1051 485 961 446 1051 b 161 858 219 1051 161 983 l 161 811 l 318 811 l 318 861 b 342 892 318 881 328 892 b 551 801 388 892 426 801 b 660 842 596 801 633 815 b 700 769 683 825 700 801 b 614 700 700 725 671 700 l 590 700 b 436 728 544 718 492 728 z m 438 179 b 278 350 346 179 278 246 b 438 521 278 454 346 521 b 594 350 526 521 594 456 b 438 179 594 247 526 179 z "},"ợ":{"ha":871,"x_min":0,"x_max":0,"o":"m 436 728 b 49 350 206 728 49 564 b 436 -28 49 136 206 -28 b 822 350 665 -28 822 136 b 738 594 822 444 792 529 b 864 769 808 622 864 678 b 771 950 864 839 826 907 l 653 846 b 700 769 683 825 700 801 b 614 700 700 725 671 700 l 590 700 b 436 728 544 718 492 728 z m 438 179 b 278 350 346 179 278 246 b 438 521 278 454 346 521 b 594 350 526 521 594 456 b 438 179 594 247 526 179 z m 436 -356 b 575 -215 511 -356 575 -290 b 436 -76 575 -140 511 -76 b 296 -215 360 -76 296 -140 b 436 -356 296 -290 360 -356 z "},"ø":{"ha":871,"x_min":0,"x_max":0,"o":"m 267 -28 l 285 -1 b 436 -28 331 -18 382 -28 b 822 350 665 -28 822 136 b 732 600 822 447 789 535 l 822 728 l 604 728 l 586 701 b 436 728 540 718 490 728 b 49 350 206 728 49 564 b 139 100 49 253 81 165 l 49 -28 z m 278 350 b 438 521 278 454 346 521 b 446 521 446 521 446 521 l 286 290 b 278 350 281 308 278 329 z m 438 179 b 426 179 429 179 428 179 l 586 410 b 594 350 592 392 594 372 b 438 179 594 247 526 179 z "},"ǿ":{"ha":871,"x_min":0,"x_max":0,"o":"m 551 811 l 721 1042 l 485 1042 l 342 811 z m 267 -28 l 285 -1 b 436 -28 331 -18 382 -28 b 822 350 665 -28 822 136 b 732 600 822 447 789 535 l 822 728 l 604 728 l 586 701 b 436 728 540 718 490 728 b 49 350 206 728 49 564 b 139 100 49 253 81 165 l 49 -28 z m 278 350 b 438 521 278 454 346 521 b 446 521 446 521 446 521 l 286 290 b 278 350 281 308 278 329 z m 438 179 b 426 179 429 179 428 179 l 586 410 b 594 350 592 392 594 372 b 438 179 594 247 526 179 z "},"œ":{"ha":1354,"x_min":0,"x_max":0,"o":"m 436 728 b 49 350 206 728 49 564 b 436 -28 49 136 206 -28 b 706 82 547 -28 640 14 b 986 -28 769 15 864 -28 b 1297 113 1121 -28 1231 25 l 1142 236 b 985 169 1110 196 1056 169 b 819 289 901 169 840 194 l 1272 289 b 1286 406 1279 314 1286 358 b 957 728 1286 596 1156 728 b 703 621 847 728 761 686 b 436 728 638 688 546 728 z m 949 550 b 1072 444 1033 550 1069 492 l 819 444 b 949 550 838 525 888 550 z m 438 179 b 278 350 346 179 278 246 b 438 521 278 454 346 521 b 594 350 526 521 594 456 b 438 179 594 247 526 179 z "},"p":{"ha":906,"x_min":0,"x_max":0,"o":"m 90 -342 l 311 -342 l 311 39 b 506 -28 358 -4 419 -28 b 858 350 729 -28 858 146 b 506 728 858 554 729 728 b 311 661 419 728 358 704 l 311 700 l 90 700 z m 474 521 b 631 350 571 521 631 453 b 474 179 631 247 571 179 b 311 263 404 179 353 208 l 311 438 b 474 521 350 490 403 521 z "},"q":{"ha":906,"x_min":0,"x_max":0,"o":"m 47 350 b 400 -28 47 146 178 -28 b 594 39 486 -28 547 -4 l 594 -342 l 817 -342 l 817 700 l 594 700 l 594 661 b 400 728 547 704 486 728 b 47 350 178 728 47 554 z m 275 350 b 432 521 275 453 335 521 b 594 439 500 521 553 492 l 594 261 b 432 179 557 210 503 179 b 275 350 335 179 275 247 z "},"r":{"ha":572,"x_min":0,"x_max":0,"o":"m 90 0 l 311 0 l 311 425 b 458 496 325 449 378 496 b 544 486 494 496 521 492 l 544 704 b 481 714 528 710 506 714 b 311 643 408 714 354 683 l 311 700 l 90 700 z "},"ŕ":{"ha":572,"x_min":0,"x_max":0,"o":"m 401 811 l 571 1042 l 335 1042 l 192 811 z m 90 0 l 311 0 l 311 425 b 458 496 325 449 378 496 b 544 486 494 496 521 492 l 544 704 b 481 714 528 710 506 714 b 311 643 408 714 354 683 l 311 700 l 90 700 z "},"ŗ":{"ha":572,"x_min":0,"x_max":0,"o":"m 90 0 l 311 0 l 311 425 b 458 496 325 449 378 496 b 544 486 494 496 521 492 l 544 704 b 481 714 528 710 506 714 b 311 643 408 714 354 683 l 311 700 l 90 700 z m 163 -342 l 332 -111 l 96 -111 l -47 -342 z "},"ř":{"ha":572,"x_min":0,"x_max":0,"o":"m 197 1042 l 7 1042 l 149 811 l 424 811 l 565 1042 l 375 1042 l 286 907 z m 90 0 l 311 0 l 311 425 b 458 496 325 449 378 496 b 544 486 494 496 521 492 l 544 704 b 481 714 528 710 506 714 b 311 643 408 714 354 683 l 311 700 l 90 700 z "},"ṛ":{"ha":572,"x_min":0,"x_max":0,"o":"m 90 0 l 311 0 l 311 425 b 458 496 325 449 378 496 b 544 486 494 496 521 492 l 544 704 b 481 714 528 710 506 714 b 311 643 408 714 354 683 l 311 700 l 90 700 z m 201 -356 b 340 -215 276 -356 340 -290 b 201 -76 340 -140 276 -76 b 61 -215 125 -76 61 -140 b 201 -356 61 -290 125 -356 z "},"s":{"ha":649,"x_min":0,"x_max":0,"o":"m 39 106 b 333 -28 110 25 199 -28 b 600 211 468 -28 597 53 b 276 510 600 456 276 419 b 333 553 276 533 294 553 b 458 476 383 553 425 515 l 603 606 b 333 728 550 674 444 728 b 67 499 179 728 67 632 b 390 196 67 253 390 292 b 331 147 390 168 371 147 b 183 238 268 147 221 189 z "},"ś":{"ha":649,"x_min":0,"x_max":0,"o":"m 458 811 l 628 1042 l 392 1042 l 249 811 z m 39 106 b 333 -28 110 25 199 -28 b 600 211 468 -28 597 53 b 276 510 600 456 276 419 b 333 553 276 533 294 553 b 458 476 383 553 425 515 l 603 606 b 333 728 550 674 444 728 b 67 499 179 728 67 632 b 390 196 67 253 390 292 b 331 147 390 168 371 147 b 183 238 268 147 221 189 z "},"ŝ":{"ha":649,"x_min":0,"x_max":0,"o":"m 254 811 l 343 946 l 432 811 l 622 811 l 481 1042 l 206 1042 l 64 811 z m 39 106 b 333 -28 110 25 199 -28 b 600 211 468 -28 597 53 b 276 510 600 456 276 419 b 333 553 276 533 294 553 b 458 476 383 553 425 515 l 603 606 b 333 728 550 674 444 728 b 67 499 179 728 67 632 b 390 196 67 253 390 292 b 331 147 390 168 371 147 b 183 238 268 147 221 189 z "},"š":{"ha":649,"x_min":0,"x_max":0,"o":"m 254 1042 l 64 1042 l 206 811 l 481 811 l 622 1042 l 432 1042 l 343 907 z m 39 106 b 333 -28 110 25 199 -28 b 600 211 468 -28 597 53 b 276 510 600 456 276 419 b 333 553 276 533 294 553 b 458 476 383 553 425 515 l 603 606 b 333 728 550 674 444 728 b 67 499 179 728 67 632 b 390 196 67 253 390 292 b 331 147 390 168 371 147 b 183 238 268 147 221 189 z "},"ṣ":{"ha":649,"x_min":0,"x_max":0,"o":"m 39 106 b 333 -28 110 25 199 -28 b 600 211 468 -28 597 53 b 276 510 600 456 276 419 b 333 553 276 533 294 553 b 458 476 383 553 425 515 l 603 606 b 333 728 550 674 444 728 b 67 499 179 728 67 632 b 390 196 67 253 390 292 b 331 147 390 168 371 147 b 183 238 268 147 221 189 z m 325 -356 b 464 -215 400 -356 464 -290 b 325 -76 464 -140 400 -76 b 185 -215 249 -76 185 -140 b 325 -356 185 -290 249 -356 z "},"ş":{"ha":649,"x_min":0,"x_max":0,"o":"m 39 106 b 235 -17 90 46 153 3 l 169 -96 l 229 -174 b 288 -160 249 -164 267 -160 b 331 -193 310 -160 331 -171 b 288 -231 331 -218 310 -231 b 214 -199 264 -231 232 -217 l 140 -303 b 300 -349 174 -331 233 -349 b 489 -190 407 -349 489 -282 b 358 -64 489 -124 429 -72 l 399 -21 b 600 211 507 0 597 79 b 276 510 600 456 276 419 b 333 553 276 533 294 553 b 458 476 383 553 425 515 l 603 606 b 333 728 550 674 444 728 b 67 499 179 728 67 632 b 390 196 67 253 390 292 b 331 147 390 168 371 147 b 183 238 268 147 221 189 z "},"ș":{"ha":649,"x_min":0,"x_max":0,"o":"m 39 106 b 333 -28 110 25 199 -28 b 600 211 468 -28 597 53 b 276 510 600 456 276 419 b 333 553 276 533 294 553 b 458 476 383 553 425 515 l 603 606 b 333 728 550 674 444 728 b 67 499 179 728 67 632 b 390 196 67 253 390 292 b 331 147 390 168 371 147 b 183 238 268 147 221 189 z m 286 -342 l 456 -111 l 219 -111 l 76 -342 z "},"ß":{"ha":846,"x_min":0,"x_max":0,"o":"m 467 -7 b 799 294 644 -7 799 92 b 628 525 799 399 736 497 b 768 744 718 558 768 660 b 432 1042 768 914 649 1042 b 90 729 217 1042 90 897 l 90 0 l 313 0 l 313 729 b 426 836 313 790 360 836 b 540 731 497 836 540 794 b 428 626 540 671 499 626 l 392 626 l 392 419 l 444 419 b 571 310 518 419 571 375 b 454 199 571 244 526 199 b 392 206 428 199 407 201 l 392 -1 b 467 -7 410 -4 429 -7 z "},"t":{"ha":603,"x_min":0,"x_max":0,"o":"m 139 272 b 408 -14 139 100 218 -14 b 554 11 474 -14 517 -6 l 554 201 b 449 186 533 193 500 186 b 361 272 390 186 361 217 l 361 503 l 553 503 l 553 700 l 361 700 l 361 875 l 139 875 l 139 700 l 8 700 l 8 503 l 139 503 z "},"ť":{"ha":603,"x_min":0,"x_max":0,"o":"m 563 783 l 719 1042 l 497 1042 l 383 783 z m 139 272 b 408 -14 139 100 218 -14 b 554 11 474 -14 517 -6 l 554 201 b 449 186 533 193 500 186 b 361 272 390 186 361 217 l 361 503 l 553 503 l 553 700 l 361 700 l 361 875 l 139 875 l 139 700 l 8 700 l 8 503 l 139 503 z "},"ẗ":{"ha":603,"x_min":0,"x_max":0,"o":"m 90 933 b 218 1061 158 933 218 992 b 90 1189 218 1129 158 1189 b -37 1061 21 1189 -37 1129 b 90 933 -37 992 21 933 z m 425 933 b 551 1061 493 933 551 992 b 425 1189 551 1129 493 1189 b 296 1061 356 1189 296 1129 b 425 933 296 992 356 933 z m 139 272 b 408 -14 139 100 218 -14 b 554 11 474 -14 517 -6 l 554 201 b 449 186 533 193 500 186 b 361 272 390 186 361 217 l 361 503 l 553 503 l 553 700 l 361 700 l 361 875 l 139 875 l 139 700 l 8 700 l 8 503 l 139 503 z "},"ṭ":{"ha":603,"x_min":0,"x_max":0,"o":"m 139 272 b 408 -14 139 100 218 -14 b 554 11 474 -14 517 -6 l 554 201 b 449 186 533 193 500 186 b 361 272 390 186 361 217 l 361 503 l 553 503 l 553 700 l 361 700 l 361 875 l 139 875 l 139 700 l 8 700 l 8 503 l 139 503 z m 385 -356 b 524 -215 460 -356 524 -290 b 385 -76 524 -140 460 -76 b 244 -215 308 -76 244 -140 b 385 -356 244 -290 308 -356 z "},"ṯ":{"ha":603,"x_min":0,"x_max":0,"o":"m 139 272 b 408 -14 139 100 218 -14 b 554 11 474 -14 517 -6 l 554 201 b 449 186 533 193 500 186 b 361 272 390 186 361 217 l 361 503 l 553 503 l 553 700 l 361 700 l 361 875 l 139 875 l 139 700 l 8 700 l 8 503 l 139 503 z m 121 -318 l 649 -318 l 649 -157 l 121 -157 z "},"ţ":{"ha":603,"x_min":0,"x_max":0,"o":"m 139 272 b 308 -1 139 135 190 33 l 229 -96 l 289 -174 b 347 -160 308 -164 326 -160 b 390 -193 369 -160 390 -171 b 347 -231 390 -218 369 -231 b 274 -199 324 -231 292 -217 l 200 -303 b 360 -349 233 -331 293 -349 b 549 -190 467 -349 549 -282 b 418 -64 549 -124 489 -72 l 468 -11 b 554 11 503 -7 529 0 l 554 201 b 449 186 533 193 500 186 b 361 272 390 186 361 217 l 361 503 l 553 503 l 553 700 l 361 700 l 361 875 l 139 875 l 139 700 l 8 700 l 8 503 l 139 503 z "},"ț":{"ha":603,"x_min":0,"x_max":0,"o":"m 139 272 b 408 -14 139 100 218 -14 b 554 11 474 -14 517 -6 l 554 201 b 449 186 533 193 500 186 b 361 272 390 186 361 217 l 361 503 l 553 503 l 553 700 l 361 700 l 361 875 l 139 875 l 139 700 l 8 700 l 8 503 l 139 503 z m 346 -342 l 515 -111 l 279 -111 l 136 -342 z "},"ŧ":{"ha":603,"x_min":0,"x_max":0,"o":"m 8 281 l 139 281 l 139 272 b 408 -14 139 100 218 -14 b 554 11 474 -14 517 -6 l 554 201 b 449 186 533 193 500 186 b 361 272 390 186 361 217 l 361 281 l 556 281 l 556 442 l 361 442 l 361 503 l 553 503 l 553 700 l 361 700 l 361 875 l 139 875 l 139 700 l 8 700 l 8 503 l 139 503 l 139 442 l 8 442 z "},"þ":{"ha":906,"x_min":0,"x_max":0,"o":"m 90 -342 l 311 -342 l 311 32 b 506 -28 361 -7 424 -28 b 858 350 729 -28 858 146 b 506 728 858 554 729 728 b 311 668 424 728 361 707 l 311 1042 l 90 1042 z m 313 267 l 311 265 l 311 435 l 313 433 b 474 521 354 490 403 521 b 631 350 571 521 631 453 b 474 179 631 247 571 179 b 313 267 403 179 354 210 z "},"u":{"ha":832,"x_min":0,"x_max":0,"o":"m 533 304 b 417 179 533 231 496 179 b 299 304 335 179 299 231 l 299 700 l 76 700 l 76 317 b 415 -28 76 107 197 -28 b 756 317 631 -28 756 107 l 756 700 l 533 700 z "},"ù":{"ha":832,"x_min":0,"x_max":0,"o":"m 303 811 l 511 811 l 369 1042 l 133 1042 z m 533 304 b 417 179 533 231 496 179 b 299 304 335 179 299 231 l 299 700 l 76 700 l 76 317 b 415 -28 76 107 197 -28 b 756 317 631 -28 756 107 l 756 700 l 533 700 z "},"ú":{"ha":832,"x_min":0,"x_max":0,"o":"m 532 811 l 701 1042 l 465 1042 l 322 811 z m 533 304 b 417 179 533 231 496 179 b 299 304 335 179 299 231 l 299 700 l 76 700 l 76 317 b 415 -28 76 107 197 -28 b 756 317 631 -28 756 107 l 756 700 l 533 700 z "},"û":{"ha":832,"x_min":0,"x_max":0,"o":"m 328 811 l 417 946 l 506 811 l 696 811 l 554 1042 l 279 1042 l 138 811 z m 533 304 b 417 179 533 231 496 179 b 299 304 335 179 299 231 l 299 700 l 76 700 l 76 317 b 415 -28 76 107 197 -28 b 756 317 631 -28 756 107 l 756 700 l 533 700 z "},"ũ":{"ha":832,"x_min":0,"x_max":0,"o":"m 692 1042 l 535 1042 l 535 990 b 511 961 535 972 525 961 b 301 1051 465 961 426 1051 b 142 858 200 1051 142 983 l 142 811 l 299 811 l 299 861 b 322 892 299 881 308 892 b 532 801 368 892 407 801 b 692 996 633 801 692 871 z m 533 304 b 417 179 533 231 496 179 b 299 304 335 179 299 231 l 299 700 l 76 700 l 76 317 b 415 -28 76 107 197 -28 b 756 317 631 -28 756 107 l 756 700 l 533 700 z "},"ü":{"ha":832,"x_min":0,"x_max":0,"o":"m 250 800 b 378 928 318 800 378 858 b 250 1056 378 996 318 1056 b 122 928 181 1056 122 996 b 250 800 122 858 181 800 z m 585 800 b 711 928 653 800 711 858 b 585 1056 711 996 653 1056 b 456 928 515 1056 456 996 b 585 800 456 858 515 800 z m 533 304 b 417 179 533 231 496 179 b 299 304 335 179 299 231 l 299 700 l 76 700 l 76 317 b 415 -28 76 107 197 -28 b 756 317 631 -28 756 107 l 756 700 l 533 700 z "},"ū":{"ha":832,"x_min":0,"x_max":0,"o":"m 153 821 l 681 821 l 681 982 l 153 982 z m 533 304 b 417 179 533 231 496 179 b 299 304 335 179 299 231 l 299 700 l 76 700 l 76 317 b 415 -28 76 107 197 -28 b 756 317 631 -28 756 107 l 756 700 l 533 700 z "},"ŭ":{"ha":832,"x_min":0,"x_max":0,"o":"m 417 956 b 325 1042 354 956 325 992 l 146 1042 b 417 811 146 894 251 811 b 685 1042 581 811 685 894 l 507 1042 b 417 956 507 992 478 956 z m 533 304 b 417 179 533 231 496 179 b 299 304 335 179 299 231 l 299 700 l 76 700 l 76 317 b 415 -28 76 107 197 -28 b 756 317 631 -28 756 107 l 756 700 l 533 700 z "},"ů":{"ha":832,"x_min":0,"x_max":0,"o":"m 226 946 b 417 772 226 842 310 772 b 608 946 526 772 608 842 b 417 1118 608 1049 526 1118 b 226 946 310 1118 226 1049 z m 483 944 b 417 881 483 907 458 881 b 350 944 375 881 350 907 b 417 1008 350 982 375 1008 b 483 944 458 1008 483 982 z m 533 304 b 417 179 533 231 496 179 b 299 304 335 179 299 231 l 299 700 l 76 700 l 76 317 b 415 -28 76 107 197 -28 b 756 317 631 -28 756 107 l 756 700 l 533 700 z "},"ű":{"ha":832,"x_min":0,"x_max":0,"o":"m 376 811 l 546 1042 l 310 1042 l 167 811 z m 660 811 l 829 1042 l 593 1042 l 451 811 z m 533 304 b 417 179 533 231 496 179 b 299 304 335 179 299 231 l 299 700 l 76 700 l 76 317 b 415 -28 76 107 197 -28 b 756 317 631 -28 756 107 l 756 700 l 533 700 z "},"ų":{"ha":832,"x_min":0,"x_max":0,"o":"m 200 -172 b 419 -342 200 -253 274 -342 b 549 -321 478 -342 515 -335 l 549 -179 b 456 -196 531 -187 500 -196 b 375 -139 400 -196 375 -176 b 454 -56 375 -111 397 -87 l 524 -15 b 756 317 672 24 756 144 l 756 700 l 533 700 l 533 304 b 417 179 533 231 496 179 b 299 304 335 179 299 231 l 299 700 l 76 700 l 76 317 b 304 -14 76 146 157 25 l 301 -15 b 200 -172 225 -54 200 -114 z "},"ư":{"ha":832,"x_min":0,"x_max":0,"o":"m 533 304 b 417 179 533 231 496 179 b 299 304 335 179 299 231 l 299 700 l 76 700 l 76 317 b 415 -28 76 107 197 -28 b 756 317 631 -28 756 107 l 756 588 b 899 769 833 614 899 671 b 806 950 899 839 861 907 l 688 846 b 735 769 718 825 735 801 b 649 700 735 725 706 700 l 533 700 z "},"ǔ":{"ha":832,"x_min":0,"x_max":0,"o":"m 328 1042 l 138 1042 l 279 811 l 554 811 l 696 1042 l 506 1042 l 417 907 z m 533 304 b 417 179 533 231 496 179 b 299 304 335 179 299 231 l 299 700 l 76 700 l 76 317 b 415 -28 76 107 197 -28 b 756 317 631 -28 756 107 l 756 700 l 533 700 z "},"ǖ":{"ha":832,"x_min":0,"x_max":0,"o":"m 153 1038 l 681 1038 l 681 1197 l 153 1197 z m 254 756 b 369 872 315 756 369 808 b 254 989 369 935 315 989 b 136 872 189 989 136 935 b 254 756 136 808 189 756 z m 581 756 b 697 872 644 756 697 808 b 581 989 697 936 644 989 b 464 872 517 989 464 936 b 581 756 464 808 517 756 z m 533 304 b 417 179 533 231 496 179 b 299 304 335 179 299 231 l 299 700 l 76 700 l 76 317 b 415 -28 76 107 197 -28 b 756 317 631 -28 756 107 l 756 700 l 533 700 z "},"ǘ":{"ha":832,"x_min":0,"x_max":0,"o":"m 528 1031 l 710 1218 l 460 1218 l 303 1031 z m 254 756 b 369 872 315 756 369 808 b 254 989 369 935 315 989 b 136 872 189 989 136 935 b 254 756 136 808 189 756 z m 581 756 b 697 872 644 756 697 808 b 581 989 697 936 644 989 b 464 872 517 989 464 936 b 581 756 464 808 517 756 z m 533 304 b 417 179 533 231 496 179 b 299 304 335 179 299 231 l 299 700 l 76 700 l 76 317 b 415 -28 76 107 197 -28 b 756 317 631 -28 756 107 l 756 700 l 533 700 z "},"ǚ":{"ha":832,"x_min":0,"x_max":0,"o":"m 328 1218 l 138 1218 l 294 1031 l 539 1031 l 694 1218 l 504 1218 l 417 1128 z m 254 756 b 369 872 315 756 369 808 b 254 989 369 935 315 989 b 136 872 189 989 136 935 b 254 756 136 808 189 756 z m 581 756 b 697 872 644 756 697 808 b 581 989 697 936 644 989 b 464 872 517 989 464 936 b 581 756 464 808 517 756 z m 533 304 b 417 179 533 231 496 179 b 299 304 335 179 299 231 l 299 700 l 76 700 l 76 317 b 415 -28 76 107 197 -28 b 756 317 631 -28 756 107 l 756 700 l 533 700 z "},"ǜ":{"ha":832,"x_min":0,"x_max":0,"o":"m 310 1031 l 535 1031 l 378 1218 l 128 1218 z m 254 756 b 369 872 315 756 369 808 b 254 989 369 935 315 989 b 136 872 189 989 136 935 b 254 756 136 808 189 756 z m 581 756 b 697 872 644 756 697 808 b 581 989 697 936 644 989 b 464 872 517 989 464 936 b 581 756 464 808 517 756 z m 533 304 b 417 179 533 231 496 179 b 299 304 335 179 299 231 l 299 700 l 76 700 l 76 317 b 415 -28 76 107 197 -28 b 756 317 631 -28 756 107 l 756 700 l 533 700 z "},"ụ":{"ha":832,"x_min":0,"x_max":0,"o":"m 533 304 b 417 179 533 231 496 179 b 299 304 335 179 299 231 l 299 700 l 76 700 l 76 317 b 415 -28 76 107 197 -28 b 756 317 631 -28 756 107 l 756 700 l 533 700 z m 417 -356 b 556 -215 492 -356 556 -290 b 417 -76 556 -140 492 -76 b 276 -215 340 -76 276 -140 b 417 -356 276 -290 340 -356 z "},"ủ":{"ha":832,"x_min":0,"x_max":0,"o":"m 383 767 b 622 957 531 789 622 850 b 435 1118 622 1057 543 1118 b 228 1046 350 1118 281 1090 l 314 938 b 417 981 342 961 378 981 b 465 953 450 981 465 968 b 353 897 465 921 428 910 z m 533 304 b 417 179 533 231 496 179 b 299 304 335 179 299 231 l 299 700 l 76 700 l 76 317 b 415 -28 76 107 197 -28 b 756 317 631 -28 756 107 l 756 700 l 533 700 z "},"ứ":{"ha":832,"x_min":0,"x_max":0,"o":"m 532 811 l 701 1042 l 465 1042 l 322 811 z m 533 304 b 417 179 533 231 496 179 b 299 304 335 179 299 231 l 299 700 l 76 700 l 76 317 b 415 -28 76 107 197 -28 b 756 317 631 -28 756 107 l 756 588 b 899 769 833 614 899 671 b 806 950 899 839 861 907 l 688 846 b 735 769 718 825 735 801 b 649 700 735 725 706 700 l 533 700 z "},"ừ":{"ha":832,"x_min":0,"x_max":0,"o":"m 303 811 l 511 811 l 369 1042 l 133 1042 z m 533 304 b 417 179 533 231 496 179 b 299 304 335 179 299 231 l 299 700 l 76 700 l 76 317 b 415 -28 76 107 197 -28 b 756 317 631 -28 756 107 l 756 588 b 899 769 833 614 899 671 b 806 950 899 839 861 907 l 688 846 b 735 769 718 825 735 801 b 649 700 735 725 706 700 l 533 700 z "},"ử":{"ha":832,"x_min":0,"x_max":0,"o":"m 383 767 b 622 957 531 789 622 850 b 435 1118 622 1057 543 1118 b 228 1046 350 1118 281 1090 l 314 938 b 417 981 342 961 378 981 b 465 953 450 981 465 968 b 353 897 465 921 428 910 z m 533 304 b 417 179 533 231 496 179 b 299 304 335 179 299 231 l 299 700 l 76 700 l 76 317 b 415 -28 76 107 197 -28 b 756 317 631 -28 756 107 l 756 588 b 899 769 833 614 899 671 b 806 950 899 839 861 907 l 688 846 b 735 769 718 825 735 801 b 649 700 735 725 706 700 l 533 700 z "},"ữ":{"ha":832,"x_min":0,"x_max":0,"o":"m 692 1042 l 535 1042 l 535 990 b 511 961 535 972 525 961 b 301 1051 465 961 426 1051 b 142 858 200 1051 142 983 l 142 811 l 299 811 l 299 861 b 322 892 299 881 308 892 b 532 801 368 892 407 801 b 692 996 633 801 692 871 z m 533 304 b 417 179 533 231 496 179 b 299 304 335 179 299 231 l 299 700 l 76 700 l 76 317 b 415 -28 76 107 197 -28 b 756 317 631 -28 756 107 l 756 588 b 899 769 833 614 899 671 b 806 950 899 839 861 907 l 688 846 b 735 769 718 825 735 801 b 649 700 735 725 706 700 l 533 700 z "},"ự":{"ha":832,"x_min":0,"x_max":0,"o":"m 533 304 b 417 179 533 231 496 179 b 299 304 335 179 299 231 l 299 700 l 76 700 l 76 317 b 415 -28 76 107 197 -28 b 756 317 631 -28 756 107 l 756 588 b 899 769 833 614 899 671 b 806 950 899 839 861 907 l 688 846 b 735 769 718 825 735 801 b 649 700 735 725 706 700 l 533 700 z m 417 -356 b 556 -215 492 -356 556 -290 b 417 -76 556 -140 492 -76 b 276 -215 340 -76 276 -140 b 417 -356 276 -290 340 -356 z "},"v":{"ha":760,"x_min":0,"x_max":0,"o":"m -6 700 l 235 0 l 525 0 l 765 700 l 529 700 l 381 265 l 231 700 z "},"w":{"ha":1200,"x_min":0,"x_max":0,"o":"m 26 700 l 188 0 l 492 0 l 600 465 l 708 0 l 1014 0 l 1174 700 l 957 700 l 853 253 l 749 700 l 453 700 l 347 250 l 243 700 z "},"ẁ":{"ha":1200,"x_min":0,"x_max":0,"o":"m 486 811 l 694 811 l 553 1042 l 317 1042 z m 26 700 l 188 0 l 492 0 l 600 465 l 708 0 l 1014 0 l 1174 700 l 957 700 l 853 253 l 749 700 l 453 700 l 347 250 l 243 700 z "},"ẃ":{"ha":1200,"x_min":0,"x_max":0,"o":"m 715 811 l 885 1042 l 649 1042 l 506 811 z m 26 700 l 188 0 l 492 0 l 600 465 l 708 0 l 1014 0 l 1174 700 l 957 700 l 853 253 l 749 700 l 453 700 l 347 250 l 243 700 z "},"ŵ":{"ha":1200,"x_min":0,"x_max":0,"o":"m 511 811 l 600 946 l 689 811 l 879 811 l 738 1042 l 463 1042 l 321 811 z m 26 700 l 188 0 l 492 0 l 600 465 l 708 0 l 1014 0 l 1174 700 l 957 700 l 853 253 l 749 700 l 453 700 l 347 250 l 243 700 z "},"ẅ":{"ha":1200,"x_min":0,"x_max":0,"o":"m 433 800 b 561 928 501 800 561 858 b 433 1056 561 996 501 1056 b 306 928 364 1056 306 996 b 433 800 306 858 364 800 z m 768 800 b 894 928 836 800 894 858 b 768 1056 894 996 836 1056 b 639 928 699 1056 639 996 b 768 800 639 858 699 800 z m 26 700 l 188 0 l 492 0 l 600 465 l 708 0 l 1014 0 l 1174 700 l 957 700 l 853 253 l 749 700 l 453 700 l 347 250 l 243 700 z "},"x":{"ha":808,"x_min":0,"x_max":0,"o":"m 279 0 l 404 197 l 532 0 l 782 0 l 544 357 l 772 700 l 522 700 l 404 518 l 289 700 l 38 700 l 265 358 l 26 0 z "},"y":{"ha":789,"x_min":0,"x_max":0,"o":"m 453 -151 l 794 700 l 563 700 l 399 290 l 239 700 l -6 700 l 282 0 l 256 -67 b 131 -147 232 -125 200 -147 b 47 -133 103 -147 68 -140 l 47 -324 b 182 -347 85 -339 122 -347 b 453 -151 328 -347 406 -268 z "},"ý":{"ha":789,"x_min":0,"x_max":0,"o":"m 510 811 l 679 1042 l 443 1042 l 300 811 z m 453 -151 l 794 700 l 563 700 l 399 290 l 239 700 l -6 700 l 282 0 l 256 -67 b 131 -147 232 -125 200 -147 b 47 -133 103 -147 68 -140 l 47 -324 b 182 -347 85 -339 122 -347 b 453 -151 328 -347 406 -268 z "},"ỳ":{"ha":789,"x_min":0,"x_max":0,"o":"m 281 811 l 489 811 l 347 1042 l 111 1042 z m 453 -151 l 794 700 l 563 700 l 399 290 l 239 700 l -6 700 l 282 0 l 256 -67 b 131 -147 232 -125 200 -147 b 47 -133 103 -147 68 -140 l 47 -324 b 182 -347 85 -339 122 -347 b 453 -151 328 -347 406 -268 z "},"ŷ":{"ha":789,"x_min":0,"x_max":0,"o":"m 306 811 l 394 946 l 483 811 l 674 811 l 532 1042 l 257 1042 l 115 811 z m 453 -151 l 794 700 l 563 700 l 399 290 l 239 700 l -6 700 l 282 0 l 256 -67 b 131 -147 232 -125 200 -147 b 47 -133 103 -147 68 -140 l 47 -324 b 182 -347 85 -339 122 -347 b 453 -151 328 -347 406 -268 z "},"ÿ":{"ha":789,"x_min":0,"x_max":0,"o":"m 228 800 b 356 928 296 800 356 858 b 228 1056 356 996 296 1056 b 100 928 158 1056 100 996 b 228 800 100 858 158 800 z m 563 800 b 689 928 631 800 689 858 b 563 1056 689 996 631 1056 b 433 928 493 1056 433 996 b 563 800 433 858 493 800 z m 453 -151 l 794 700 l 563 700 l 399 290 l 239 700 l -6 700 l 282 0 l 256 -67 b 131 -147 232 -125 200 -147 b 47 -133 103 -147 68 -140 l 47 -324 b 182 -347 85 -339 122 -347 b 453 -151 328 -347 406 -268 z "},"ỹ":{"ha":789,"x_min":0,"x_max":0,"o":"m 669 1042 l 513 1042 l 513 990 b 489 961 513 972 503 961 b 279 1051 443 961 404 1051 b 119 858 178 1051 119 983 l 119 811 l 276 811 l 276 861 b 300 892 276 881 286 892 b 510 801 346 892 385 801 b 669 996 611 801 669 871 z m 453 -151 l 794 700 l 563 700 l 399 290 l 239 700 l -6 700 l 282 0 l 256 -67 b 131 -147 232 -125 200 -147 b 47 -133 103 -147 68 -140 l 47 -324 b 182 -347 85 -339 122 -347 b 453 -151 328 -347 406 -268 z "},"ȳ":{"ha":789,"x_min":0,"x_max":0,"o":"m 131 821 l 658 821 l 658 982 l 131 982 z m 453 -151 l 794 700 l 563 700 l 399 290 l 239 700 l -6 700 l 282 0 l 256 -67 b 131 -147 232 -125 200 -147 b 47 -133 103 -147 68 -140 l 47 -324 b 182 -347 85 -339 122 -347 b 453 -151 328 -347 406 -268 z "},"ỵ":{"ha":789,"x_min":0,"x_max":0,"o":"m 453 -151 l 794 700 l 563 700 l 399 290 l 239 700 l -6 700 l 282 0 l 256 -67 b 131 -147 232 -125 200 -147 b 47 -133 103 -147 68 -140 l 47 -324 b 182 -347 85 -339 122 -347 b 453 -151 328 -347 406 -268 z m 617 -356 b 756 -215 692 -356 756 -290 b 617 -76 756 -140 692 -76 b 476 -215 540 -76 476 -140 b 617 -356 476 -290 540 -356 z "},"ỷ":{"ha":789,"x_min":0,"x_max":0,"o":"m 361 767 b 600 957 508 789 600 850 b 413 1118 600 1057 521 1118 b 206 1046 328 1118 258 1090 l 292 938 b 394 981 319 961 356 981 b 443 953 428 981 443 968 b 331 897 443 921 406 910 z m 453 -151 l 794 700 l 563 700 l 399 290 l 239 700 l -6 700 l 282 0 l 256 -67 b 131 -147 232 -125 200 -147 b 47 -133 103 -147 68 -140 l 47 -324 b 182 -347 85 -339 122 -347 b 453 -151 328 -347 406 -268 z "},"z":{"ha":771,"x_min":0,"x_max":0,"o":"m 86 0 l 686 0 l 686 197 l 369 197 l 676 503 l 676 700 l 96 700 l 96 503 l 393 503 l 86 197 z "},"ź":{"ha":771,"x_min":0,"x_max":0,"o":"m 501 811 l 671 1042 l 435 1042 l 292 811 z m 86 0 l 686 0 l 686 197 l 369 197 l 676 503 l 676 700 l 96 700 l 96 503 l 393 503 l 86 197 z "},"ž":{"ha":771,"x_min":0,"x_max":0,"o":"m 297 1042 l 107 1042 l 249 811 l 524 811 l 665 1042 l 475 1042 l 386 907 z m 86 0 l 686 0 l 686 197 l 369 197 l 676 503 l 676 700 l 96 700 l 96 503 l 393 503 l 86 197 z "},"ż":{"ha":771,"x_min":0,"x_max":0,"o":"m 386 776 b 525 917 461 776 525 842 b 386 1056 525 992 461 1056 b 246 917 310 1056 246 992 b 386 776 246 842 310 776 z m 86 0 l 686 0 l 686 197 l 369 197 l 676 503 l 676 700 l 96 700 l 96 503 l 393 503 l 86 197 z "},"ẓ":{"ha":771,"x_min":0,"x_max":0,"o":"m 86 0 l 686 0 l 686 197 l 369 197 l 676 503 l 676 700 l 96 700 l 96 503 l 393 503 l 86 197 z m 386 -356 b 525 -215 461 -356 525 -290 b 386 -76 525 -140 461 -76 b 246 -215 310 -76 246 -140 b 386 -356 246 -290 310 -356 z "},"ə":{"ha":801,"x_min":0,"x_max":0,"o":"m 753 350 b 360 728 753 554 617 728 b 49 588 225 728 115 675 l 204 464 b 361 531 236 504 294 531 b 526 411 444 531 506 506 l 74 411 b 60 294 67 386 60 342 b 389 -28 60 104 190 -28 b 753 350 626 -28 753 147 z m 394 150 b 274 256 313 150 276 208 l 525 256 b 394 150 508 185 465 150 z "},"◌":{"ha":839,"x_min":0,"x_max":0,"o":"m 419 -14 b 783 350 619 -14 783 150 b 419 714 783 550 619 714 b 56 350 219 714 56 550 b 419 -14 56 150 219 -14 z m 419 700 b 769 350 613 700 769 543 b 419 0 769 157 613 0 b 69 350 226 0 69 157 b 419 700 69 543 226 700 z "},"̀":{"ha":0,"x_min":0,"x_max":0,"o":"m -114 811 l 94 811 l -47 1042 l -283 1042 z "},"́":{"ha":0,"x_min":0,"x_max":0,"o":"m 115 811 l 285 1042 l 49 1042 l -94 811 z "},"̋":{"ha":0,"x_min":0,"x_max":0,"o":"m -40 811 l 129 1042 l -107 1042 l -250 811 z m 243 811 l 413 1042 l 176 1042 l 35 811 z "},"̂":{"ha":0,"x_min":0,"x_max":0,"o":"m -89 811 l 0 946 l 89 811 l 279 811 l 138 1042 l -137 1042 l -279 811 z "},"̌":{"ha":0,"x_min":0,"x_max":0,"o":"m 89 1042 l 0 907 l -89 1042 l -279 1042 l -137 811 l 138 811 l 279 1042 z "},"̆":{"ha":0,"x_min":0,"x_max":0,"o":"m 0 956 b -92 1042 -62 956 -92 992 l -271 1042 b 0 811 -271 894 -165 811 b 268 1042 164 811 268 894 l 90 1042 b 0 956 90 992 61 956 z "},"̊":{"ha":0,"x_min":0,"x_max":0,"o":"m -190 946 b 0 772 -190 842 -107 772 b 192 946 110 772 192 842 b 0 1118 192 1049 110 1118 b -190 946 -107 1118 -190 1049 z m 67 944 b 0 881 67 907 42 881 b -67 944 -42 881 -67 907 b 0 1008 -67 982 -42 1008 b 67 944 42 1008 67 982 z "},"̃":{"ha":0,"x_min":0,"x_max":0,"o":"m 275 1042 l 118 1042 l 118 990 b 94 961 118 972 108 961 b -115 1051 49 961 10 1051 b -275 858 -217 1051 -275 983 l -275 811 l -118 811 l -118 861 b -94 892 -118 881 -108 892 b 115 801 -49 892 -10 801 b 275 996 217 801 275 871 z "},"̇":{"ha":0,"x_min":0,"x_max":0,"o":"m 0 776 b 139 917 75 776 139 842 b 0 1056 139 992 75 1056 b -140 917 -76 1056 -140 992 b 0 776 -140 842 -76 776 z "},"̈":{"ha":0,"x_min":0,"x_max":0,"o":"m -167 800 b -39 928 -99 800 -39 858 b -167 1056 -39 996 -99 1056 b -294 928 -236 1056 -294 996 b -167 800 -294 858 -236 800 z m 168 800 b 294 928 236 800 294 858 b 168 1056 294 996 236 1056 b 39 928 99 1056 39 996 b 168 800 39 858 99 800 z "},"̄":{"ha":0,"x_min":0,"x_max":0,"o":"m -264 821 l 264 821 l 264 982 l -264 982 z "},"̉":{"ha":0,"x_min":0,"x_max":0,"o":"m -33 767 b 206 957 114 789 206 850 b 18 1118 206 1057 126 1118 b -189 1046 -67 1118 -136 1090 l -103 938 b 0 981 -75 961 -39 981 b 49 953 33 981 49 968 b -64 897 49 921 11 910 z "},"̛":{"ha":0,"x_min":0,"x_max":0,"o":"m -181 572 b 67 769 -65 572 67 628 b -26 950 67 839 29 907 l -144 846 b -97 769 -114 825 -97 801 b -183 700 -97 725 -126 700 l -299 700 l -229 572 z "},"͑":{"ha":0,"x_min":0,"x_max":0,"o":"m 94 1118 b -96 946 -12 1118 -96 1049 b 94 772 -96 842 -12 772 l 94 881 b 28 944 53 881 28 907 b 94 1008 28 982 53 1008 z "},"͗":{"ha":0,"x_min":0,"x_max":0,"o":"m -96 1118 l -96 1008 b -29 944 -54 1008 -29 982 b -96 881 -29 907 -54 881 l -96 772 b 94 946 11 772 94 842 b -96 1118 94 1049 11 1118 z "},"̒":{"ha":0,"x_min":0,"x_max":0,"o":"m 75 1042 l -94 811 l 142 811 l 285 1042 z "},"̍":{"ha":0,"x_min":0,"x_max":0,"o":"m -81 1042 l -81 811 l 81 811 l 81 1042 z "},"̧":{"ha":0,"x_min":0,"x_max":0,"o":"m -68 10 l -156 -96 l -96 -174 b -37 -160 -76 -164 -58 -160 b 6 -193 -15 -160 6 -171 b -37 -231 6 -218 -15 -231 b -111 -199 -61 -231 -93 -217 l -185 -303 b -25 -349 -151 -331 -92 -349 b 164 -190 82 -349 164 -282 b 33 -64 164 -124 104 -72 l 104 11 z "},"̨":{"ha":0,"x_min":0,"x_max":0,"o":"m -349 -172 b -129 -342 -349 -253 -275 -342 b 0 -321 -71 -342 -33 -335 l 0 -179 b -93 -196 -18 -187 -49 -196 b -174 -139 -149 -196 -174 -176 b -94 -56 -174 -111 -151 -87 l 0 0 l -185 18 l -247 -15 b -349 -172 -324 -54 -349 -114 z "},"̦":{"ha":0,"x_min":0,"x_max":0,"o":"m -39 -342 l 131 -111 l -106 -111 l -249 -342 z "},"̣":{"ha":0,"x_min":0,"x_max":0,"o":"m 0 -356 b 139 -215 75 -356 139 -290 b 0 -76 139 -140 75 -76 b -140 -215 -76 -76 -140 -140 b 0 -356 -140 -290 -76 -356 z "},"̮":{"ha":0,"x_min":0,"x_max":0,"o":"m 0 -197 b -92 -111 -62 -197 -92 -161 l -271 -111 b 0 -342 -271 -258 -165 -342 b 268 -111 164 -342 268 -258 l 90 -111 b 0 -197 90 -161 61 -197 z "},"̱":{"ha":0,"x_min":0,"x_max":0,"o":"m -264 -318 l 264 -318 l 264 -157 l -264 -157 z "},"̩":{"ha":0,"x_min":0,"x_max":0,"o":"m -81 -111 l -81 -342 l 81 -342 l 81 -111 z "},"`":{"ha":833,"x_min":0,"x_max":0,"o":"m 397 811 l 606 811 l 464 1042 l 228 1042 z "},"´":{"ha":835,"x_min":0,"x_max":0,"o":"m 438 811 l 607 1042 l 371 1042 l 228 811 z "},"˝":{"ha":835,"x_min":0,"x_max":0,"o":"m 296 811 l 465 1042 l 229 1042 l 86 811 z m 579 811 l 749 1042 l 513 1042 l 371 811 z "},"ˆ":{"ha":833,"x_min":0,"x_max":0,"o":"m 328 811 l 417 946 l 506 811 l 696 811 l 554 1042 l 279 1042 l 138 811 z "},"ˇ":{"ha":833,"x_min":0,"x_max":0,"o":"m 328 1042 l 138 1042 l 279 811 l 554 811 l 696 1042 l 506 1042 l 417 907 z "},"˘":{"ha":833,"x_min":0,"x_max":0,"o":"m 418 956 b 326 1042 356 956 326 992 l 147 1042 b 418 811 147 894 253 811 b 686 1042 582 811 686 894 l 508 1042 b 418 956 508 992 479 956 z "},"˚":{"ha":832,"x_min":0,"x_max":0,"o":"m 225 946 b 415 772 225 842 308 772 b 607 946 525 772 607 842 b 415 1118 607 1049 525 1118 b 225 946 308 1118 225 1049 z m 482 944 b 415 881 482 907 457 881 b 349 944 374 881 349 907 b 415 1008 349 982 374 1008 b 482 944 457 1008 482 982 z "},"˜":{"ha":833,"x_min":0,"x_max":0,"o":"m 692 1042 l 535 1042 l 535 990 b 511 961 535 972 525 961 b 301 1051 465 961 426 1051 b 142 858 200 1051 142 983 l 142 811 l 299 811 l 299 861 b 322 892 299 881 308 892 b 532 801 368 892 407 801 b 692 996 633 801 692 871 z "},"˙":{"ha":835,"x_min":0,"x_max":0,"o":"m 418 776 b 557 917 493 776 557 842 b 418 1056 557 992 493 1056 b 278 917 342 1056 278 992 b 418 776 278 842 342 776 z "},"¨":{"ha":833,"x_min":0,"x_max":0,"o":"m 250 800 b 378 928 318 800 378 858 b 250 1056 378 996 318 1056 b 122 928 181 1056 122 996 b 250 800 122 858 181 800 z m 585 800 b 711 928 653 800 711 858 b 585 1056 711 996 653 1056 b 456 928 515 1056 456 996 b 585 800 456 858 515 800 z "},"¯":{"ha":833,"x_min":0,"x_max":0,"o":"m 153 821 l 681 821 l 681 982 l 153 982 z "},"¸":{"ha":832,"x_min":0,"x_max":0,"o":"m 358 10 l 271 -96 l 331 -174 b 389 -160 350 -164 368 -160 b 432 -193 411 -160 432 -171 b 389 -231 432 -218 411 -231 b 315 -199 365 -231 333 -217 l 242 -303 b 401 -349 275 -331 335 -349 b 590 -190 508 -349 590 -282 b 460 -64 590 -124 531 -72 l 531 11 z "},"˛":{"ha":832,"x_min":0,"x_max":0,"o":"m 242 -172 b 461 -342 242 -253 315 -342 b 590 -321 519 -342 557 -335 l 590 -179 b 497 -196 572 -187 542 -196 b 417 -139 442 -196 417 -176 b 496 -56 417 -111 439 -87 l 590 0 l 406 18 l 343 -15 b 242 -172 267 -54 242 -114 z "},"ʿ":{"ha":835,"x_min":0,"x_max":0,"o":"m 513 1118 b 322 946 406 1118 322 1049 b 513 772 322 842 406 772 l 513 881 b 446 944 471 881 446 907 b 513 1008 446 982 471 1008 z "},"ʾ":{"ha":835,"x_min":0,"x_max":0,"o":"m 322 1118 l 322 1008 b 389 944 364 1008 389 982 b 322 881 389 907 364 881 l 322 772 b 513 946 429 772 513 842 b 322 1118 513 1049 429 1118 z "},"ˈ":{"ha":833,"x_min":0,"x_max":0,"o":"m 336 1042 l 336 811 l 497 811 l 497 1042 z "},"ˌ":{"ha":833,"x_min":0,"x_max":0,"o":"m 336 -111 l 336 -342 l 497 -342 l 497 -111 z "},".":{"ha":375,"x_min":0,"x_max":0,"o":"m 189 -18 b 335 128 267 -18 335 49 b 189 272 335 206 267 272 b 42 128 108 272 42 206 b 189 -18 42 49 108 -18 z "},",":{"ha":375,"x_min":0,"x_max":0,"o":"m 203 -222 l 378 229 l 131 229 l -1 -222 z "},":":{"ha":375,"x_min":0,"x_max":0,"o":"m 189 428 b 335 575 267 428 335 494 b 189 718 335 651 267 718 b 42 575 108 718 42 651 b 189 428 42 494 108 428 z m 189 -18 b 335 128 267 -18 335 49 b 189 272 335 206 267 272 b 42 128 108 272 42 206 b 189 -18 42 49 108 -18 z "},";":{"ha":375,"x_min":0,"x_max":0,"o":"m 189 428 b 335 575 267 428 335 494 b 189 718 335 651 267 718 b 42 575 108 718 42 651 b 189 428 42 494 108 428 z m 139 -222 l 314 229 l 68 229 l -65 -222 z "},"…":{"ha":1096,"x_min":0,"x_max":0,"o":"m 189 -18 b 335 128 267 -18 335 49 b 189 272 335 206 267 272 b 42 128 108 272 42 206 b 189 -18 42 49 108 -18 z m 549 -18 b 694 128 625 -18 694 49 b 549 272 694 206 625 272 b 401 128 468 272 401 206 b 549 -18 401 49 468 -18 z m 908 -18 b 1054 128 986 -18 1054 49 b 908 272 1054 206 986 272 b 761 128 828 272 761 206 b 908 -18 761 49 828 -18 z "},"*":{"ha":696,"x_min":0,"x_max":0,"o":"m 603 471 l 469 626 l 668 672 l 611 849 l 422 768 l 440 972 l 256 972 l 274 768 l 85 849 l 28 672 l 226 626 l 93 471 l 242 364 l 349 539 l 454 364 z "},"‘":{"ha":375,"x_min":0,"x_max":0,"o":"m 172 972 l -3 553 l 244 553 l 376 972 z "},"’":{"ha":375,"x_min":0,"x_max":0,"o":"m 201 553 l 376 972 l 129 972 l -3 553 z "},"“":{"ha":707,"x_min":0,"x_max":0,"o":"m 172 972 l -3 553 l 244 553 l 376 972 z m 506 972 l 331 553 l 578 553 l 710 972 z "},"”":{"ha":707,"x_min":0,"x_max":0,"o":"m 201 553 l 376 972 l 129 972 l -3 553 z m 535 553 l 710 972 l 463 972 l 331 553 z "},"‚":{"ha":375,"x_min":0,"x_max":0,"o":"m 203 -222 l 378 229 l 131 229 l -1 -222 z "},"„":{"ha":711,"x_min":0,"x_max":0,"o":"m 203 -222 l 378 229 l 131 229 l -1 -222 z m 536 -222 l 711 229 l 464 229 l 332 -222 z "},"'":{"ha":375,"x_min":0,"x_max":0,"o":"m 285 553 l 310 972 l 64 972 l 90 553 z "},"\"":{"ha":708,"x_min":0,"x_max":0,"o":"m 285 553 l 310 972 l 64 972 l 90 553 z m 618 553 l 643 972 l 397 972 l 424 553 z "},"!":{"ha":488,"x_min":0,"x_max":0,"o":"m 164 335 l 322 335 l 369 972 l 117 972 z m 244 -18 b 390 128 322 -18 390 49 b 244 272 390 206 322 272 b 97 128 163 272 97 206 b 244 -18 97 49 164 -18 z "},"?":{"ha":728,"x_min":0,"x_max":0,"o":"m 236 335 l 396 335 l 407 419 b 686 708 571 447 686 549 b 367 1000 686 893 531 1000 b 21 796 217 1000 103 935 l 210 679 b 356 792 257 754 293 792 b 447 708 406 792 447 758 b 208 576 447 601 344 589 z m 317 -18 b 463 128 394 -18 463 49 b 317 272 463 206 394 272 b 169 128 236 272 169 206 b 317 -18 169 49 236 -18 z "},"¡":{"ha":488,"x_min":0,"x_max":0,"o":"m 244 728 b 97 581 164 728 97 661 b 244 436 97 503 163 436 b 390 581 322 436 390 503 b 244 728 390 661 322 728 z m 322 375 l 164 375 l 117 -262 l 369 -262 z "},"¿":{"ha":728,"x_min":0,"x_max":0,"o":"m 411 728 b 265 581 333 728 265 661 b 411 436 265 503 333 436 b 558 581 492 436 558 503 b 411 728 558 661 492 728 z m 492 375 l 333 375 l 321 290 b 42 1 157 261 42 161 b 361 -290 42 -183 197 -290 b 708 -87 511 -290 625 -225 l 518 29 b 372 -82 471 -46 435 -82 b 281 1 322 -82 281 -50 b 519 133 281 108 383 119 z "},"-":{"ha":431,"x_min":0,"x_max":0,"o":"m 28 461 l 28 247 l 403 247 l 403 461 z "},"‹":{"ha":486,"x_min":0,"x_max":0,"o":"m 447 67 l 276 344 l 447 622 l 213 622 l 40 344 l 213 67 z "},"›":{"ha":486,"x_min":0,"x_max":0,"o":"m 40 622 l 211 344 l 40 67 l 275 67 l 447 344 l 275 622 z "},"«":{"ha":818,"x_min":0,"x_max":0,"o":"m 447 67 l 276 344 l 447 622 l 213 622 l 40 344 l 213 67 z m 778 67 l 607 344 l 778 622 l 543 622 l 371 344 l 543 67 z "},"»":{"ha":818,"x_min":0,"x_max":0,"o":"m 40 622 l 211 344 l 40 67 l 275 67 l 447 344 l 275 622 z m 371 622 l 542 344 l 371 67 l 606 67 l 778 344 l 606 622 z "},"(":{"ha":547,"x_min":0,"x_max":0,"o":"m 297 383 b 521 913 297 596 374 768 l 367 1042 b 81 383 196 888 81 665 b 367 -278 81 104 186 -118 l 521 -149 b 297 383 368 3 297 171 z "},")":{"ha":547,"x_min":0,"x_max":0,"o":"m 250 381 b 25 -149 250 168 172 -6 l 179 -278 b 465 381 349 -125 465 97 b 179 1042 465 660 361 882 l 25 913 b 250 381 181 760 250 593 z "},"{":{"ha":490,"x_min":0,"x_max":0,"o":"m 304 -37 b 372 228 304 39 372 114 b 292 383 372 294 343 349 b 372 539 343 419 372 474 b 304 806 372 654 304 729 b 356 856 304 836 326 856 l 461 856 l 461 1042 l 354 1042 b 99 806 194 1042 99 947 b 165 542 99 690 165 607 b 101 478 165 501 149 478 l 33 478 l 33 289 l 101 289 b 165 226 149 289 165 267 b 99 -37 165 161 99 78 b 354 -274 99 -178 194 -274 l 461 -274 l 461 -87 l 356 -87 b 304 -37 326 -87 304 -68 z "},"}":{"ha":490,"x_min":0,"x_max":0,"o":"m 190 -37 b 139 -87 190 -68 168 -87 l 33 -87 l 33 -274 l 140 -274 b 396 -37 300 -274 396 -179 b 329 226 396 78 329 161 b 393 290 329 267 346 290 l 461 290 l 461 479 l 393 479 b 329 542 346 479 329 501 b 396 806 329 607 396 690 b 140 1042 396 946 300 1042 l 33 1042 l 33 856 l 139 856 b 190 806 168 856 190 836 b 122 540 190 729 122 654 b 203 385 122 474 151 419 b 122 229 151 349 122 294 b 190 -37 122 114 190 39 z "},"[":{"ha":490,"x_min":0,"x_max":0,"o":"m 99 1042 l 99 -274 l 461 -274 l 461 -87 l 304 -87 l 304 856 l 461 856 l 461 1042 z "},"]":{"ha":490,"x_min":0,"x_max":0,"o":"m 393 -274 l 393 1042 l 31 1042 l 31 856 l 186 856 l 186 -87 l 31 -87 l 31 -274 z "},"–":{"ha":750,"x_min":0,"x_max":0,"o":"m 32 447 l 32 261 l 718 261 l 718 447 z "},"—":{"ha":1500,"x_min":0,"x_max":0,"o":"m 32 447 l 32 261 l 1468 261 l 1468 447 z "},"•":{"ha":664,"x_min":0,"x_max":0,"o":"m 333 107 b 593 360 479 107 593 222 b 333 607 593 496 479 607 b 71 360 189 607 71 496 b 333 107 71 222 189 107 z "},"·":{"ha":375,"x_min":0,"x_max":0,"o":"m 189 206 b 335 351 267 206 335 272 b 189 496 335 429 267 496 b 42 351 108 496 42 429 b 189 206 42 272 108 206 z "},"@":{"ha":1151,"x_min":0,"x_max":0,"o":"m 303 347 b 538 88 303 207 389 88 b 706 163 615 88 665 115 b 861 88 733 118 783 88 b 1100 397 1017 88 1100 222 b 576 863 1100 649 888 863 b 51 349 264 863 51 626 b 588 -165 51 71 268 -165 b 917 -75 708 -165 817 -142 l 843 44 b 589 -40 749 -28 674 -40 b 194 349 358 -40 194 136 b 578 736 194 560 354 736 b 961 397 800 736 961 581 b 876 219 961 292 924 219 b 836 265 853 219 836 235 l 836 589 l 671 589 l 671 564 b 538 608 633 593 589 608 b 303 347 389 608 303 489 z m 481 347 b 574 453 481 411 515 453 b 671 394 617 453 644 432 l 671 299 b 574 242 644 264 617 242 b 481 347 515 242 481 285 z "},"†":{"ha":694,"x_min":0,"x_max":0,"o":"m 244 153 l 450 153 l 450 642 l 667 642 l 667 828 l 450 828 l 450 1042 l 244 1042 l 244 828 l 29 828 l 29 642 l 244 642 z "},"‡":{"ha":694,"x_min":0,"x_max":0,"o":"m 244 153 l 450 153 l 450 367 l 667 367 l 667 553 l 450 553 l 450 642 l 667 642 l 667 828 l 450 828 l 450 1042 l 244 1042 l 244 828 l 29 828 l 29 642 l 244 642 l 244 553 l 29 553 l 29 367 l 244 367 z "},"§":{"ha":733,"x_min":0,"x_max":0,"o":"m 447 -14 b 360 -90 447 -56 414 -90 b 165 19 289 -90 218 -49 l 32 -118 b 361 -271 111 -210 219 -271 b 661 -4 539 -271 661 -150 b 593 171 661 78 633 132 b 707 358 657 208 704 272 b 289 743 707 678 289 586 b 375 819 289 785 322 819 b 569 710 446 819 517 778 l 703 846 b 374 1000 624 938 515 1000 b 75 733 197 1000 75 878 b 143 558 75 651 103 597 b 28 371 79 521 31 457 b 447 -14 28 51 447 143 z m 243 379 b 310 472 243 425 272 458 b 493 349 404 442 493 421 b 426 257 493 303 465 271 b 243 379 331 288 243 307 z "},"¶":{"ha":1058,"x_min":0,"x_max":0,"o":"m 589 -274 l 589 972 l 383 972 b 24 669 164 972 24 860 b 383 368 24 481 164 368 l 383 -274 z m 718 -274 l 924 -274 l 924 972 l 718 972 z "},"©":{"ha":1142,"x_min":0,"x_max":0,"o":"m 1090 486 b 572 1000 1090 764 881 1000 b 51 486 261 1000 51 764 b 569 -28 51 208 261 -28 b 1090 486 881 -28 1090 208 z m 183 486 b 571 881 183 703 344 881 b 958 486 797 881 958 703 b 571 92 958 269 797 92 b 183 486 344 92 183 269 z m 582 332 b 438 486 497 332 438 394 b 582 640 438 576 497 640 b 700 578 636 640 675 614 l 836 682 b 582 801 781 754 692 801 b 260 486 390 801 260 657 b 582 171 260 315 390 171 b 836 292 692 171 781 218 l 700 394 b 582 332 675 358 635 332 z "},"®":{"ha":685,"x_min":0,"x_max":0,"o":"m 654 692 b 343 1000 654 858 528 1000 b 31 692 157 1000 31 858 b 342 383 31 525 157 383 b 654 692 528 383 654 525 z m 222 513 l 325 513 l 325 642 l 335 642 l 389 513 l 497 513 b 343 456 457 476 404 456 b 110 692 207 456 110 561 b 343 928 110 822 207 928 b 575 692 478 928 575 822 b 501 517 575 622 547 560 l 433 660 b 490 756 469 679 490 711 b 349 871 490 829 436 871 l 222 871 z m 354 786 b 385 757 374 786 385 775 b 354 726 385 738 374 726 l 325 726 l 325 786 z "},"™":{"ha":1342,"x_min":0,"x_max":0,"o":"m 36 817 l 203 817 l 203 375 l 375 375 l 375 817 l 543 817 l 543 972 l 36 972 z m 621 375 l 793 375 l 793 722 l 875 579 l 990 579 l 1072 722 l 1072 375 l 1244 375 l 1244 972 l 1031 972 l 932 794 l 835 972 l 621 972 z "},"\\":{"ha":544,"x_min":0,"x_max":0,"o":"m 532 -274 l 235 1042 l 13 1042 l 310 -274 z "},"/":{"ha":544,"x_min":0,"x_max":0,"o":"m 13 -274 l 235 -274 l 532 1042 l 310 1042 z "},"|":{"ha":544,"x_min":0,"x_max":0,"o":"m 169 -274 l 375 -274 l 375 1042 l 169 1042 z "},"¦":{"ha":544,"x_min":0,"x_max":0,"o":"m 375 553 l 375 1042 l 169 1042 l 169 553 z m 375 -274 l 375 215 l 169 215 l 169 -274 z "},"^":{"ha":833,"x_min":0,"x_max":0,"o":"m 289 214 l 417 421 l 544 214 l 738 214 l 554 528 l 279 528 l 96 214 z "},"~":{"ha":833,"x_min":0,"x_max":0,"o":"m 733 531 l 576 531 l 576 417 b 538 361 576 378 567 361 b 281 540 471 361 468 540 b 100 319 168 540 100 463 l 100 211 l 257 211 l 257 325 b 297 381 257 363 267 381 b 553 201 365 381 368 201 b 733 433 667 201 733 292 z "},"_":{"ha":750,"x_min":0,"x_max":0,"o":"m 0 -94 l 0 -281 l 750 -281 l 750 -94 z "},"¤":{"ha":833,"x_min":0,"x_max":0,"o":"m 635 0 l 767 131 l 640 257 b 658 351 651 286 658 317 b 642 443 658 385 653 415 l 767 568 l 635 699 l 506 569 b 419 583 479 579 450 583 b 329 568 386 583 356 578 l 199 699 l 68 567 l 194 440 b 179 351 185 413 179 383 b 196 260 179 318 185 288 l 67 131 l 197 -1 l 332 133 b 419 119 358 124 388 119 b 503 132 450 119 478 124 z m 419 263 b 339 351 374 263 339 294 b 419 439 339 408 374 439 b 500 351 465 439 500 408 b 419 263 500 296 465 263 z "},"$":{"ha":833,"x_min":0,"x_max":0,"o":"m 44 157 b 340 6 115 75 208 22 l 340 -97 l 522 -97 l 522 8 b 782 288 669 36 779 135 b 293 706 782 628 293 558 b 424 788 293 751 329 788 b 642 674 501 788 583 744 l 796 818 b 522 967 726 894 635 947 l 522 1069 l 340 1069 l 340 968 b 79 696 182 939 79 826 b 569 279 79 363 569 433 b 431 190 569 219 531 190 b 199 299 349 190 265 229 z "},"€":{"ha":833,"x_min":0,"x_max":0,"o":"m 28 285 l 151 285 b 514 -28 194 75 314 -28 b 811 113 642 -28 746 26 l 636 243 b 517 176 610 206 568 176 b 390 285 454 176 411 199 l 683 285 l 683 467 l 372 467 b 372 489 372 474 372 481 b 372 518 372 499 372 508 l 683 518 l 683 700 l 393 700 b 517 799 415 778 456 799 b 636 731 571 799 611 769 l 811 863 b 514 1001 746 949 642 1001 b 153 700 317 1001 197 903 l 28 700 l 28 518 l 133 518 b 133 489 133 508 133 499 b 133 467 133 482 133 474 l 28 467 z "},"¢":{"ha":833,"x_min":0,"x_max":0,"o":"m 461 318 b 300 489 368 318 300 385 b 461 661 300 592 368 661 b 583 593 519 661 558 632 l 760 728 b 535 861 707 797 631 844 l 535 972 l 353 972 l 353 854 b 72 489 174 813 72 661 b 353 124 72 317 174 165 l 353 0 l 535 0 l 535 118 b 760 251 629 135 707 182 l 583 385 b 461 318 558 347 515 318 z "},"£":{"ha":833,"x_min":0,"x_max":0,"o":"m 79 0 l 768 0 l 768 211 l 365 211 l 396 238 b 479 394 453 286 475 338 l 699 394 l 699 576 l 415 576 b 367 701 390 615 367 654 b 461 792 367 754 404 792 b 572 714 513 792 544 760 l 746 846 b 447 1000 683 940 601 1000 b 136 722 260 1000 136 882 b 181 576 136 664 156 617 l 79 576 l 79 394 l 265 394 b 224 339 260 371 247 358 l 81 211 l 79 211 z "},"¥":{"ha":833,"x_min":0,"x_max":0,"o":"m 64 285 l 299 285 l 299 0 l 533 0 l 533 285 l 767 285 l 767 467 l 533 467 l 533 518 l 767 518 l 767 700 l 671 700 l 826 972 l 558 972 l 418 710 l 279 972 l 7 972 l 163 700 l 64 700 l 64 518 l 299 518 l 299 467 l 64 467 z "},"ⁱ":{"ha":281,"x_min":0,"x_max":0,"o":"m 142 1011 b 236 1107 192 1011 236 1056 b 142 1203 236 1158 192 1203 b 46 1107 89 1203 46 1158 b 142 1011 46 1056 89 1011 z m 64 563 l 217 563 l 217 993 l 64 993 z "},"ⁿ":{"ha":544,"x_min":0,"x_max":0,"o":"m 64 563 l 217 563 l 217 822 b 281 865 221 828 236 865 b 335 806 317 865 335 840 l 335 563 l 489 563 l 489 813 b 322 1010 489 946 413 1010 b 217 975 276 1010 243 996 l 217 993 l 64 993 z "},"ª":{"ha":496,"x_min":0,"x_max":0,"o":"m 183 546 b 288 589 224 546 267 564 l 288 563 l 442 563 l 442 829 b 240 1010 442 922 381 1010 b 56 921 160 1010 96 976 l 168 838 b 235 878 182 864 206 878 b 286 839 263 878 282 860 l 185 819 b 39 685 90 804 39 751 b 183 546 39 597 99 546 z m 182 690 b 226 726 182 710 189 719 l 288 739 l 288 699 b 219 660 274 679 254 660 b 182 690 196 660 182 671 z m 67 333 l 442 333 l 442 481 l 67 481 z "},"º":{"ha":560,"x_min":0,"x_max":0,"o":"m 281 1010 b 40 778 138 1010 40 911 b 281 546 40 644 138 546 b 519 778 422 546 519 644 b 281 1010 519 911 422 1010 z m 281 689 b 200 778 235 689 200 721 b 281 865 200 835 235 865 b 361 778 326 865 361 835 b 281 689 361 722 326 689 z m 72 333 l 489 333 l 489 481 l 72 481 z "},"⁰":{"ha":540,"x_min":0,"x_max":0,"o":"m 269 1176 b 31 861 104 1176 31 1042 b 269 546 31 681 104 546 b 508 861 436 546 508 681 b 269 1176 508 1042 436 1176 z m 271 1026 b 342 861 319 1026 342 971 b 271 696 342 753 319 696 b 199 861 219 696 199 751 b 271 1026 199 969 219 1026 z "},"¹":{"ha":540,"x_min":0,"x_max":0,"o":"m 67 563 l 497 563 l 497 710 l 372 710 l 372 1160 l 217 1160 l 33 1056 l 113 939 l 208 990 l 208 710 l 67 710 z "},"²":{"ha":540,"x_min":0,"x_max":0,"o":"m 53 563 l 483 563 l 483 710 l 256 710 l 371 814 b 468 999 411 849 468 907 b 260 1176 468 1107 381 1176 b 17 1028 142 1176 69 1115 l 147 947 b 250 1032 175 994 203 1032 b 303 981 282 1032 303 1013 b 260 903 303 938 264 906 l 53 710 z "},"³":{"ha":540,"x_min":0,"x_max":0,"o":"m 494 742 b 413 883 494 803 465 851 b 469 1014 450 915 469 960 b 267 1176 469 1114 383 1176 b 42 1061 158 1176 88 1132 l 174 979 b 254 1032 192 1010 214 1032 b 304 992 283 1032 304 1018 b 247 949 304 961 275 949 l 156 949 l 156 804 l 250 804 b 329 747 294 804 329 788 b 264 690 329 714 301 690 b 156 771 214 690 181 715 l 13 683 b 264 546 60 596 140 546 b 494 742 400 546 494 617 z "},"⁴":{"ha":540,"x_min":0,"x_max":0,"o":"m 289 563 l 453 563 l 453 704 l 503 704 l 503 838 l 453 838 l 453 1160 l 267 1160 l 39 838 l 39 704 l 289 704 z m 199 838 l 289 963 l 289 838 z "},"⁵":{"ha":540,"x_min":0,"x_max":0,"o":"m 82 806 l 172 804 l 242 804 b 338 747 304 804 338 788 b 274 690 338 714 313 690 b 164 771 225 690 190 714 l 21 683 b 274 546 68 596 151 546 b 503 746 403 546 503 617 b 253 950 503 882 401 949 l 256 1013 l 490 1013 l 490 1160 l 100 1160 z "},"⁶":{"ha":540,"x_min":0,"x_max":0,"o":"m 294 1176 b 25 867 113 1176 25 1050 b 282 546 25 678 101 546 b 515 760 425 546 515 642 b 324 958 515 872 446 958 b 196 913 265 958 226 942 b 296 1031 204 997 239 1031 b 393 982 340 1031 367 1010 l 515 1085 b 294 1176 478 1126 408 1176 z m 283 815 b 349 754 326 815 349 792 b 281 692 349 715 324 692 b 199 778 233 692 208 717 b 283 815 217 801 247 815 z "},"⁷":{"ha":540,"x_min":0,"x_max":0,"o":"m 251 563 l 506 1013 l 506 1160 l 58 1160 l 58 1013 l 324 1013 l 53 563 z "},"⁸":{"ha":540,"x_min":0,"x_max":0,"o":"m 269 1176 b 51 1008 119 1176 51 1092 b 126 882 51 963 75 914 b 26 731 60 850 26 794 b 269 546 26 628 108 546 b 513 731 433 546 513 628 b 414 882 513 794 481 850 b 489 1008 465 914 489 963 b 269 1176 489 1092 421 1176 z m 272 943 b 218 990 236 943 218 960 b 272 1038 218 1018 236 1038 b 322 990 304 1038 322 1018 b 272 943 322 960 304 943 z m 271 685 b 194 742 221 685 194 706 b 271 803 194 779 221 803 b 346 742 319 803 346 779 b 271 685 346 706 319 685 z "},"⁹":{"ha":540,"x_min":0,"x_max":0,"o":"m 246 546 b 515 856 428 546 515 672 b 258 1176 515 1044 439 1176 b 25 963 115 1176 25 1081 b 217 764 25 850 94 764 b 344 810 275 764 314 781 b 244 692 336 725 301 692 b 147 740 200 692 174 713 l 25 638 b 246 546 63 596 132 546 z m 192 968 b 260 1031 192 1007 217 1031 b 342 944 307 1031 332 1006 b 257 907 324 921 293 907 b 192 968 214 907 192 931 z "},"₀":{"ha":540,"x_min":0,"x_max":0,"o":"m 269 426 b 31 111 104 426 31 292 b 269 -204 31 -69 104 -204 b 508 111 436 -204 508 -69 b 269 426 508 292 436 426 z m 271 276 b 342 111 319 276 342 221 b 271 -54 342 3 319 -54 b 199 111 219 -54 199 1 b 271 276 199 219 219 276 z "},"₁":{"ha":540,"x_min":0,"x_max":0,"o":"m 67 -187 l 497 -187 l 497 -40 l 372 -40 l 372 410 l 217 410 l 33 306 l 113 189 l 208 240 l 208 -40 l 67 -40 z "},"₂":{"ha":540,"x_min":0,"x_max":0,"o":"m 53 -187 l 483 -187 l 483 -40 l 256 -40 l 371 64 b 468 249 411 99 468 157 b 260 426 468 357 381 426 b 17 278 142 426 69 365 l 147 197 b 250 282 175 244 203 282 b 303 231 282 282 303 263 b 260 153 303 188 264 156 l 53 -40 z "},"₃":{"ha":540,"x_min":0,"x_max":0,"o":"m 254 282 b 304 242 283 282 304 268 b 247 199 304 211 275 199 l 156 199 l 156 54 l 250 54 b 329 -3 294 54 329 38 b 264 -60 329 -36 301 -60 b 156 21 214 -60 181 -35 l 13 -67 b 264 -204 60 -154 140 -204 b 494 -8 400 -204 494 -133 b 413 133 494 53 465 101 b 469 264 450 165 469 210 b 267 426 469 364 383 426 b 42 311 158 426 88 382 l 174 229 b 254 282 192 260 214 282 z "},"₄":{"ha":540,"x_min":0,"x_max":0,"o":"m 39 -46 l 289 -46 l 289 -187 l 453 -187 l 453 -46 l 503 -46 l 503 88 l 453 88 l 453 410 l 267 410 l 39 88 z m 199 88 l 289 213 l 289 88 z "},"₅":{"ha":540,"x_min":0,"x_max":0,"o":"m 82 56 l 172 54 l 242 54 b 338 -3 304 54 338 38 b 274 -60 338 -36 313 -60 b 164 21 225 -60 190 -36 l 21 -67 b 274 -204 68 -154 151 -204 b 503 -4 403 -204 503 -133 b 253 200 503 132 401 199 l 256 263 l 490 263 l 490 410 l 100 410 z "},"₆":{"ha":540,"x_min":0,"x_max":0,"o":"m 294 426 b 25 117 113 426 25 300 b 282 -204 25 -72 101 -204 b 515 10 425 -204 515 -108 b 324 208 515 122 446 208 b 196 163 265 208 226 192 b 296 281 204 247 239 281 b 393 232 340 281 367 260 l 515 335 b 294 426 478 376 408 426 z m 283 65 b 349 4 326 65 349 42 b 281 -58 349 -35 324 -58 b 199 28 233 -58 208 -33 b 283 65 217 51 247 65 z "},"₇":{"ha":540,"x_min":0,"x_max":0,"o":"m 251 -187 l 506 263 l 506 410 l 58 410 l 58 263 l 324 263 l 53 -187 z "},"₈":{"ha":540,"x_min":0,"x_max":0,"o":"m 269 426 b 51 258 119 426 51 342 b 126 132 51 213 75 164 b 26 -19 60 100 26 44 b 269 -204 26 -122 108 -204 b 513 -19 433 -204 513 -122 b 414 132 513 44 481 100 b 489 258 465 164 489 213 b 269 426 489 342 421 426 z m 272 193 b 218 240 236 193 218 210 b 272 288 218 268 236 288 b 322 240 304 288 322 268 b 272 193 322 210 304 193 z m 271 -65 b 194 -8 221 -65 194 -44 b 271 53 194 29 221 53 b 346 -8 319 53 346 29 b 271 -65 346 -44 319 -65 z "},"₉":{"ha":540,"x_min":0,"x_max":0,"o":"m 246 -204 b 515 106 428 -204 515 -78 b 258 426 515 294 439 426 b 25 213 115 426 25 331 b 217 14 25 100 94 14 b 344 60 275 14 314 31 b 244 -58 336 -25 301 -58 b 147 -10 200 -58 174 -37 l 25 -112 b 246 -204 63 -154 132 -204 z m 192 218 b 260 281 192 257 217 281 b 342 194 307 281 332 256 b 257 157 324 171 293 157 b 192 218 214 157 192 181 z "},"⁄":{"ha":419,"x_min":0,"x_max":0,"o":"m -265 0 l -43 0 l 671 972 l 449 972 z "},"¼":{"ha":1375,"x_min":0,"x_max":0,"o":"m 67 375 l 497 375 l 497 522 l 372 522 l 372 972 l 217 972 l 33 868 l 113 751 l 208 803 l 208 522 l 67 522 z m 275 0 l 497 0 l 1211 972 l 989 972 z m 874 142 l 1124 142 l 1124 0 l 1288 0 l 1288 142 l 1338 142 l 1338 275 l 1288 275 l 1288 597 l 1101 597 l 874 275 z m 1033 275 l 1124 400 l 1124 275 z "},"½":{"ha":1458,"x_min":0,"x_max":0,"o":"m 67 375 l 497 375 l 497 522 l 372 522 l 372 972 l 217 972 l 33 868 l 113 751 l 208 803 l 208 522 l 67 522 z m 275 0 l 497 0 l 1211 972 l 989 972 z m 971 0 l 1401 0 l 1401 147 l 1174 147 l 1289 251 b 1386 436 1329 286 1386 344 b 1178 614 1386 544 1299 614 b 935 465 1060 614 988 553 l 1065 385 b 1168 469 1093 432 1121 469 b 1221 418 1200 469 1221 450 b 1178 340 1221 375 1182 343 l 971 147 z "},"¾":{"ha":1319,"x_min":0,"x_max":0,"o":"m 494 554 b 413 696 494 615 465 664 b 469 826 450 728 469 772 b 267 989 469 926 383 989 b 42 874 158 989 88 944 l 174 792 b 254 844 192 822 214 844 b 304 804 283 844 304 831 b 247 761 304 774 275 761 l 156 761 l 156 617 l 250 617 b 329 560 294 617 329 600 b 264 503 329 526 301 503 b 156 583 214 503 181 528 l 13 496 b 264 358 60 408 140 358 b 494 554 400 358 494 429 z m 219 0 l 442 0 l 1156 972 l 933 972 z m 818 142 l 1068 142 l 1068 0 l 1232 0 l 1232 142 l 1282 142 l 1282 275 l 1232 275 l 1232 597 l 1046 597 l 818 275 z m 978 275 l 1068 400 l 1068 275 z "},"%":{"ha":1158,"x_min":0,"x_max":0,"o":"m 281 1003 b 40 771 138 1003 40 904 b 281 539 40 638 138 539 b 519 771 422 539 519 638 b 281 1003 519 904 422 1003 z m 108 1 l 331 1 l 1044 974 l 822 974 z m 281 682 b 200 771 235 682 200 714 b 281 858 200 828 235 858 b 361 771 326 858 361 828 b 281 682 361 715 326 682 z m 878 438 b 638 206 735 438 638 339 b 878 -26 638 72 735 -26 b 1117 206 1019 -26 1117 72 b 878 438 1117 339 1019 438 z m 878 117 b 797 206 832 117 797 149 b 878 293 797 263 832 293 b 958 206 924 293 958 263 b 878 117 958 150 924 117 z "},"‰":{"ha":1682,"x_min":0,"x_max":0,"o":"m 281 1003 b 40 771 138 1003 40 904 b 281 539 40 638 138 539 b 519 771 422 539 519 638 b 281 1003 519 904 422 1003 z m 108 1 l 331 1 l 1044 974 l 822 974 z m 281 682 b 200 771 235 682 200 714 b 281 858 200 828 235 858 b 361 771 326 858 361 828 b 281 682 361 715 326 682 z m 878 438 b 638 206 735 438 638 339 b 878 -26 638 72 735 -26 b 1117 206 1019 -26 1117 72 b 878 438 1117 339 1019 438 z m 1401 438 b 1161 206 1258 438 1161 339 b 1401 -26 1161 72 1258 -26 b 1640 206 1543 -26 1640 72 b 1401 438 1640 339 1543 438 z m 878 117 b 797 206 832 117 797 149 b 878 293 797 263 832 293 b 958 206 924 293 958 263 b 878 117 958 150 924 117 z m 1401 117 b 1321 206 1356 117 1321 149 b 1401 293 1321 263 1356 293 b 1482 206 1447 293 1482 263 b 1401 117 1482 150 1447 117 z "},"+":{"ha":833,"x_min":0,"x_max":0,"o":"m 765 257 l 765 443 l 510 443 l 510 700 l 324 700 l 324 443 l 67 443 l 67 257 l 324 257 l 324 0 l 510 0 l 510 257 z "},"−":{"ha":833,"x_min":0,"x_max":0,"o":"m 765 257 l 765 443 l 67 443 l 67 257 z "},"×":{"ha":833,"x_min":0,"x_max":0,"o":"m 635 0 l 767 131 l 547 350 l 767 569 l 635 700 l 417 482 l 199 700 l 68 568 l 285 350 l 67 132 l 197 0 l 417 219 z "},"÷":{"ha":833,"x_min":0,"x_max":0,"o":"m 417 492 b 535 610 481 492 535 547 b 417 728 535 674 481 728 b 299 610 353 728 299 674 b 417 492 299 547 353 492 z m 765 257 l 765 443 l 67 443 l 67 257 z m 417 -29 b 535 89 481 -29 535 26 b 417 207 535 153 481 207 b 299 89 353 207 299 153 b 417 -29 299 26 353 -29 z "},"±":{"ha":833,"x_min":0,"x_max":0,"o":"m 765 375 l 765 561 l 510 561 l 510 700 l 324 700 l 324 561 l 67 561 l 67 375 l 324 375 l 324 238 l 510 238 l 510 375 z m 765 0 l 765 186 l 67 186 l 67 0 z "},"=":{"ha":833,"x_min":0,"x_max":0,"o":"m 765 401 l 765 588 l 67 588 l 67 401 z m 765 111 l 765 297 l 67 297 l 67 111 z "},"≠":{"ha":833,"x_min":0,"x_max":0,"o":"m 765 111 l 765 297 l 475 297 l 550 401 l 765 401 l 765 588 l 685 588 l 765 700 l 572 700 l 492 588 l 67 588 l 67 401 l 357 401 l 282 297 l 67 297 l 67 111 l 147 111 l 67 0 l 260 0 l 340 111 z "},"≈":{"ha":833,"x_min":0,"x_max":0,"o":"m 253 392 l 253 417 b 286 469 253 458 267 469 b 564 375 339 469 440 375 b 765 583 669 375 765 443 l 765 629 l 581 629 l 581 604 b 547 551 581 563 567 551 b 269 646 494 551 393 646 b 68 438 164 646 68 578 l 68 392 z m 253 106 l 253 131 b 286 183 253 172 267 183 b 564 89 339 183 440 89 b 765 297 669 89 765 157 l 765 343 l 581 343 l 581 318 b 547 265 581 276 567 265 b 269 360 494 265 393 360 b 68 151 164 360 68 292 l 68 106 z "},"<":{"ha":833,"x_min":0,"x_max":0,"o":"m 765 200 l 308 350 l 765 500 l 765 700 l 67 457 l 67 243 l 765 0 z "},">":{"ha":833,"x_min":0,"x_max":0,"o":"m 67 200 l 67 0 l 765 243 l 765 457 l 67 700 l 67 500 l 524 350 z "},"≤":{"ha":833,"x_min":0,"x_max":0,"o":"m 765 194 l 765 394 l 308 544 l 765 694 l 765 894 l 67 651 l 67 438 z m 765 0 l 765 186 l 67 186 l 67 0 z "},"≥":{"ha":833,"x_min":0,"x_max":0,"o":"m 67 394 l 67 194 l 765 438 l 765 651 l 67 894 l 67 694 l 524 544 z m 67 0 l 765 0 l 765 186 l 67 186 z "},"¬":{"ha":833,"x_min":0,"x_max":0,"o":"m 765 588 l 67 588 l 67 401 l 579 401 l 579 111 l 765 111 z "},"#":{"ha":1000,"x_min":0,"x_max":0,"o":"m 69 417 l 69 240 l 161 240 l 96 0 l 292 0 l 357 240 l 507 240 l 442 0 l 638 0 l 703 240 l 931 240 l 931 417 l 751 417 l 790 556 l 931 556 l 931 732 l 839 732 l 904 972 l 708 972 l 643 732 l 493 732 l 558 972 l 363 972 l 297 732 l 69 732 l 69 556 l 249 556 l 210 417 z m 406 417 l 444 556 l 594 556 l 556 417 z "},"√":{"ha":833,"x_min":0,"x_max":0,"o":"m 240 589 l 40 589 l 229 0 l 499 0 l 792 972 l 592 972 l 363 210 z "},"◊":{"ha":833,"x_min":0,"x_max":0,"o":"m 308 0 l 522 0 l 763 486 l 522 972 l 308 972 l 67 486 z m 261 486 l 415 797 l 568 486 l 415 175 z "},"∫":{"ha":582,"x_min":0,"x_max":0,"o":"m 401 -69 l 401 771 b 474 844 401 811 432 844 b 535 819 501 844 521 838 l 669 981 b 471 1042 619 1022 550 1042 b 179 764 286 1042 179 914 l 179 -76 b 107 -150 179 -117 149 -150 b 46 -125 79 -150 60 -143 l -89 -286 b 110 -347 -39 -328 31 -347 b 401 -69 294 -347 401 -219 z "},"°":{"ha":560,"x_min":0,"x_max":0,"o":"m 281 1000 b 40 768 138 1000 40 901 b 281 536 40 635 138 536 b 519 768 422 536 519 635 b 281 1000 519 901 422 1000 z m 281 679 b 200 768 235 679 200 711 b 281 856 200 825 235 856 b 361 768 326 856 361 825 b 281 679 361 713 326 679 z "},"№":{"ha":1683,"x_min":0,"x_max":0,"o":"m 1404 1010 b 1164 778 1261 1010 1164 911 b 1404 546 1164 644 1261 546 b 1643 778 1546 546 1643 644 b 1404 1010 1643 911 1546 1010 z m 135 0 l 382 0 l 382 607 l 731 0 l 1044 0 l 1044 972 l 797 972 l 797 365 l 449 972 l 135 972 z m 1404 689 b 1324 778 1358 689 1324 721 b 1404 865 1324 835 1358 865 b 1485 778 1450 865 1485 835 b 1404 689 1485 722 1450 689 z m 1196 333 l 1613 333 l 1613 481 l 1196 481 z "},"←":{"ha":1111,"x_min":0,"x_max":0,"o":"m 506 50 l 638 182 l 403 407 l 1056 407 l 1056 593 l 403 593 l 638 818 l 506 950 l 56 499 z "},"↖":{"ha":1111,"x_min":0,"x_max":0,"o":"m 201 217 l 389 217 l 389 536 l 843 81 l 975 213 l 519 667 l 839 667 l 839 853 l 201 853 z "},"↑":{"ha":1111,"x_min":0,"x_max":0,"o":"m 463 0 l 649 0 l 649 643 l 874 418 l 1006 550 l 554 1000 l 106 550 l 238 418 l 463 643 z "},"↗":{"ha":1111,"x_min":0,"x_max":0,"o":"m 333 81 l 788 536 l 788 217 l 975 217 l 975 853 l 338 853 l 338 667 l 657 667 l 201 213 z "},"→":{"ha":1111,"x_min":0,"x_max":0,"o":"m 56 593 l 56 407 l 699 407 l 474 182 l 606 50 l 1056 501 l 606 950 l 474 818 l 699 593 z "},"↘":{"ha":1111,"x_min":0,"x_max":0,"o":"m 333 853 l 201 721 l 657 267 l 338 267 l 338 81 l 975 81 l 975 717 l 788 717 l 788 397 z "},"↓":{"ha":1111,"x_min":0,"x_max":0,"o":"m 1006 422 l 874 554 l 649 329 l 649 972 l 463 972 l 463 329 l 238 554 l 106 422 l 554 -28 z "},"↙":{"ha":1111,"x_min":0,"x_max":0,"o":"m 201 717 l 201 81 l 839 81 l 839 267 l 519 267 l 975 721 l 843 853 l 389 397 l 389 717 z "},"⁠":{"ha":0,"x_min":0,"x_max":0,"o":""},"​":{"ha":0,"x_min":0,"x_max":0,"o":""},"﻿":{"ha":0,"x_min":0,"x_max":0,"o":""},"‌":{"ha":0,"x_min":0,"x_max":0,"o":""},"‍":{"ha":0,"x_min":0,"x_max":0,"o":""}," ":{"ha":375,"x_min":0,"x_max":0,"o":""}," ":{"ha":750,"x_min":0,"x_max":0,"o":""}," ":{"ha":750,"x_min":0,"x_max":0,"o":""}," ":{"ha":1500,"x_min":0,"x_max":0,"o":""}," ":{"ha":1500,"x_min":0,"x_max":0,"o":""}," ":{"ha":500,"x_min":0,"x_max":0,"o":""}," ":{"ha":375,"x_min":0,"x_max":0,"o":""}," ":{"ha":250,"x_min":0,"x_max":0,"o":""}," ":{"ha":833,"x_min":0,"x_max":0,"o":""}," ":{"ha":375,"x_min":0,"x_max":0,"o":""}," ":{"ha":188,"x_min":0,"x_max":0,"o":""}," ":{"ha":150,"x_min":0,"x_max":0,"o":""}}}
